<?xml version="1.0" encoding="UTF-8"?><svg id="LI" xmlns="http://www.w3.org/2000/svg" viewBox="0 0 612 612"><path d="M124.67,462.87c-.25-.21,1.92,2.4,2.13,2.61,.46,.47,.94,.57,1.62,1.26,.89,.87,1.4,1.53,3.31,3.34,1.5,1.4,3.18,2.6,5.15,4.34,.93,.8,2.15,1.95,3.54,3.09,.03,.02,1.3,1.06,1.56,1.27,.17,.12,.51,.2,.64,.3,.78,.63,1.71,1.61,2.48,2.23,.97,.81,1.78,1.19,2.76,1.92,.25,.18,1.25,.88,1.11,.76,.41,.33,.44,.53,.97,.92,1.39,1.03,3.64,2.62,5.99,4.25,2.39,1.6,4.42,2.97,7.18,4.82,.72,.48,1.58,.87,1.75,.98,.95,.6,1.82,1.37,2.7,1.91,1.13,.7,2.72,1.58,4.36,2.54,.82,.48,1.64,.99,2.43,1.5,.8,.49,1.58,.97,2.26,1.46,.65,.47,.59,.98,1.36,1.54,.05,.04,.33,.2,.6,.36s.53,.32,.53,.32c.11,.35-4.98-1.27-6.02-1.72-1.2-.55-3.13-1.67-4.77-2.48-.43-.22-.57-.31-1.18-.65-.04-.02-1.11-.62-1.18-.65-.67-.32-.78-.05-1.39-.37-.55-.28-1.16-.66-1.75-1.05-.58-.41-1.15-.82-1.66-1.11-.89-.51-1.6-.79-2.42-1.26-.46-.26-1.16-.84-1.68-1.13-.2-.11,.04,.27-.14,.18-.21-.11-.84-.68-1.07-.82-1.74-1.02-3.39-1.98-4.72-2.76,.48,.5,.97,.95,1.46,1.37,.51,.4,1.02,.77,1.53,1.11,1.02,.7,2.03,1.31,2.99,1.94,1.54,1.02,2.98,1.97,4.52,2.98,1.55,1,3.26,1.95,5.23,3.12,1.14,.66,2.16,1.21,4.09,2.36,.47,.28,.93,.55,1.39,.81,.47,.24,.95,.48,1.43,.73,.97,.49,1.98,1.01,3.13,1.62,.34,.18,.79,.3,1.21,.59,.9,.62,.5,.35,2.35,1.29,1.95,1.03,3.29,2.14,2.47,2.38-.98,.34-7.76-3.76-7.57-3.13,.36,1.06,7,4.11,8.27,4.57,2.28,1.08,4,2.16,4.77,2.51,.48,.22,.83,.24,1.31,.42,.57,.22,1.3,.53,2.12,.89,.84,.34,1.77,.71,2.74,1.1,1.94,.79,4.02,1.64,5.76,2.29,1.98,.81,4.96,1.82,8.04,2.95,1.54,.57,3.11,1.16,4.62,1.73,1.51,.56,3.01,1,4.31,1.46,.66,.51-.26,.65,.23,1.22,1.14,1.31-3.29-.05-5.13,.13,.1,.23,1.54,.79,2.46,1.11,1.28,.45,1.35,.25,2,.44,1.58,.48,3.29,1.12,5.13,1.64,.64,.18,1.18,.21,1.99,.42,1.16,.28,1.73,.48,2.6,.69,1.4,.32,2.75,.5,3.97,.8,1.69,.4,3.48,1.13,5.14,1.48,1.46,.28,3.65,.65,5.29,.93,1.85,.33,4.17,.58,5.27,.92,2.46,.69-.14,.37,1.17,.78,2.32,.49-.06-.48,2.76-.07,1.38,.2,6.5,1.71,7.69,2.19,.4,.17,1.4,.54,1.87,.84,1.14,.7-.46,1.25,.97,2.05,.58,.32,1.79,.65,3.22,1.07,1.27,.36,3.36,1.22,5.93,1.35,1.36,.03,.31-.22,2.03,.08,.83,.15,5.13,.22,6.75,.3,1.44,.06,2.6,.3,4.03,.26,.36,0,1.12-.25,1.37-.25,.62,0,1.39,.15,2.01,.14,1.36,0,3.2,.02,5.21,.05,1,0,2.05,.06,3.09,0,1.05-.05,2.1-.1,3.11-.14,.36-.02,1.1-.31,1.35-.33,1.23-.08,2.84,.07,4.01-.1,.55-.08,1.13-.07,1.86-.06,.73,.02,1.63,.03,2.81-.1,.67-.07,1.58-.38,2-.42,1.62-.17,3.3-.26,5.15-.35,1.85-.09,3.86-.15,6.14-.48,.86-.11,1.7-.44,2.62-.58,2.64-.42,5.47-.63,7.71-.75,2.24-.14,3.92,.01,4.31,.63,.15,.24-.19,.8-1.17,1.45-.74,.49-3.91,1.34-1.19,1.45,1.45,.06,3.79-.14,6.35-.46,1.28-.18,2.63-.31,3.93-.58,1.3-.28,2.58-.55,3.75-.8,1.16-.26,1.63-.57,3.25-.96-.25,.06,.42,.22,.7,.06,.36-.2,1.05-.42,1.94-.66,.45-.11,.94-.24,1.47-.37,.53-.15,1.08-.3,1.65-.47,2.29-.63,4.85-1.28,6.61-1.79,.14-.04,.01-.19,.61-.33,.33-.08,.96-.05,.7,.03,1.71-.53,2.32-1.07,3.75-1.55,1.32-.44,3.56-.99,5.15-1.47,1.26-.38,2.47-.78,3.67-1.18,1.19-.42,2.33-.9,3.48-1.33,2.28-.87,4.52-1.65,6.81-2.2,1.14-.26,1.8-.34,2.66-.54,.86-.2,1.91-.52,3.8-1.33,.85-.37,1.51-.89,2.43-1.16,.05,0,4.37-.85,4.71-.91,2.49,.07-.46,3.91,5.3,.28,.71-.45,.89-.88,1.62-1.35,.71-.45,2.33-1.14,3.01-1.57,.93-.6,1.35-1.27,1.57-1.41,1.43-.97,3.82-2.17,5.25-3.1,.27-.18,.22-.49,.43-.64,.83-.58,2.18-1.1,3.5-2.04,.71-.51,1.33-1.07,2.15-1.67,.51-.37,1.9-1.11,1.75-1,2-1.43,2.02-2.03,3.8-2.82,.54-.12,.84,0,.97,.3,3.18-1.35-1.68,.6,1.15-.69,.75-.36,1.08-.34,1.9-.77,.59-.05-.47,.77-.75,1.36-.19,.4,.19,.72-.09,1.16-.63,.99-2.75,2.37-2.45,2.52,.84,.37,2.69-.6,4.4-1.99,1.73-1.36,3.43-2.95,4.18-3.56,.76-.61,1.49-1.2,2.21-1.79,.73-.57,1.45-1.14,2.15-1.76,1.42-1.21,2.88-2.47,4.54-3.89,1.64-1.43,3.26-3.04,5.44-5.16,.75-.71,1.09-1,1.48-1.39,.77-.81,3.79-3.4,5.47-5.03,.73-.7,1.66-1.59,2.43-2.34-.09,.08,.04-.43,.39-.58,1.29-.53,1.01-.87,1.92-1.89,.99-1.15,1.91-1.58,3.42-3.23,.22-.24,.58-1.03,.73-1.19,.97-1.05,2.09-2.12,3.28-3.36,.99-1.04,2.21-2.21,3.28-3.35,1.5-1.77,2.84-3.35,4.27-5.04,1.42-1.69,3.03-3.41,4.86-5.65,.15-.18,1.21-1.05,1.89-1.89,1.02-1.27,2.55-2.96,4.02-4.54,1.4-1.64,2.75-3.16,3.54-3.96,1.73-1.75,1.97-1.93,3.04-2.73,1.27-.94,2.52-.35,1.78,1.35-.15,.33-.94,1.59-.99,1.81-.1,.48,.65,.18,.68,.53,.02,.18-.69,1.5-.43,1.39,.7-.3,1.79-1.54,2.92-3.01,.28-.37,.56-.75,.85-1.14,.26-.4,.52-.8,.77-1.2,.49-.79,.96-1.55,1.35-2.18,1.64-2.73,3.72-5.34,4.53-7.65,.23-.66,2.83-5.01,3.99-7.15,.38-.72,.75-1.58,1.17-2.47,.24-.52,.79-1.25,1.02-1.76,.09-.22-.02-.61,.05-.76,.45-.92,1.45-2.38,2.03-3.52,.52-1.03,.61-1.66,1.07-2.51,.6-1.12,1.1-1.55,1.77-2.89,.98-1.88,1.97-4.48,3.12-6.77,1.12-2.11,2.31-4.44,3.35-6.65,.91-1.94,1.9-4.26,2.85-6.4,.85-2.18,1.66-4.16,2.35-5.37,.46-.81,.42,.05,.84-.4,.43-.47,1.19-1.99,1.49-1.61,.18,.23,.23,1.63,.53,1.67,.04,0,.46-.75,.54-.52,.07,.17,0,2.29,.03,2.96,.03,.58,.1,.83,.09,1.52-.02,1.26-.03,1.87,1.43-.17,.35-.49,1.28-1.75,1.6-2.36,.29-.55,.71-1.6,1.15-2.71,.22-.56,.45-1.13,.66-1.66,.19-.54,.37-1.04,.53-1.44,.59-1.48,1.1-2.4,1.39-3.2,.58-1.65,1.34-3.81,2.12-6.04,.73-2.25,1.34-4.61,1.91-6.58,.43-1.54,.62-2.84,.97-4.07,3.06-11.56,5.72-25.84,5.84-36.36,.02-.8,.14-1.63,.23-2.63,.07-1,.15-2.16,.19-3.6,.08-3.08,0-6.06,.05-9.02-.05-2.35,.08-4.67,0-6.92-.02-.5-.14-.75-.11-1.39,.01-.23,.15-1.05,.16-.69-.1-2.08-.28-2.64-.38-4.14-.25-3.89-.61-14.23-.73-15.15,0,.11,.23-.71,.23-.71-.02,.14,.18-.75,.09-.7,.21-.12,.47,1.61,.53,1.35,.32-1.28,.13-4.84-.24-8.62-.49-3.77-1.26-7.75-1.71-9.95-.19-.86-.36-1.98-.6-3.26-.26-1.28-.55-2.72-.86-4.24-.3-1.52-.62-3.13-.93-4.73-.31-1.6-.63-3.2-1.05-4.69-1.47-5.49-2.9-10.21-3.71-13.3-.47-2.06-.25-4.01-.61-5.57-.2-.9-.45-1.81-.74-2.75-.3-.93-.68-1.87-1.05-2.85-.75-1.94-1.58-3.98-2.34-6.14-.38-1.03-.61-2.26-1.03-3.3-.9-2.23-3.31-8.2-4.65-11.54-1.25-3.01-2.1-5.97-3.42-9.08-1.07-2.47-2.62-5.3-4.2-8.36-1.54-3.09-3.47-6.22-5.28-9.35-.87-1.5-1.75-3.01-2.63-4.52-.95-1.47-1.89-2.95-2.84-4.42-.95-1.47-1.89-2.93-2.82-4.37-.91-1.46-1.98-2.79-2.94-4.15-.96-1.3-1.91-2.55-2.88-3.81-.98-1.26-1.93-2.56-3.03-3.87-2.38-2.9-4.66-5.97-6.99-8.79-2.38-2.77-4.65-5.42-6.74-7.67-.89-.95-2.02-1.78-3.03-2.84-1.13-1.17-2.12-2.31-3.26-3.61-.58-.64-1.2-1.32-1.88-2.08-.69-.75-1.52-1.5-2.44-2.36-5.03-4.74-12.43-11.06-19-16.02-1.47-1.11-2.49-1.99-3.81-2.97-.95-.7-1.87-1.4-2.83-2.02-.96-.62-1.91-1.24-2.86-1.89-.85-.59-1.82-1.45-2.75-2.08-1.42-.95-2.78-1.86-4.15-2.68-1.39-.8-2.74-1.58-4.05-2.39-1.74-1.11-3.51-2.24-5.22-3.33-4.05-2.27-8.12-4.43-11.46-6.27-.43-.22-1.47-.71-1.84-.94-.06-.04-.56-.53-.51-.5-.5-.25-1.88-.75-3.17-1.37-1.53-.71-3.4-1.73-5.23-2.57-1.83-.84-3.57-1.63-4.7-2.15-1.58-.69-5.36-2.38-8.21-3.51-4.64-1.99-8.09-3.68-7.25-4.17-.08,.04,.79-.04,.75-.04,.35,.07,1.6,.58,1.97,.65,1.06,.2,1.38,.07,2.13,.26,.46,.12,2.22,.85,3.27,1.15,.28,.08,.49-.02,.73,.06,.34,.1,.98,.41,1.29,.5,.86,.24,1.1,.11,2.09,.41,.62,.18,1.95,.74,2.63,.93,2.54,.73,6.75,1.99,2.31-.03-.57-.26-1.45-.49-2.6-1.03-1.85-.87-3.05-1.6-4.43-2.09-1.34-.51-2.54-.8-3.99-1.31-2.1-.73-3.66-1.43-5.91-2.15-2.13-.58-1.49-.36-4.01-1.21-2.02-.69-3.44-.97-6.03-1.77-1.41-.47-2.88-.83-4.34-1.23-1.46-.38-2.93-.77-4.39-1.15-1.56-.38-3.11-.75-4.68-1.13-1.58-.3-3.19-.61-4.85-.93-1.83-.38-3.77-.78-5.74-1.19l-1.47-.31-1.48-.23c-.99-.15-1.96-.29-2.92-.43-1.11-.16-2.25-.22-3.46-.39-1.66-.23-3.11-.58-4.79-.8-2.01-.21-5.31-.47-7.61-.63-1.57-.08-4.06-.44-6.9-.52-2.34-.13-5.39-.3-8.48-.48-1.54-.12-3.11-.1-4.6-.11-1.49,0-2.92,.01-4.19,.02-1.34,.02-2.31,.11-3.46,.11-.7,0-1.51-.04-2.35-.02-.83,.02-1.69,.05-2.48,.07-2.9,.12-6,.37-8.27,.44-.98,0-2.94,.07-5.14,.21-2.2,.13-4.63,.31-6.56,.58-.52,.07-1.25,.15-2.12,.23-.87,.12-1.88,.25-2.99,.4-2.2,.3-4.75,.65-7.2,.98-1.37,.21-1.82,.3-2.72,.47-1.48,.28-3.39,.53-4.76,.8-1.1,.22-1.67,.47-2.68,.66-1.42,.28-2.79,.43-4.08,.68-4.04,1.02-7.83,1.97-11.35,2.86-2.33,.62-4.97,1.37-7.95,2.21-4.32,1.13-9.56,3.2-13.06,4.3-2.14,.63-5.33,1.74-5.91,1.87-.75,.17-.36-.38-.84-.26-.74,.19-2.39,.78-3.93,1.31-1.48,.52-2.54,.87-3.89,1.42-1.33,.59-2.97,1.35-5.65,2.63-.21,.1-1.03,.56-1.85,.94-.67,.32-2.07,.91-1.9,.82-1.05,.5-1.52,.87-2.41,1.36-1.27,.67-2.55,1.35-3.66,1.94-.96,.56-1.95,1.13-2.99,1.73-.76,.4-1.66,.88-2.44,1.29-.96,.61-1.99,1.28-2.91,1.86-2.31,1.44-4.42,2.64-6.46,3.97-.36,.22-.96,.7-1.11,.82-.86,.6-1.98,1.29-2.87,1.89-.78,.53-1.51,1.09-2.24,1.61-.48,.34-1.26,.81-1.72,1.14-.18,.13-.38,.38-.51,.47-.69,.49-1.52,1-2.29,1.57-.77,.57-1.53,1.13-2.18,1.62-3.19,2.42-7.45,5.71-10.33,7.96-.94,.54,1.8-1.48,1.52-1.4-1.19,.89-1.59,1.29-2.7,2.11-1.19,.89-1.16,.71-2.26,1.58-1.08,.86-2.67,2.22-3.64,3.14-1.7,1.51-3.66,3.25-5.65,5.01-.69,.63-1.35,1.24-2.02,1.86-.64,.64-1.28,1.28-1.94,1.95-1.07,1.05-2.26,2.22-3.52,3.46-1.24,1.25-2.63,2.5-3.88,3.9-2.55,2.75-5.19,5.51-7.38,7.9-.76,.85-1.02,1.15-1.82,2.05-1.26,1.47-2.52,2.94-3.57,4.16-.82,.92-1.49,1.67-2.13,2.39-.61,.75-1.19,1.46-1.88,2.29-1.23,1.57-2.65,3.39-4.11,5.26-.36,.47-.73,.95-1.09,1.42-.34,.49-.68,.98-1.02,1.46-.68,.97-1.35,1.92-1.98,2.83-.64,.89-1.39,1.94-2,2.79-1.62,2.22-2.97,4.48-4.49,6.89-.88,1.39-1.84,2.9-2.84,4.47-.51,.77-.99,1.58-1.45,2.41l-1.41,2.48c-1.66,3.01-3.64,6.3-4.93,9.01-1.1,2.1-2.2,4.22-3.48,6.68-.8,1.45-1.68,3.65-2.78,6.07-.54,1.21-1.11,2.49-1.68,3.79-.58,1.29-1.17,2.6-1.65,3.92,.02-.05-.04,.15-.23,.64-1.03,2.65-2.37,6.01-3.61,9.36-1.13,3.39-2.24,6.75-3.1,9.32-.39,1.17-.49,1.36-.83,2.61-.47,1.67-.92,3.29-1.48,5.27-.35,1.27-.64,2.32-.91,3.29-.21,.76-.42,1.45-.6,2.14-.16,.69-.31,1.35-.47,2.02-.31,1.35-.63,2.75-1.03,4.49-.28,1.18-.46,1.97-.78,3.33-.06,.31-.31,1.23-.51,2.38-.2,1.15-.44,2.51-.65,3.66,.03-.17-.03,.33-.11,.68-.33,1.74-.99,5.54-1.35,8.1-.26,1.89-.5,3.63-.84,6.1-.2,1.52-.44,3.25-.69,5.12-.16,1.89-.32,3.92-.5,6.05-.17,2.13-.35,4.34-.53,6.59-.07,2.25-.15,4.53-.22,6.79-.05,1.5-.12,4.94-.21,5.47,.1-3.25,.21-6.56,.31-9.88l.08-2.49,.19-2.49c.13-1.66,.26-3.31,.39-4.96,.08-.97,.2-2.39,.29-3.41,.09-1.5,.24-2.7,.42-4.08,.14-1.07,.26-1.96,.46-3.39,.08-.66,.18-1.49,.34-2.72,.19-1.41,.36-2.76,.56-4.07,.46-2.58,.93-5.27,1.4-7.9,.23-1.32,.46-2.62,.69-3.89,.29-1.26,.57-2.49,.84-3.66,.16-.68,.47-2.04,.61-2.67,.14-.57,.12-.39,.34-1.33,.19-.8,.19-.94,.28-1.34,.2-.88,.28-1.16,.32-1.33,.31-1.57,.83-3.17,1.29-4.86,.48-1.69,.97-3.46,1.48-5.28,.26-.91,.52-1.84,.78-2.78,.31-.93,.62-1.87,.94-2.83,.63-1.91,1.29-3.88,1.95-5.88,.38-1.11,.69-2.22,1.11-3.29,.41-1.07,.81-2.12,1.21-3.16,.6-1.54,1.18-3.04,1.74-4.5,.57-1.45,1.09-2.88,1.71-4.18,1.17-2.64,2.24-5.05,3.16-7.11,.2-.46,.57-1.33,.95-2.2,.39-.86,.82-1.7,1.05-2.16,.15-.29,.23-.39,.34-.6,.74-1.44,1.14-2.22,1.87-3.66,.49-.93,.96-1.75,1.91-3.64,.87-1.68,1.92-3.47,2.98-5.4,.81-1.42,1.58-2.77,2.38-4.17l.81-1.43,.87-1.39c.58-.92,1.15-1.85,1.72-2.77,1.15-1.84,2.29-3.67,3.43-5.51,.81-1.23,1.78-2.51,2.76-3.93,1.44-2.03,2.96-4.38,4.71-6.75,.7-.89,1.8-2.29,2.54-3.24,2.3-2.97,2.73-3.63,3.8-4.87,.06-.06,.42-.44,.47-.5,.59-.7,1.67-1.98,2.21-2.62,.22-.24,.28-.2,.52-.46,.13-.14,2.22-2.51,2.73-3.08,.36-.43,.82-.97,1.36-1.6,.26-.32,.55-.65,.84-1,.31-.33,.63-.68,.96-1.03,2.03-2.16,2.92-3.02,5.66-5.98,.34-.37,.47-.58,.91-1.03,.54-.6,3.68-3.56,5.4-5.28,.94-.95,1.96-2,2.89-2.94,1.29-1.27,3.3-2.95,5.1-4.6,1.3-1.19,2.47-2.26,3.56-3.25,1.07-1,2.12-1.82,3.07-2.64,1.92-1.62,3.62-3.01,5.43-4.33,.64-.47,.65-.54,1.1-.83,.44-.28,.04,.03,.6-.34,1.2-.77,2.23-1.53,3.91-2.81,.33-.25,.63-.54,1.08-.85,.15-.1,.03,.06,.59-.37,1.07-.82,2.08-1.69,3.24-2.57,2.38-1.67,4.93-3.27,6.85-4.62,.94-.69,1.98-1.46,2.79-2.05,1.61-1.06,3.6-2.18,5.29-3.25,1.77-1.13,3.54-2.25,5.25-3.34,.87-.48,1.83-1.02,3.02-1.68,.8-.48,1.77-1.05,2.38-1.41,1.15-.62,2.3-1.23,3.43-1.84,.57-.3,1.12-.59,1.67-.88,.56-.27,1.11-.53,1.65-.79,.55-.04-1.66,.92-1.11,.88,2.79-1.35,.73-.74,1.68-1.29,1.94-.91,3.95-1.86,5.88-2.76,.97-.45,1.91-.91,2.83-1.31,.93-.37,1.82-.73,2.65-1.06,2.22-.87,2.87-1.04,5.25-1.8,2.23-.69,2.44-.8,4.05-1.02,.41-.05,1.19-.06,1.42-.13,1.03-.28,3.34-1.16,5.88-1.99,1.21-.39,2.46-.72,3.3-1,2.31-.69,4.89-1.45,7.57-2.29,1.34-.42,2.72-.84,4.1-1.27,1.4-.38,2.81-.73,4.22-1.08,2.93-.7,5.75-1.38,8.06-1.93,1.63-.32,3.45-.81,4.72-1.05,1.59-.3,3.1-.44,4.78-.73,2.01-.41,4.74-.75,6.81-1.14,.77-.14,1.14-.32,2.04-.45,1.32-.19,3.09-.24,4.13-.39,.63-.1,1.26-.21,1.89-.31l1.89-.26c1.26-.18,2.51-.36,3.77-.49,1.65-.17,3.51-.32,5.48-.46,.98-.09,1.99-.11,3.01-.12,1.02-.02,2.05-.04,3.07-.05,4.1-.06,8.15-.25,11.27-.3,1.7-.06,10.76,.23,13.17,.25,1.43-.08,.22-.11,3.47,.14,3.2,.25,5.49,.23,8.33,.44,2.33,.13,1.37,.23,3.44,.5,.38,.05,4.01,.35,5.55,.47,1.03,.09,1.85,.13,2.78,.26,1.86,.27,4.33,.79,6.18,1.05,1.97,.29,3.73,.34,5.54,.73,1.18,.23,2.03,.57,4.06,1,1.07,.23,1.23,.12,2.77,.41,.98,.2,3.12,.7,4.08,.94,1.09,.25,2.34,.51,3.42,.73,1.75,.36,4.06,.92,6.73,1.6,1.35,.31,2.73,.79,4.21,1.23,1.47,.45,3.01,.92,4.58,1.4,1.31,.39,1.86,.45,3.4,.9,2.37,.73,6.63,2.47,10.53,3.87,1.99,.67,4.22,1.63,7.14,2.93,.9,.4,2.51,1.11,2.57,1.13,.72,.35,.76,.54,1.19,.76,1.75,.9,1.84,.85,3.04,1.77,.15,.11,1.12,.79,1.16,.82,.72,.8-.51,1.01-1.2,.85-.27-.06-2.07-1.12-2.5-1.22-.68-.22-1.18-.09-2.14-.36-.46-.13-1.47-.6-1.95-.75-.48-.15-.8-.2-1.36-.37-2.06-.64-4.17-1.43-5.96-1.93-1.89-.48-3.4-.77-4.79-1.07,2.2,1.12,5.04,1.95,7.62,3.24,1.13,.54,2.53,1.36,3.69,1.88,1.59,.72,2.86,1.08,4.49,1.78,2.54,1.22,5.29,2.81,7.95,4.15,2.29,1.08,5.44,2.89,7.91,4.22,1.49,.81,3,1.48,4.31,2.2,1.35,.73,2.21,1.55,3.46,2.27,.87,.52,1.97,1.19,2.97,1.76,.73,.41,1.59,.77,2.46,1.29,.77,.47,1.54,.98,2.29,1.52,.74,.56,1.48,1.13,2.24,1.66,1.25,.86,2.06,1.24,3.52,2.2,.84,.55,1.68,1.14,2.53,1.74l1.27,.9c.41,.32,.81,.64,1.21,.96,1.6,1.26,3.12,2.46,4.48,3.35,.68,.45,1.03,.55,1.78,1.1,.87,.65,1.78,1.31,2.65,2.08,.87,.76,1.76,1.55,2.69,2.33,1.29,1.07,2.06,1.52,3.31,2.53,.88,.7,.83,.86,1.5,1.44,.55,.43,2.32,1.77,3.23,2.63,.78,.72,.84,.98,1.43,1.51,1.01,.9,1.85,1.44,2.69,2.21,.93,.85,1.39,1.47,2.44,2.47,.67,.69,1.81,1.7,2.5,2.41,1.63,1.68,3.11,3.4,4.73,5.08,1.03,1.03,1.94,1.91,2.89,3.01,.87,1.02,1.76,2.2,2.65,3.22,3.26,3.54,6.75,7.66,9.36,11.19,.36,.49,1.8,2.46,1.61,2.26,.77,1.06,1.42,1.63,2.23,2.67,1.13,1.46,2.13,2.83,3.11,4.22,.49,.69,.97,1.39,1.46,2.09,.48,.71,.93,1.47,1.42,2.23,1.81,2.88,3.99,5.86,5.75,8.71,1.54,2.64,3.08,5.34,4.63,8.07,.8,1.35,1.5,2.76,2.22,4.18,.72,1.41,1.45,2.82,2.17,4.24,1.18,2.28,2.27,4.21,3.14,6.14,.91,1.91,1.76,3.75,2.56,5.8,.39,.98,.62,1.85,.89,2.78,.26,.94,.49,1.96,.97,3.23,.52,1.52,3.94,8.96,4.73,11.58,.62,1.81,1.41,4.1,2.26,6.58,.75,1.97,1.4,4.27,2.05,6.23,.62,1.97,1.13,3.62,1.25,4.4,.19,1.2-.75,1.42-.61,2.32,.2,1.14,2.62,11.06,3.02,12.1,.41,1.13,.57,2.81,1.16,5.42,.21,.95,.59,1.86,.77,2.68,.32,1.52,.64,3.16,.92,4.8,.22,1.64,.45,3.28,.71,4.79,.34,1.97,.82,3.65,1.14,5.47,.1,.54,.17,1.13,.23,1.72,.05,.59,.08,1.19,.14,1.74,.2,1.82,.53,3.17,.62,4.14,.06,.67,.26,4.1,.25,4.87,0,.03-.1,.87-.19,1.72-.12,.85-.29,1.71-.32,1.79-.43,.84-.69-1.5-.86,.04-.1,.94-.12,3.82,.05,6.92,.08,1.4,.37,1.79,.53,3.46,.11,.8-.11,2.72-.06,4.85,.02,1.3,.2,2.2,.22,3.47,.02,2.39-.1,5.18-.19,8.33,0,.33,.2,1.19,.19,1.41-.02,1.09-.2,2.35-.25,3.47-.06,1.35,.08,2.38,.04,3.5-.09,2.49-.4,4.81-.59,7.09-.22,2.28-.41,4.52-.6,6.81-.25,2.05-.42,4.19-.65,5.56-.28,1.68-.66,2.76-.86,4.1-.38,2.64-.34,3.35-.66,4.86-.29,1.37-.76,2.7-1.06,4.06-.29,1.3-.46,2.7-.77,4.13-.2,1.1-.8,2.62-1.19,4.02-.33,1.21-.23,1.47-.6,2.74-.51,1.75-1.18,3.29-1.79,5.31-.29,1.05-.55,2.34-.89,3.39-.64,1.94-1.86,4.74-2.71,7.2-.41,1.2-.6,2.44-1.01,3.35-.53,1.26-1.16,2.4-1.81,3.8-.89,1.94-1.87,4.22-1.66,3.85-.59,1.01-1.23,1.72-1.8,2.12-.59,.4-1.1,.5-1.41,.3-.33-.22-.1-1.39-.24-2.35-.07-.55-.29-.44-.34-.89-.11-1.08-.13-1.2-.97-1.88-.55-.44-.28-1.14-1.38,.9-.92,1.68-.2,1.09-1.45,3.82-.71,1.55-1.57,3.03-2.39,4.89-.65,1.44-1.2,3.21-1.85,4.39-.68,1.26-1.38,1.94-1.84,2.88-.78,1.59-2.21,4.88-2.98,6.89-.27,.64-.4,.95-.87,1.85-.89,1.68-1.63,2.47-2.52,4.05-.46,.82-1.19,2.5-1.75,3.71-.49,1.15-1.6,2.97-1.88,3.65-.33,.75-.28,1.49-.91,2.66-.98,1.83-1.93,3.26-2.87,4.7-.97,1.41-1.98,2.79-2.95,4.6-.38,.7-.83,1.23-1.05,1.78-.06,.16-.04,.62-.12,.76-.5,.9-.9,.9-1.33,1.58-.26,.42-.04,.6-.52,1.33-4,5.57-8.91,11.09-8.92,7.8,0-.22-.02-.52,.02-.87,0,0,0-.17-.01-.37,0-.2,0-.42,.03-.49,.14-.39,1.66-2.57,1.69-2.99,0-.06-.82,.27-.96,.1-.07-.09,.43-1.27-.12-.96-.54,.3-.7,.84-1.39,1.48-.13,.12-.61,.23-.69,.31-1.12,1.34-4.22,4.79-5.78,6.55-.97,1.09-1.99,2.55-3.4,4.16-1.75,1.82-3.84,3.91-6.39,6.91-.63,.73-1.54,1.77-2.24,2.51-.58,.64-1.14,1.5-1.7,2.11-1.95,2.07-3.89,4.06-5.59,5.71-1.75,1.59-3.19,2.91-4.02,3.77-1.59,1.65-2.47,3.17-3.51,4.23-.13,.16-1.58,1.14-3.19,2.52-.46,.39-1.15,1.35-1.37,1.54-.76,.65-1.2,.63-1.71,1.11-.7,.66-.26,.59-1.27,1.69-.36,.4-.81,.76-1.27,1.12-.47,.34-.95,.68-1.34,1.06-.68,.67-1.3,1.36-1.89,2.02-.34,.38-.98,1.29-1.35,1.64-.55,.5-1.62,1.08-2.23,1.58-.29,.24-.69,.92-.91,1.1-.89,.81-2.39,1.65-3.32,2.42-2.2,1.78-3.82,3.47-5.75,5.02-.69,.57-1.38,1.09-2.06,1.56-.67,.47-1.31,.91-1.9,1.3-1.19,.78-2.21,1.37-2.98,1.64-.86,.3-.34-.34-.97-.31-.37,.02-1.1,.5-1.37,.36-1.11-.59,.87-3.14,.89-3.96-2.71,1.47-4.17,3.26-6.07,4.45-1.57,1.04-3.34,1.91-4.67,2.81-1.96,1.31-3.46,2.73-5.01,3.73-.59,.4-1.25,.65-1.79,1.02-.4,.27-.73,.66-1.09,.91-.42,.29-1.34,.68-1.8,1.02-1.07,.78-.39,.49-3.53,2.21-2.83,1.43-2.72,1.38-3.97,1.19-1.07-.17-.98-2.77-3.16-2.38-1.87,.32-3.47,1.72-6.18,2.81-.04,.02-.8,0-1.35,.26-.6,.28-1.03,.66-2.57,.87-1.87,.26-.25-.6-2.34-.59-1.86,.66-3.61,1.26-5.31,1.76-1.72,.46-3.36,.91-4.99,1.43-.97,.31-1.53,.75-2.49,1.1-.91,.33-1.94,.64-3.04,.97-1.1,.3-2.28,.56-3.45,.9-2.12,.6-4.24,1.25-6.57,1.94-.58,.17-1.18,.34-1.79,.52-.62,.14-1.25,.29-1.9,.44-1.3,.29-2.68,.59-4.16,.88-.17,.03-.62,.37-1.3,.42-.27,.02,.03-.23-.7-.06-1.06,.24-1.59,.58-2.61,.85-.65,.22-3.48,.65-6.41,1.09-2.93,.43-5.96,.85-7.04,.86-.24,0-1.01-.22-1.39-.26-2.49-.25-3.62-1.53-1.63-3,.9-.67,.94-.92-2.74-.7-.53,.03-1.04,.31-1.98,.34-.71,.02-2.71,.09-4.66,.37-2.41,.24-3.88,.64-4.66,.68-4.19,.19-2.21-.57-5.35,.15-.6,.13-1.44,.27-2.44,.35-1,.06-2.16,.09-3.39,.12-2.46,.06-5.22,.11-7.6,.25-2.54,.13-5.08,.15-8.1,.18-1.25,0-2.94-.14-4.05-.12-.98,.02-.1,.42-.73,.47,.15,.03-2.61-.25-4.05-.3-2.05-.08-4.56-.1-8.13-.49-1.52-.19-2.29-.56-3.32-.73-3.39-.6-6.07-.8-8.58-2.02-.12-.05-.47-.41-.6-.46-1.67-.58-.69-.32-1.84-1.1-.22-.15-1.16-.54-1.24-.62-.88-.84,.19-1.27-1.63-1.9-.96-.34-3.61-.74-6.43-1.19-2.8-.54-5.77-1.12-7.41-1.44-1.77-.36-2.89-.65-3.84-.87-.93-.26-1.69-.45-2.74-.58-1.49-.19-1.79-.49-4.58-1.18-.48-.12-1.03-.1-2.02-.34-.98-.24-1.56-.23-2.03-.35-.98-.27-2.19-.93-3.15-1.21-.59-.18-1.25-.23-2-.45-.98-.29-1.56-.54-2.58-.84-1.5-.44-3.34-.83-3.96-1.07-1.03-.42-1-.62-1.8-.97-1.43-.61-3.61-1.23-4.21-2.2-.31-.49-1-.96-.99-1.08,.06-.58,1.44-.18,4.3,.3,.18,.03,5.42,1.41,4.78,.76-1.38-1.22-4.59-1.69-8.22-2.9-3.2-.96-8.06-3.56-10.07-3.85-1.22-.22-2.67-1.22-4.99-2.08-.2-.06-1.27-.41-1.31-.42-.86-.42-2.13-1.3-2.94-1.65-.79-.35-.48,.12-1.38-.32-.69-.34-2.31-1.16-2.42-1.21-1.76-.85-3.73-2.35-4.62-2.81-.94-.52-.17,.25-.78-.03-.64-.3-3.03-1.85-4.08-2.43-.21-.11-.58-.22-1.17-.49-.59-.27-1.38-.7-2.37-1.54-1.06-1.44-.05-1.19,1.8-.25,.43,.21,.68,.15,1.28,.52,.23,.14,.78,.7,1.07,.82,.36,.15,.47-.06,.78,.04,.71,.23,2.9,1.36,3.27,1.13-1.6-1.02-2.35-1.32-3.57-1.91-.25-.12-.93-.63-1.14-.71-.55-.22-.67-.06-1.35-.41-.76-.42-2.02-1.37-2.84-1.81-1.88-1.01-3.44-1.46-6.04-3.17-1.12-.7-2.11-1.77-2.65-2.11-1.14-.76-1.66-.79-3.03-1.62-.44-.28-2.9-1.87-5.49-3.75-2.53-1.96-5.23-4.15-6.39-5.33-.03-.03-1.18-1.65-1.13-1.79,.09-.24,.84,.46,1.24,.65,.48,.22,.16,.15,.07-.08-.31-.78,1.53,1.02,2.86,1.87,.46,.29,.8,.14,1.38,.46,.15,.08,.92,.67,1.1,.78,.91,.52,2.23,1.51,3.74,2.42,1.49,.93,3.07,1.9,4.3,2.6,1.11,.63,2.02,1,3.03,1.55,.28,.15,.87,.55,1.46,.92,.59,.37,1.2,.68,1.46,.74,.1,.02-.02-.27,.14-.19,1.39,.7,3.41,2.08,4.64,2.67,1.53,.73,1.38,.32,2.63,.87-.17-.67-1.93-1.29-2.62-2.03,.23-.06,1.67,1.05,1.8,.89-.53-.61-1.97-1.27-1.8-.89,.37,.82-3.17-1.89-4.02-2.37-.62-.36-.53-.11-1.25-.55-.87-.58-1.81-1.39-2.68-1.97-1.56-1.04-3.56-2.21-5.64-3.6-.73-.44-2.49-1.87-4.27-3.28-1.78-1.4-3.56-2.78-4.25-3.19-.33-.19-.31,.11-.73-.19-.29-.22-.75-.59-1.27-1.06-.52-.48-1.12-1.04-1.75-1.58-1.24-1.06-2.64-1.93-3.75-2.86-.66-.56-1.83-1.85-2.41-2.33-.62-.49-1.01-.77-1.59-1.26-.31-.27-1.01-.95-1.49-1.36-.21-.18-.43-.19-.61-.34-.27-.24-.69-.73-.95-.95-1.24-1.07-1.18-1-3.52-3.16-1.87-1.65-11.37-11.05-12.36-13.4-.75-1.47-.38-1.14,1.84,1.12,.5,.51,.51,.62,.92,.99,.43,.39,1.36,1.6,1.94,1.89-1.98-2.46-4.03-4.57-5.84-6.53-.84-.93-1.86-1.98-2.74-3-1.87-2.33-3.58-4.46-5.51-6.86-.68-.86-1.55-1.76-2.14-2.64-.59-.83-1.27-1.98-1.86-2.83-.29-.42-.75-.91-.86-1.06-1.06-1.55-2.19-3.37-3.35-5.09,.08-.28-.25-1.11,.19-.9-.49-.78-.88-1.42-1.84-2.84-.46-.68-.67-.87-1.19-1.66-.52-.78-1.26-2.09-1.78-2.88-.44-.67-.8-1.08-1.18-1.67-.9-1.56-1.78-3.07-2.72-4.7-.97-1.66-1.91-3.15-2.43-4.1-.17-.32-.52-.96-.86-1.67-.33-.71-.68-1.47-.92-2-.05-.09-.54-.76-1.22-2.43-.7-1.72-.54-1.68-.27-1.37,.44,.49,2.66,5.26,2.93,5.37-.04-.2-.29-.67-.57-1.23-.15-.31-.6-1.21-.91-1.82-.68-1.35-1.22-2.32-1.89-3.61-.3-.58-.37-.76-.61-1.21-.92-1.42-3.9-8.28-5.04-11.15-.52-1.37-.46-1.07-.91-2.56-.2-.69-.1-.55-.59-1.95-1.14-3.29-1.54-3.93-2.46-6.35-.16-.47-.87-2.28-1.13-3.21-.6-1.91-.92-2.84-1.35-4.57-.08-.32-.15-.8-.31-1.33-.64-2.17-1.63-4.94-2.33-7.84-.36-1.37-.69-2.64-1.03-3.96-.34-1.36-.74-2.95-1-3.97-.49-2.04-.89-3.98-1.45-6.67-.12-.67-.27-1.45-.38-2.02-.15-.74-.38-1.9-.63-3.13-.26-1.24-.4-2.57-.57-3.59-.34-2.86,.15,.99-.28-2.72-.16-1.39-.15-1.44-.38-2.71-.06-.11,.28,2.4,.39,3.39-.19-.96-.5-3.56-.77-5.41-.24-1.31-.52-3.86-.63-5.43-.12-1.71,0-.29-.16-2.04-.07-.66-.11-1.09-.2-2.04-.09-1-.22-2.49-.36-4.09-.12-1.61-.13-3.35-.2-4.78-.03-.71-.07-1.43-.09-2.05,0-.55-.03-1.49-.04-2.05-.01-.45-.09-1.46-.11-4.1,.02-.71,.08,.68,.08,.68,0,0,0-.27,.01-.5s.01-.39,.03-.19c.05,.73,.16,4.66,.24,6.83,.02,.52,.03,.71,.07,1.37,.06,1.22,.08,3.18,.21,4.78h-.08c.13,2.19,.11,.44,.22,1.36-.06-.53,.3,3.23,.32,3.4,.05,.6,.32,4.17,.4,4.76,.17,1.13,0,.38,.26,2.72,.09,.59,.18,1.14,.32,2.03,.15,1.01,.38,2.63,.59,4.06,.02,.15,.18,1.28,.19,1.35,.22,1.06,.02,.17,.38,2.7,.05,.33,.09,.39,.13,.67,.11,.97,.46,2.56,.6,3.36,.26,1.16,.47,2.1,.75,3.33,.15,.77,.43,2.22,.65,3.35,.15,.68,.28,1.29,.44,2,.13,.69,.32,1.5,.27,1.33,.16,.61,.09,.21,.21,.65,.57,2.19,1.39,5.37,2.05,7.91,.39,1.44,.7,2.48,1.19,3.91,.21,.69,.6,2,.79,2.6,.51,1.53,1.1,3.3,1.72,5.16,.21,.67,.46,1.44,.71,2.23,.29,.77,.58,1.56,.85,2.26,.1,.26,.21,.4,.29,.62,.43,1.15,.92,2.52,1.45,3.81,.27,.67,1.24,3.1,1.77,4.4,.53,1.16,1.41,3.09,2.26,4.94,.81,1.72,1.01,2.02,1.46,3.06,.48,1.11,1.18,3.1,1.82,4.36,1.53,3.19,3.42,6.73,5.06,9.56,.23,.4,.75,1.3,1.01,1.76,.29,.46,.84,1.35,1.43,2.3,.59,.97,1.56,2.55,2.46,4.03,.39,.65,.67,1.18,1.06,1.72,.49,.71,1.76,2.42,2.68,3.89,.9,1.44,1.51,2.66,2.33,4.08-.48-.31-2.13-2.99-2.23-2.58,.35,.4,1.3,1.84,1.97,2.74,.44,.72,3.32,4.56,4.4,5.95,.24,.28,.71,.84,.87,1.03,.48,.61,1.78,2.61,2.74,3.8,.65,.78,.56,.32,2.21,2.54,.05,.07-.15,.01-.12,.08,.07,.12,1.66,2.3,1.98,2.69-1.09-.72-3.43-3.5-5.16-5.38,.55,1.15,2.7,3.51,4.17,5.28,.75,.9,1.34,1.48,2.21,2.54,.74,.95,1.74,2.18,2.59,3.08,.54,.57,.58,.53,.99,.93,.77,.76,2.62,2.77,3.71,3.88,1.59,1.7,3.5,3.23,4.8,4.67,.08,.1,2.46,3.11,2.48,3.14,.07,.27-.79-.62-1.63-1.23-1.73-1.28-.44-.17-2.99-2.71-.31-.31-.79-.64-1.04-.87-.87-.8-1.62-1.73-2.31-2.43-1.59-1.67-2.95-2.96-4.24-4.34-.64-.69-1.36-1.51-2.07-2.31-.66-.84-1.32-1.65-1.87-2.29-.41-.48-.86-.89-1.39-1.49-.43-.49-1.67-2.1-1.39-1.5,1.07,1.67,2.22,2.9,3.34,4.23,.45,.54,1.1,1.35,1.77,2.03,.14,.15,.69,.74,.92,.99,.2,.21,.46,.33,.55,.42,.5,.55,1.21,1.52,1.72,2.07,.27,.29,.46,.31,.55,.42,.8,.91,1.41,1.62,2.21,2.53,.38,.41,.73,.8,1.1,1.19,.38,.38,.78,.77,1.24,1.23,1.63,1.62,2.68,2.78,4.28,4.26,.6,.55,1.06,.82,1.56,1.3,1.46,1.45,2.99,2.9,4.37,4.14,1.66,1.4,2.96,2.5,5.11,4.32,.39,.36,1.37,.98,1.62,1.2,.95,.77,1.16,1.1,2,1.75,.95,.74,2.14,1.62,3.36,2.53,1.22,.91,2.43,1.89,3.51,2.72,.41,.33,1.26,1.11,2.01,1.8,.74,.7,1.39,1.31,1.41,1.32,.26,.47-2.27-.98-4.78-2.61-1.92-1.29-3.88-2.85-5.94-4.45-1.02-.81-2.07-1.63-3.12-2.46-1.06-.82-2.04-1.75-3.07-2.62-.96-.8-1.75-1.47-2.58-2.16-1.15-1.04-2.25-2.04-2.99-2.71-1.04-.85-2.58-2.07-4.88-4.65Z" style="fill:#010101; fill-rule:evenodd;"/><g><path d="M158.86,157.23c0,.08,.43-.3,.45-.35,.04-.11-.13-.35-.07-.52,.08-.21,.26-.23,.45-.66,.15-.33,.1-.86,.24-1.36,.07-.23,.3-.4,.43-.72,0,0,.13-.28,.15-.35,0-.04-.08-.21-.07-.24,.07-.18,.29-.29,.36-.47,.09-.23,.06-.48,.16-.7,.02-.05,.1-.3,.08-.27,.05-.08,.16,0,.22-.11,.15-.29,.3-.88,.55-1.39,.26-.5,.53-.88,.86-1.46,.09-.15,.09-.43,.11-.47,.13-.18,.38-.2,.49-.37,.3-.42,.6-1.51,1.26-1.67,.16-.04,.45,.33,.63,.28,.02,0,.18-.18,.19-.17,.16,.18,.11,1.82,.07,2.09-.04,.35-.24,.75-.33,1.17-.02,.11-.05,.13-.1,.26,0,0-.09,.24-.1,.26-.03,.18,.15,.4,.11,.55-.06,.26-.3,.41-.36,.66-.05,.22-.01,.47-.05,.67-.02,.12-.15,.19-.18,.32,0,.05,.14,.13,.14,.18,0,.06-.15,.09-.17,.15-.09,.42-.18,.8-.15,1.2,.47-.12,.58-.59,.75-.98,.3-.62,.55-1.15,.92-1.91,.11-.23,.18-.46,.38-.83,.19-.38,.35-.72,.62-1.13,.04-.06,.03-.22,.11-.25,.18-.07,.1-.03,.3-.39,.21-.39,.64-.26,.87,.32,.26,.67-.7,1.59-.41,1.89,.5,.53,.92-1.01,1.06-1.23,.26-.38,.58-.5,.66-.64,.05-.09,.02-.25,.05-.37,.15-.57,.82-1.23,1.2-1.9,.46-.73,1.5-1.96,2.35-2.54,.22,.16,.26,.65,.5,.93,.55,.65-.07,1.25,.02,2.14,.09,.13,.33,.05,.46-.04,.19-.13,.11-.33,.19-.41,.21-.21,.48-.36,.72-.64,.08-.1,.1-.31,.21-.43,.15-.17,.25-.19,.37-.33,.18-.22,.31-.55,.48-.72,.24-.24,.57-.3,.81-.52,.21-.19,.51-.52,.75-.76,.27-.27,.57-.75,.77-.77,.46-.04,.09,.37,.35,.4,.4-.15-.14-.43,.3-.79,.22-.18,1.22-.1,1.48,.04,.09,.04,.32,.23,.45,.41,.31,.45,.22,1.3,.58,1.78,.14,.2,.37,.27,.64,.4,.24,.11,.66,.49,1.03,.16,.2-.17,0-.27,.3-.23,.14,.02,.78-.55,1.03-.71,.23-.14,.42-.15,.65-.27,.06-.03,.15-.35,.19-.37,.1-.06,.24,.03,.34-.03,.44-.24,1.21-.52,1.9-.86,.06-.03,.18-.35,.22-.38,.21-.12,.49-.02,.7-.23,.19-.19,.4-.07,.82-.22,.12-.04,.28-.32,.36-.35,.58-.23,1.21-.14,2.04-.32,.16-.03,.33-.29,.51-.35,.5-.16,1.03-.22,1.42-.02,.39,.2,.65,.61,.62,1.27-.01,.26-.15,.76-.39,1.25-.18,.37-.76,.73-.37,1.25,.41,.56,1.46,.59,2.28,.51,.2-.02,.32-.23,.62-.28-.04,0,0,.29,.08,.2,.36-.52,1.48-.24,2.13-.3,.03,0,.05-.18,.15-.15,.06,.01,.12,.2,.07,.21,.33-.07,.54-.37,.8-.38,.25,0,.61,.18,.89,.23,.9,.1,1.83-.04,2.46,.61,.31,.33,.18,.81,.88,.92,.16,.02,.38-.15,.5-.02,0,0,.1,.25,.2,.52,.1,.26,.18,.56,.17,.64-.1,1.16-1.61,2.97-.3,2.56,.16-.05,.35-.32,.52-.37,.17-.05,.4,.11,.56,.06,.22-.06,.48-.35,.54-.36,.34-.07,.72,.14,1.05,.1,.06,0,.22-.27,.27-.28,.21-.03,.38,.14,.68,.14,.16,0,.37-.09,.56-.09,.12,0,.32,.18,.29,.18,.47,0,.78-.41,.96-.07,0,.19-.11,.42-.29,.7,.24,.7-.06-.47,.19,.12,.07,.16,0,.35,.09,.49-.07,.28-.32,.27-.58,.52-.17,.17-.4,.59-.58,.74-.4,.33-.82,.29-.93,.52-.64,1.38,1.04,.68,1.43,.65,.77-.1,1.3,.04,2.09,.11,.39,.03,.94-.1,1.49-.02,.19,.03,.26,.05,.37,.06,.22,0,.91,.19,1.3,.33,.17,.06,.36,.16,.53,.24-.02-.01,.24-.2,.2-.06-.13,.49,.16,.15,.45,.17,.32,.02,.3,.29,.7,.41,.06,.02,.37-.12,.41-.11,.24,.1,.43,.28,.7,.42,.22,.12,.45,.3,.7,.43,.7,.42,1.39,.64,2.11,1.36,.03,.03,.02,.36,.17,.47,.23,.17,.47,.49,.66,.83,.16,.35,.27,.71,.29,.95,.03,.51,0,.6-.15,.98-.17,.46-1.24,1.3-1.78,1.35-.11,.01-.37-.08-.46-.05-.22,.08-.47,.41-.68,.53-.11,.06-.45,.04-.53,.15-.45,.61,.29,1.01,.72,1.25,.45,.26,.69,.7,1.35,.69,.19,0,.72,.58,1.07,.8,.12,.07,.34,.11,.5,.19,.09,.05,.06,.23,.16,.27,.04,.02,.32-.09,.34-.08,.15,.1,.17,.41,.33,.55,.14,.13,.4,.09,.51,.21,.14,.15,.02,.33,.11,.55,.13,.31,.6,.56,.79,.93,.18,.34,.21,.79,.35,1.15,.12,.32,.35,.66,.52,.99,.14,.35,.23,.68,.12,.96-.07,.18-.38,.17-.55,.33-.18,.17-.23,.47-.63,.58-.25,.07-.83,.09-1.1,.21-.04,.02-.1,.17-.26,.21-.12,.02-.88,.01-1.17,.04-.25,.02-.4,.05-.66,.06-.47,.02-.69,.03-1.14,.56-.11,.13-.41,.46-.45,.57-.07,.19,.17,.56,.16,.79,0,.22-.14,.4-.12,.51,.04,.22,.12,.5,.21,.78,.08,.29,.14,.59,.22,.83,.06,.19,.26,.31,.3,.46,.09,.37,.19,.75,.31,1.14l.19,.58c.05,.2,.1,.4,.16,.59,.24,.79,.6,1.53,1.17,2.16,.18,.19,.09,.43,.24,.8,.17,.39,.52,.77,.67,1.16,.13,.31,.07,.63,.21,.93,.03,.07,.17,.1,.16,.18,0,.03-.11,.14-.14,.1,.14,.28,.42,.36,.46,.56,.13,.53,.19,1.98,.07,2.1,.01-.01-.29,.08-.29,.08,.03-.02-.24,.08-.14,.08-.22,0-.33-.25-.42-.22-.43,.14-.52,.6-.47,1.11,.01,.51,.14,1.06,.28,1.39,.2,.51,.08,1.53,.08,2.39-.03,.78,.23,1.56-.04,1.95-.18,.26-.95,.29-1.08,.48-.28,.43-.11,1.07-.25,1.69-.04,.15-.22,.26-.28,.4-.13,.3-.25,1.19-.55,1.59-.29,.36-.87,.54-1.13,.91-.44,.58-.65,1.58-1.17,2.4-.48,.79-.94,1.62-1.41,2.38-.22,.37-.31,.81-.55,1.21-.26,.44-.57,.85-.9,1.21-.35,.35-.67,.69-.88,1.06-.09,.16-.06,.44-.19,.59-.3,.33-.73,.44-1.18,.95-.62,.69-1.36,1.87-2.18,2.67-.18,.18-.37,.25-.52,.41-.23,.24-.38,.56-.61,.78-.11,.1-.33,.09-.44,.2-.33,.36-.56,.8-.91,1.06-.23,.18-.51,.29-.73,.47-.52,.39-.98,.91-1.45,1.18-.06,.03-.19,.13-.26,.13-.01,0-.2-.14-.19-.15-.07,.04-.17,.29-.33,.41-.39,.29-1.07,.56-1.39,.71-.22,.1-.69,.49-1.15,.54-.73,.11-1.34,0-1.52-.74,.02,.07-.02-.34-.02-.33,.02-.08,.2-.12,.22-.2,.06-.24,0-.47,.07-.59,.04-.07,.28-.13,.38-.27,.03-.04-.02-.2,0-.23,.03-.04,.14-.02,.17-.07,.07-.13,.02-.31,.08-.51,.04-.12,.19-.24,.23-.37,.15-.5,.38-1.26-.16-1.01-.07,.03-.11,.22-.26,.27-.24,.09-.45,.02-.62,.09-.16,.08-.24,.28-.39,.4-.23,.18-.45,.18-.68,.42-.21,.22-.13,.2-.44,.31-.25,.09-.36,.33-.66,.52-.33,.21-.71,.27-1.06,.47-.37,.2-.72,.46-1.11,.68-.44,.23-.96,.42-1.43,.61-.14,.06-.26,.22-.41,.28-.21,.08-.41,.06-.63,.13-.25,.09-.66,.31-.95,.49-.2,.12-.52,.26-.89,.34-.62,.17-1.63,.26-2.31,.5-.18,.06-.31,.19-.47,.23-.19,.06-.44,.01-.66,.02-.4,.03-.83,.18-1.14,.17-.27-.01-1.06-.32-1.62-.09-.31,.15-1.03-.05-1.72-.06-.19,0-.27,.05-.39,.04-.21-.01-.46-.15-.66-.15-.16,0-.27,.13-.41,.12-.2,0-.38-.13-.56-.13-.58-.08-1.14-.08-1.64-.17-.33-.06-.7-.2-1.12-.3-.62-.1-1.4-.28-1.87-.5-.29-.14-.67-.46-.72-.57-.06-.15,.15-.46,.11-.54-.06-.12-.27-.26-.45-.4-.36-.25-.49-.37-1.27-.61-.03,0-.18,0-.29-.03-.1-.03-.27-.16-.24-.15-.16-.04-.28,.03-.41-.01-.19-.05-.37-.15-.54-.19-.15-.04-.34-.02-.51-.05-.12-.02-.24-.1-.36-.13-.15-.05-.34-.06-.49-.1-.37-.11-.66-.3-1.01-.36-.06-.01-.21,.02-.23,.01-.15-.04-.29-.16-.44-.21-.13-.05-.28-.05-.41-.08-.08-.02-.18-.11-.26-.13-.03,0-.12,.05-.15,.05-.25-.07-.5-.24-.71-.35-.52-.24-1.32-.48-1.67-.89-.03-.22,.3,.16,.34,.05-.15-.16-.25-.15-.39-.3-.15-.16-.06-.24-.22-.35-.16-.11-.48-.19-.63-.31-.27-.19-.55-.44-.86-.66-.22-.16-.46-.26-.68-.42-.35-.26-.8-.56-1.21-.93-.4-.38-.79-.77-1.12-1.11-.12-.12-.12-.19-.24-.32-.18-.21-.41-.39-.56-.57-.24-.28-.3-.5-.48-.77-.33-.47-.86-1.04-1.25-1.55-.1-.13-.19-.29-.29-.41-.27-.3-.5-.61-.73-.95-.24-.38-.58-.9-.87-1.34-.27-.42-.64-.86-.81-1.26-.16-.32-.25-.65-.43-1.02-.2-.44-.69-1.21-1.02-1.95,0,0-.03-.01-.05-.09-.34-.85-.8-1.97-1.1-2.7-.07-.17-.07-.2-.12-.38-.07-.25-.13-.48-.22-.78-.05-.17-.11-.35-.14-.48-.12-.45-.2-.75-.34-1.27-.04-.16-.07-.31-.11-.49-.04-.09-.13-.55-.17-.89,0,.02-.03-.04-.03-.1,0-.27-.17-.81-.23-1.19-.04-.28-.04-.54-.08-.91-.02-.24-.05-.49-.07-.76,0-.29,0-.58,0-.89,0-.63,0-1.31-.01-1.97,0-.22-.04-.72,.03-.8,0,.95,.02,1.94,.05,2.91,0,.13,0,.37,0,.5,0,.22,.05,.39,.08,.6,.01,.15,.03,.31,.05,.5,.01,.08,.04,.24,.07,.4,.02,.19,.05,.42,.07,.6,.13,.76,.21,1.59,.43,2.27,.03,.1,.07,.27,.1,.39,.02,.08-.01,.06,.02,.2,.03,.12,.06,.13,.08,.19,.04,.13,.03,.17,.04,.2,.26,.9,.5,2.02,1.04,3.14,.13,.29,.29,.65,.41,.92,.35,.9,.72,1.69,1.07,2.25,.08,.13,.31,.46,.38,.59,.02,.04,0,.07,.01,.1,.1,.21,.18,.32,.26,.54,.05,.14,.08,.29,.23,.56,.14,.24,.34,.47,.51,.74,.11,.17,.26,.41,.37,.59,.35,.53,.75,1.02,1.11,1.53,.13,.17,.26,.36,.42,.55,.25,.28,.51,.56,.8,.88,.11,.13,.24,.34,.35,.47,.35,.42,.47,.46,.55,.7,0,.01,0,.1,.02,.11,.08,.1,.3,.24,.37,.33,.03,.04-.03,.09,0,.13,.02,.03,.31,.4,.37,.47,.11,.12,.32,.28,.51,.47,.3,.3,.39,.47,.82,.86,.05,.05,.11,.04,.17,.11,.07,.09,.56,.48,.84,.69,.16,.11,.37,.19,.53,.29,.22,.14,.5,.39,.79,.59,.81,.6,1.55,.63,1.95,1.15,.07,.09,.11,.05,.14,.14,.03,.08-.03,.05,.03,.13,.12,.17,.28,.27,.56,.39,.06,.02,.14,.01,.2,.06,.02,.02-.04,.05,.05,.09,.18,.07,.4,.09,.59,.17,.39,.14,.75,.36,1.08,.45,.17,.05,.39,.02,.52,.06,.27,.08,.54,.23,.81,.31,.28,.09,.58,.13,.86,.2,.15,.03,.28,.06,.48,.1,.13,.02,.32-.01,.42,0,.35,.08,.66,.24,.98,.32-.02,.2-.3,.03-.32,.23,.41,.11,.28-.28,.46-.32,.54,.18,1.11,.41,1.57,.55,.3,.11,.35,.22,.6,.49,.24,.25,.26,.29,.35,.66,.02,.1,.04,.36,.06,.38,.12,.11,.47,.14,.8,.3,.16,.07,.3,.23,.41,.27,.64,.17,1.5,.16,2.29,.26,.41,.05,.79,.18,1.11,.21,.23,0,.51-.12,.69-.11,.22,.02,.4,.18,.63,.21,.28,.05,.65,.08,.95,0,.11-.03,.18-.14,.3-.14,.18,0,.39,.22,.54,.22,.35,0,.72-.29,1.06-.33,.89-.16,2.22,.4,3.05-.07,.22-.13,1.43-.04,1.73-.37,.17-.2,.02-.13,.45-.14,.42-.01,.71-.17,1.05-.44,.28-.21,.18,.03,.45,0,.05,0,.49-.23,.68-.34,.12-.07,.21-.22,.32-.27,.23-.09,.56-.07,.78-.17,.24-.11,.42-.33,.62-.46,.14-.08,.28,.03,.52-.07,.13-.05,.11-.19,.29-.31,.11-.07,.39-.09,.5-.17,.12-.09,.25-.22,.36-.33,.18-.18,.44-.34,.74-.49,.3-.16,.63-.39,.97-.63,.14-.1,.16-.24,.31-.37,.24-.2,.76-.39,1.18-.66,.22-.12,.41-.4,.76-.55,.1-.05,.28-.17,.29-.17,.09-.02,.17,.11,.23,.11,.25-.01,.23-.08,.5,.08,.04,.02,.23,.1,.24,.11,.28,.29,.5,1.01,.5,1.2,0,.07-.28,.1-.31,.17-.05,.11,.05,.42,0,.61-.02,.09-.16,.14-.19,.23-.03,.08-.03,.18-.07,.28-.15,.36-.34,.66-.48,.98-.15,.32-.23,.65-.33,.93,.4,.09,.71-.22,1.08-.37,.16-.06,.44,0,.6-.07,.22-.11,.3-.36,.5-.5,.32-.23,.78-.28,1.15-.47,.32-.15,.71-.48,1.01-.74,.18-.16,.28-.43,.44-.55,.17-.13,.39-.08,.53-.21,.1-.1,.24-.21,.34-.35,.07-.1,.09-.3,.19-.39,.19-.15,.48-.18,.67-.35,.15-.14,.15-.35,.31-.54,.35-.44,.98-.61,1.16-1.08,.05-.12,0-.25,.07-.35,.18-.23,.47-.36,.68-.62,.14-.18,.12-.38,.24-.56,.08-.13,.19-.02,.27-.1,.07-.07,.12-.44,.23-.56,.09-.1,.22-.02,.28-.1,.1-.15,.06-.37,.16-.49,.1-.13,.27-.1,.41-.23,.08-.1,.12-.33,.2-.43,.19-.24,.47-.38,.67-.61,.12-.15,.13-.36,.26-.5,.12-.12,.33-.2,.44-.33,.42-.47,.57-1.24,1.03-1.6,.06-.05,.32-.25,.3-.22,.09-.14,0-.35,.05-.52,.14-.48,.5-.72,.74-1.12,.23-.37,.34-.86,.54-1.24,.37-.68,.89-1.31,1.19-2.07,.27-.6,.23-1.13,.67-1.54,.22-.2,.72-.18,.9-.49,.11-.18,.18-1.29,.25-1.63,.06-.24,.19-.52,.28-.85,.13-.53-.04-1.28,.19-1.43,.18-.11,1.11,.14,1.24,.05,.18-.11,.34-1.48,.24-1.64-.11-.18,.01-.38-.04-.75-.02-.13-.22-.3-.23-.41-.05-.42,.09-.86,.01-1.27-.05-.27-.27-.52-.33-.76-.03-.14,.07-.3,.03-.44-.05-.24-.27-.43-.28-.56,0-.09,.07-.51,.15-.61,0,0,.64-.39,.72-.41,.46-.09,.64,.23,.86,.04,.13-.12,.24-.5,.17-.92-.03-.19-.31-.24-.42-.47-.04-.11,.05-.36-.04-.64-.06-.17-.27-.28-.33-.45-.11-.31,0-.68-.23-1.08-.02-.04-.29-.13-.31-.16-.07-.14,0-.31-.04-.45-.05-.17-.27-.28-.33-.42-.28-.61-.45-1.14-.77-1.67-.15-.24-.39-.46-.43-.63-.05-.2,.11-.37,.05-.53-.11-.32-.37-.35-.45-.52-.07-.16,.04-.36-.01-.52-.05-.16-.23-.29-.31-.45-.05-.13,.05-.36,0-.53-.05-.15-.22-.13-.25-.28-.04-.22,.13-.48,.09-.74-.01-.14-.25-.23-.3-.35-.1-.23,.02-.66-.09-.97-.05-.15-.3-.22-.32-.34-.02-.17,.08-.38,.09-.59,.02-.29-.01-.61-.06-.54,.25-.41,1.06-.94,1.73-1.21,.37-.15,.69-.11,1.15-.18,.27-.04,.42-.13,.62-.15,.51-.06,.57-.07,1.54-.42,.63-.23,.68-.12,.81-.56,.11-.36-.2-.1-.39-.51-.11-.24-.06-.55-.21-.82-.12-.21-.4-.39-.46-.59-.06-.21,.15-.48,.07-.62-.14-.24-.59-.63-.93-.81-.11-.06-.19-.07-.3-.19-.21-.21-.07-.47-.23-.7-.08-.12-.4-.25-.61-.36-.19-.1-.45-.32-.61-.35-.17-.04-.59,.12-.78,.02-.58-.34-.41-.94-1.18-1.12-.15-.04-.16-.15-.32-.14-.05,0-.31,.13-.34,.12-.18-.05,.07-.27-.04-.33-.07-.04-.3,.13-.4,.05-.77-.62-1.07-1.72,.74-2.74,.12-.07,.29-.16,.47-.25,0,0,.42-.23,.47-.24,.14-.03,.51,.2,.72,.11,.03-.01,.31-.39,.48-.52,.09-.07,.47-.11,.61-.34,.13-.22-.08-.16-.06-.38,0-.04,.21-.29,.2-.31-.06-.33-.55-.94-.8-1.25-.15-.2-.49-.29-.73-.57-.27-.32-.56-.74-1.17-1.07-.15-.08-.32-.23-.51-.28-.15-.05-.44,0-.57-.05-.91-.4-1.55-1.02-1.98-1.11-.41-.09-.97,.16-1.22,.1-.03-.01-.19-.26-.51-.39-.09-.04-.44,.11-.48,.09-.15-.06-.02-.32-.14-.34-.17-.02-.26,.19-.59,.25-.24,.04-.29-.21-.53-.17-.21,.03-.44,.12-.66,.2-.13,.04-.47,.26-.57,.27-.14,.01-.2-.23-.33-.24-.06,0-.33,.19-.37,.18-.19-.03-.39-.19-.61-.17-.52,.05-1.1,.34-1.53,.38-.63,.06-1.14,.1-1.18-.27-.03-.21,.22-.42,.29-.7,.04-.17-.09-.18,.01-.43,.43-.99,1.41-1.81,1.82-2.38-.4-.29-1.03,.15-1.46,.23-.36,.06-.62-.1-.92-.03-.45,.1-.94,.44-1.32,.61-.14,.07-.22-.02-.35,.04-.1,.04-.25,.21-.34,.25-.1,.05-.23-.03-.34,.04-.27,.16-.19,.23-.75,.26-.51,.06-.5,.1-.4-.55,.08-.56,1.13-2.72,.97-3.24-.14-.45-.68,.07-1.14-.02,0,0-.03-.28-.14-.25-.12,.03-.27,.21-.4-.15-.16-.44,.21-.62,.11-1.35-.63-.16-1.11-.49-1.69-.52-.17,0-.35,.22-.53,.25-.34,.06-.7-.1-1.11-.09-.74,.03-1.51,.24-2.48,.24-.03,0-.15,.24-.24,.15-.04-.03,.05-.21-.07-.2-.18,.02-.31,.25-.48,.3-.23,.07-1.81,.14-2.11-.13-.03-.03-.12-.31-.18-.38-.34-.45-.41-1.82,.07-3.11,.22-.59,.26-.83-.39-.93-.09-.01-.2,.22-.37,.17-.12-.04-.47-.15-.82-.02-.43,.16-.7,.51-.83,.52-.72,.05-.37-.65-.92-.02-.42,.45-1.48,.59-2.26,1.02-.41,.24-.82,.55-1.29,.8-.2,.1-.47,.1-.64,.22-.15,.1,.03,.43-.06,.53,.02-.04-.41,.12-.62,.27-.3,.23-.66,.58-1.2,.72-.23,.06-.39-.11-.55-.08-.54,.09-.9,.42-1.47-.26-.03-.03-.15-.3-.17-.31-.32-.12-.15-.12-.46-.56-.06-.09-.26-.21-.29-.26-.31-.56-.29-1.25-.66-1.36-.4-.11-1.63,1.15-2.1,1.52-.52,.4-.72,.32-.92,.84-.14,.36-.26,.21-.62,.6-.06,.07-.08,.28-.2,.42-.13,.14-.14,.35-.2,.42-.13,.13-.38,.07-.51,.21-.08,.08-.1,.3-.19,.41-.12,.15-.22,.15-.35,.3-.18,.22-.34,.59-.42,.66-.14,.12-.23-.06-.34,0-.21,.13-.39,.59-.79,.08-.2-.26-.38-.33-.44-.43-.26-.49-.14-.78-.02-1.66,0-.05,.47-1.29,.24-1.49-.52-.43-.65,.68-1.07,1.3-.37,.55-1.2,.99-1.2,1.69,0,.43-.41,.27-.57,.83,0,.04-.05,.36-.05,.37-.1,.14-.38,.15-.46,.31-.07,.16,.12,.32,.02,.47-.08,.11-.28,.34-.29,.36-.22,.24-.62,.35-.72,.49-.11,.15,.16,.26,.12,.39-.05,.14-.44,.35-.56,.52-.04,.07,.04,.48-.38,.57-.53-.31-.63-.71-.53-1.16,.02-.1-.05-.26,.04-.34,.03-.03,.24,.05,.25-.02,.02-.09-.12-.29-.12-.38,0-.22,.22-.63,.04-.97-.27,.17-.3,.37-.41,.62-.02,.05-.17,.08-.18,.13-.02,.15,.08,.3,.03,.44-.06,.17-.29,.28-.35,.47-.13,.43-.01,1.01-.34,1.4-.14,.16-.43,.15-.49,.26-.11,.22,.02,.5-.06,.8-.02,.1-.25,.55-.53,.99-.26,.47-.58,.91-.85,.98,0,0-.55-.15-.65-.24-.17-.17-.02-.25-.06-.39-.04-.17,.03-.02-.07-.08-.35-.21,.06-.37,.1-.71,.01-.12-.19-.39-.2-.57,0-.04,.08-.2,.08-.25,0-.52,.36-1.28,.49-1.9,.05-.28,.02-.59,.06-.86,.02-.15,.26-.48,.21-.7-.01-.04-.15-.15-.14-.19,.08-.35,.4-.65,.46-.98,.07-.42-.12-.58-.08-.96-.33-.31-.31,.31-.57,.25-.08-.16,.23-.31,.12-.48-.23-.07-.29,.35-.12,.48,.38,.29-.37,.65-.45,.83-.06,.13,.06,.23-.03,.37-.1,.18-.32,.27-.42,.45-.18,.32-.32,.82-.54,1.23-.17,.27-.98,1.33-1,1.72,0,.09,.17,.23,.14,.32-.05,.13-.29,.28-.44,.54-.15,.26-.12,.69-.24,.92-.07,.14-.38,.24-.43,.37-.06,.13-.04,.26-.07,.41-.02,.08-.1,.22-.13,.35-.01,.05,.08,.18,.07,.22-.02,.07-.12,.12-.13,.19-.07,.31-.06,.3-.26,.83-.15,.45-.81,2.7-1.38,2.73-.4,.01-.44-.1-.39-.73,0-.14,.07-.12,.05-.25-.02-.14,.14-.34,.04-.54-.38,.37-.37,1.01-.48,1.47-.05,.22-.09,.49-.15,.72-.14,.5-.31,.93-.43,1.44-.03,.17-.08,.45-.1,.58-.05,.16-.2,.32-.24,.48-.02,.08,.02,.24,.01,.26-.11,.28-.31,.56-.44,.86-.19-.08-.38-.03-.58-.22-.05,.15-.09,.26-.13,.56-.02,.14,.04,.22,.01,.38-.02,.16-.16,.36-.19,.51-.03,.13,.03,.26,0,.37-.04,.32-.08,.56-.13,.9-.03,.32-.02,.63-.05,.8-.03,.11-.2,.41-.25,.58,0,.02,.1,.2-.08,.43-.18,.23-.3,.16-.39,.06-.14-.17,.16-.94,0-1.06-.06,0-.06,.1-.08,.2-.01,.06-.04,.2-.07,.32-.04,.24-.04,.43-.06,.67,0,.11-.04,.13-.04,.21-.03,.28-.06,1.51-.25,1.95-.08,.21-.06,.17-.21,.37-.07,.09-.1,.05-.17,.27-.16,.52-.03,.68-.08,1.08,0,.08-.09,.36-.09,.52-.02,.31,0,.47-.14,.72-.02,.05-.1,.1-.11,.18-.06,.34-.03,.81-.05,1.27-.01,.22-.03,.44-.04,.63-.03,.23-.05,.42-.08,.61-.01,.32,.06,.64,.05,1.05,0,.1-.03,.22-.03,.31,.01,.23-.02,.72-.02,1.03-.09,.42,0-.15-.12,.39-.04,.21-.07,.21-.03,.41,.05,.02,.08-.35,.12-.5,.05,.15-.03,.53-.04,.81-.02,.2,.07,.59,.05,.82-.02,.25-.03,.04,0,.3,0,.09,.02,.18,.03,.31,.02,.29,.01,.89,.03,1.31,0,.11,.03,.21,.03,.3-.01,.12-.02,.19-.03,.3,0,.07,.04,.21-.02,.6-.04,.1-.06-.1-.06-.1-.01,0-.05,.16-.06,.1-.03-.11,0-.69-.02-1.01,0-.08-.02-.1-.02-.2,0-.18-.01-.47-.02-.71h.08c.05-.32-.07-.06-.1-.2,.02,.08-.04-.48-.04-.51,0-.09,.03-.62,0-.71-.06-.18,0-.06,0-.41,0-.09-.01-.17-.01-.31,0-.15,.02-.4,.02-.61,0-.03,.01-.17,.01-.2-.05-.17,0-.03,.02-.41,0-.05-.03-.07-.03-.11,0-.15,.04-.39,.04-.51,0-.19-.06-.33-.07-.53,0-.12,.03-.34,.03-.52,0-.11-.03-.21-.03-.32,0-.11,.04-.23,.04-.2,0-.1-.03-.04-.03-.11,.02-.34,.09-.85,.09-1.26,0-.23-.04-.42-.04-.66,0-.11,.05-.32,.06-.42,.01-.26-.02-.56-.02-.88,0-.23,.05-.51,.08-.75,0-.04-.04-.09-.04-.12,.03-.19,.08-.41,.07-.65,0-.15,0-.53,.01-.79,0-.21,.03-.57,.03-.91-.01-.33-.06-.41-.03-.6,.03-.2,.2-.49,.29-.7,.19-.53,.17-1.26,.2-1.84,0-.08,.05-.25,.05-.34,0-.1,0-.32,0-.5,0-.22,.02-.56,.03-.87,0-.14,.04-.23,.06-.35,.01-.16-.02-.58,.08-.87,.1-.28,.29-.43,.43-.67,.18,.21-.01,.71,.27,.81-.04-.12,.01-.43,0-.66-.01-.17,.17-1.01,.18-1.36,0-.07-.03-.24-.03-.29,.02-.15,.18-.53,.23-.81,.04-.19-.16-.23,.07-.65,0-.01,.1,.09,.12,.08,.03-.01,.28-.41,.3-.5,.26,.45,.12,1.11,.15,1.64,.29-.06,.3-.69,.39-1.11,.05-.21,.01-.41,.07-.65,.06-.22,.2-.45,.24-.68,.03-.15-.02-.19-.02-.31,0-.23,.12-.74,.16-1.07,.04-.49,.05-1.04,.24-1.34,.01-.02,.61-.42,.61-.42,.12,.05,.03,.26,.08,.54,.11,.58,.12,.2-.1,.84-.03,.08,.02,.24,0,.31-.06,.22-.12,.43-.15,.62-.07,.45-.04,.87-.11,1.23-.06,.35-.25,.73-.3,1.05-.02,.12,.03,.27,.02,.43,0,.13-.15,.44,.01,.42,.28-.2,.25-.56,.31-.87,.02-.13,.06-.31,.1-.49,0-.04,.03-.17,.05-.25,0-.06-.07-.17-.07-.19,.03-.14,.19-.27,.21-.41,.01-.07-.08-.17-.07-.2,.06-.21,.15-.35,.21-.56,.05-.21,.08-.39,.16-.61,.13-.4,.29-.62,.36-1.06,.02-.16-.04-.35-.01-.48,.09-.4,.33-.69,.42-1.05,.11-.42,.15-.81,.29-1.38,.02-.11,.05-.38,.07-.44,.09-.22,.21-.2,.28-.4,.16-.46,.26-1.3,.58-1.71,.06-.08,.24-.2,.4-.31,.16-.1,.32-.18,.32-.18,.19,.08,.16,.86,.04,1.52-.17,1.05-.62,1.95-.87,3.01-.06,.24-.07,.48-.12,.68-.08,.29-.21,.51-.25,.7-.05,.26,.06,.79-.31,1.24Z" style="fill:#010101; fill-rule:evenodd;"/><path d="M222.51,396.14c.07,.13,.21-1.24,.19-1.36-.05-.27-.45-.42-.52-.82-.09-.5,.08-.84-.08-1.91-.12-.83-.61-1.66-.87-2.73-.12-.5-.06-1.18-.21-1.91,0,0-.03-.18-.07-.37-.04-.19-.08-.39-.1-.45-.03-.08-.26-.21-.27-.27-.09-.41,.02-.96-.06-1.36-.11-.52-.36-.87-.46-1.36-.03-.12-.17-.62-.16-.55-.02-.21,.15-.28,.11-.55-.11-.71-.46-1.83-.69-3-.24-1.18-.35-2.18-.59-3.54-.06-.36-.31-.74-.32-.82-.06-.46,.13-.94,.07-1.36-.15-1.09-.8-2.98-.51-4.36,.07-.33,.61-.43,.69-.82,.01-.05-.04-.54-.03-.55,.27-.11,1.76,2,1.99,2.45,.27,.53,.49,1.44,.79,2.18,.08,.2,.08,.26,.16,.55,0,.02,.15,.51,.16,.55,.14,.3,.47,.27,.58,.55,.19,.49,.14,1.17,.33,1.64,.17,.41,.42,.71,.58,1.09,.09,.21,.06,.58,.16,.82,.04,.09,.23-.08,.28,0,.05,.09-.03,.44,.01,.55,.33,.81,.63,1.59,1,2.18,.32-1.11-.11-2.07-.32-3-.35-1.49-.64-2.78-1.07-4.63-.13-.53-.28-1-.47-1.91-.19-.89-.44-1.67-.65-2.73-.03-.16-.18-.34-.16-.55,.05-.45,.03-.25-.18-1.09-.23-.9,.17-1.6,.85-1.36,.79,.27,1.06,3.48,1.54,3.27,.82-.35-.39-3.28-.51-3.82-.2-1.02-.11-1.84-.19-2.18-.05-.21-.23-.34-.31-.55-.41-.98-.74-3.13-1.17-4.63-.5-1.74-1.03-5.09-1.28-7.36,.25-.33,.74,0,1.11-.27,.85-.63,1.19,1.25,2.11,1.91,.17-.07,.18-.7,.15-1.09-.05-.55-.28-.55-.33-.82-.13-.67-.16-1.41-.35-2.18-.07-.27-.26-.48-.34-.82-.11-.48-.09-.73-.18-1.09-.14-.58-.41-1.12-.52-1.64-.14-.7-.06-1.49-.2-2.18-.12-.6-.37-1.5-.54-2.18-.19-.76-.58-1.71-.54-2.18,.09-1.05,.39,.02,.49-.55-.03-.97-.47,.07-.69-1.09-.11-.57,.24-2.76,.44-3.27,.07-.17,.29-.6,.5-.82,.5-.51,1.33,.09,1.87-.55,.22-.26,.33-.76,.5-1.36,.15-.53,.59-1.42,.33-2.45-.14-.55-.26-.11-.18-.82,.04-.34-.42-2.07-.54-2.73-.11-.58-.07-1.06-.19-1.64-.03-.14-.34-.44-.36-.55-.05-.25,.04-.57,0-.82-.22-1.1-.44-2.99-.76-4.63-.03-.14-.34-.44-.36-.55-.11-.5,0-1.16-.2-1.64-.19-.45-.03-.94-.2-1.91-.05-.27-.34-.65-.37-.82-.26-1.33-.19-2.75-.42-4.63-.04-.36-.31-.71-.38-1.09-.39-2.19-.28-4.66,1.05-4.91,.25-.05,.77,.12,1.29,.55,.4,.32,.83,1.64,1.29,.55,.49-1.16,.37-3.78,.16-5.72-.05-.48-.28-.69-.38-1.36,.01,.1,.29-.15,.18-.27-.54-.62-.54-3.42-.77-4.91,0-.06-.19-.02-.19-.27,0-.14,.16-.38,.19-.27-.15-.73-.5-1.02-.57-1.64-.07-.57,.02-1.5-.01-2.18-.1-2.13-.63-4.08-.22-6,.21-.94,.71-1.06,.56-2.73-.03-.37-.28-.71-.19-1.09,0,0,.21-.45,.42-.92,.22-.46,.45-.93,.53-.99,1.11-.91,3.43,.79,2.48-1.91-.12-.33-.45-.47-.57-.82-.12-.34-.08-1.04-.19-1.36-.15-.44-.54-.71-.57-.82-.22-.69-.19-1.77-.39-2.45-.04-.13-.35-.17-.38-.27-.13-.41-.03-.99-.19-1.64-.09-.35-.28-.68-.38-1.09-.07-.25-.02-.89,0-.82-.26-.99-.78-1.12-.58-1.91,.17-.21,.43-.29,.77-.27,.49-1.38-.38,.71,0-.55,.1-.34,.31-.44,.38-.82,.29-.21,.41,.33,.77,.55,.24,.15,.74,.09,.96,.27,.51,.42,.69,1.44,.96,1.36,1.56-.43,.05-3.32-.19-4.09-.49-1.55-.71-2.89-1.15-4.63-.22-.87-.67-1.78-.96-3-.1-.41-.12-.6-.19-.82-.14-.43-.42-2.14-.54-2.73-.06-.31-.11-.69-.15-1.01,0,.04-.31-.03-.18-.17,.47-.51,.02-.41-.15-.75-.19-.37,.03-.73-.12-1.3-.02-.09-.33-.16-.35-.21-.1-.35-.09-.78-.18-1.19-.07-.35-.09-.79-.17-1.14-.06-.26-.13-.49-.2-.7l-.11-.32-.05-.16s0-.14-.12-.09c-.7,.13-1.37,.25-2.11,.28-.06,0-.23-.23-.53-.19-.45,.07-.99,.02-1.5-.04-.51-.05-.99-.16-1.24-.27-.57-.26-.64-.34-.94-.7-.35-.42-.34-1.89,.39-2.4,.14-.1,.71-.27,.81-.37,.22-.24,.05-.66,.21-.92,.08-.13,.75-.42,.69-.56-.33-.79-2.74-.41-3.92-.18-1.27,.24-2.59,.13-3.54,.75-.27,.18-2.3,.35-3.27,.55-.33,.07-.7,.26-1.09,.37-.23,.06-.59-.07-.82,0-.09,.03-.21,.35-.27,.37-.41,.08-1.12-.08-1.64,0-.46,.06-.7,.33-1.09,.36-.51,.05-.76-.18-1.36-.19-.85-.02-1.97,.33-3,.35-.96,.02-2.01-.16-3-.2-1.72-.05-4.07,.24-5.18-.2-.37-.15-.04-.46-.27-.7-.24-.26-.92-.42-.82-.88,.06-.28,.58-.9,.55-1.23,0-.05-.35-.17-.27-.35,.05-.14,.85-.92,1.09-1.24,.21-.27,.29-.44,.55-.71,.47-.5,.69-.73-.27-1.41-.23-.16-.82-.6-1.09-.69-.48-.14-1.78-.03-2.45-.13-.62-.09-1.03-.3-1.36-.32-1.37-.08-3.58-.09-5.18-.05-.63,.01-1.13,.21-1.64,.21-4.68,.01-10.34,.15-14.45,1.21-.31,.08-.64,.09-1.04,.11-.54,.02-1.2,.03-1.99,.12-1.7,.18-3.22,.55-4.73,.71-1.15,.16-2.39,.13-3.44,.31-.23,.04-.26,.18-.59,.17-.12,0-.63-.1-.46-.13-.77,.14-.96,.33-1.37,.44,.02,.14,.03,.28,.03,.44,.06,2.09-.08,7.11-.12,7.6,.01-.05-.28,.24-.28,.24,.03-.06-.24,.29-.14,.31-.22-.02-.34-1.01-.43-.91-.42,.49-.5,2.5-.42,4.63,.01,.27,.02,.53,.03,.8l.02,.39,.02,.28c.04,.37,.08,.74,.12,1.09,.09,.7,.19,1.31,.28,1.76,.29,1.38,.28,4.38,.47,6.81,.17,2.24,.61,4.19,.45,5.45-.11,.84-.85,1.55-.94,2.18-.19,1.44,.24,3.1,.31,4.91,.02,.43-.12,.92-.12,1.36-.01,.95,.15,3.49,.04,4.91-.1,1.29-.54,2.49-.62,3.82-.13,2.12,.05,5.06,.09,7.91,.03,2.73-.02,5.55,.09,8.18,.05,1.27,.23,2.47,.29,3.82,.12,2.96-.11,6.03,.09,8.45,.04,.51,.25,1.06,.26,1.63,.02,1.29-.29,2.37-.2,4.36,.16,2.72,.38,6.57,.56,9.81,.03,.73-.02,1.26,.02,1.91,.05,.93,.22,1.82,.25,2.73,.01,.41-.13,.92-.1,1.36,.07,1.35,.32,2.59,.37,3.82,.03,.82-.01,1.65,.02,2.45,.07,1.84,.26,3.66,.26,5.18,0,.19,.04,.65,0,.82,0,.03-.21,.3-.22,.27,0,.22,.19,.8,.23,1.36,.09,1.34,.04,3.38,.03,4.36,0,.68,.12,2.32,.03,3.54-.15,2-.46,3.52-1.22,3.27,.07,.02-.32-.29-.31-.27-.07-.14-.04-.67-.11-.82-.2-.42-.44-.52-.53-.82-.06-.19-.03-.93-.13-1.36-.03-.11-.2-.18-.21-.27-.03-.14,.02-.42,0-.54-.1-.35-.29-.42-.44-.82-.09-.25-.13-.82-.23-1.09-.38-1.03-.97-2.72-.97-.82,0,.25,.15,.6,.13,1.09-.03,.8-.19,1.34-.17,1.91,.02,.56,.18,1.03,.25,1.63,.09,.87,.02,1.53,.16,2.45,.13,.86,.14,.6,.14,1.64,0,.84,.18,1.39,.26,2.45,.08,1.16,.08,2.36,.18,3.54,.12,1.25,.25,2.5,.38,3.82,.11,1.46,.15,3.12,.29,4.63,.04,.44,.18,.89,.22,1.36,.05,.66,0,1.24,.03,1.91,.05,.79,.2,2.09,.34,3,.09,.62,.15,1.61,.23,2.73,.14,1.85,.19,4.8,.38,6.81,.05,.53,.17,.91,.2,1.36,.04,.56,0,1.28,.03,1.91,.05,1.15,.22,2.37,.22,3.27,0,.78-.27,3.1-.02,4.63,.13,.83,.08,2.96,.15,4.91,.02,.55,.09,.73,.1,1.09,.02,.59-.08,1.36-.06,1.91,.02,.44,.17,.68,.18,1.09,.02,.57-.08,1.11-.06,1.64,.05,1.65,.19,3.19,.22,4.63,.02,.95-.04,2.04-.04,3.27,0,1.77,.14,3.99,.07,5.45-.04,.88-.24,2.22-.34,2.45-.13,.3-.53,.08-.59,.27-.11,.3-.18,.99-.26,1.63-.16,1.24-.23,1.75-.13,4.09,0,.09,.08,.46,.09,.82,0,.29-.05,.89-.05,.82,.03,.46,.15,.69,.17,1.09,.03,.57,0,1.14,.04,1.64,.03,.44,.13,.89,.17,1.36,.03,.34,0,.75,.02,1.09,.03,.45,.13,.93,.17,1.36,.09,1.07,.06,2.04,.2,3,.02,.17,.14,.47,.14,.54,.04,.41,0,.94,.02,1.36,.02,.37,.11,.74,.15,1.09,.03,.23-.02,.6,.01,.82,.01,.09,.13,.21,.14,.27,.06,.67,.06,1.54,.1,2.18,.11,1.59,.45,3.73,.27,5.18-.21,.42-.05-.93-.2-.82-.06,.59,.02,.81-.04,1.36-.06,.59-.22,.54-.23,1.09,0,.55,.13,1.38,.16,1.91,.02,.91,.04,1.94,.06,3,.03,.75,.13,1.43,.16,2.18,.02,.59,.04,1.26,.06,1.96,.02,.98,.04,2.02,.05,3.06l.04,1.66,.02,.82v.41s0,.07,.02,.09h.1s.2,.02,.2,.02c1.06,.04,2.05,.13,3.03,.15,.7,0,.9,.07,1.66,.09,.31,0,.61,0,.9,0,.19,0,.38,0,.57,0,.37,0,.72,0,1.04,0,1,.06,1.58,.21,2.45,.26,1.57,.09,3.69,0,5.45,.03,.44,0,.95,.07,1.36,.06,1.1-.03,2.14-.05,3.27-.08,1.3,0,2.86,.02,4.36,.03,1.37-.01,2.89-.08,4.09-.06,.96,.02,1.88,.16,3,.17,1.31,0,3.77-.08,6-.14-.02,0,.06-.05,.27-.05,2.27,0,5.75-.18,7.9-.25,.49-.02,.57,.02,1.09,0,.69-.02,1.36-.04,2.18-.07,.52-.03,.96-.05,1.36-.08,1.26-.04,2.12-.07,3.54-.11,.48,0,.81,0,1.36-.01,.25-.01,1.52-.07,2.45-.11-.07,0,.13-.05,.27-.04,.7,.07,2.24-.17,3.27-.21,.77-.03,1.46,0,2.45,0,2.44,0,6.22-.15,9.81-.26,.6-.02,1.97-.1,2.18-.04-2.59,.1-5.28,.2-7.9,.3-.38,0-.96,.02-1.36,.03-.57,.04-1.1,.07-1.63,.1-.42,0-.8,.01-1.36,.02-.26,.01-.61,.03-1.09,.06-.56,.01-1.12,.02-1.64,.03-2.08,.1-4.36,.21-6.27,.3-.28,.01-.84,.04-1.09,.04-.23,0-.16-.05-.55-.04-.33,0-.38,.07-.54,.08-.36,.02-.48-.01-.55-.01-2.56,.1-5.62,.22-8.99,.35-.92,.06-1.86,.12-2.73,.17-2.63,.11-5.02,.07-6.81,.16-.4,.02-1.5,.14-1.91,.14-.13,0-.18-.07-.27-.07-.64-.02-1.01,.03-1.63-.03-.42-.04-.79-.13-1.64-.12-.76,.02-1.57,.05-2.45,.07-.65,0-1.26-.03-1.91-.03-1.75,0-3.46,.12-5.18,.15-.58,0-1.22-.04-1.91-.04-1,.03-2.1,.06-3.27,.09-.45,0-1.16-.05-1.63-.06-1.49,0-1.8,.11-2.45-.04-.04,0-.24-.1-.27-.1-.36-.02-1.03,.06-1.36,.03-.13-.01-.13-.13-.27-.15-.04,0-.37-.03-.73-.06l-.27-.02c-.14,0-.28-.01-.4-.02-.27-.01-.5-.02-.62-.02-.37,0-.84,0-1.39,.01-.27,0-.56,.01-.87,.02-.28-.02-.58-.03-.88-.05-.92-.07-1.57-.11-2.25-.2,0-.77,0-1.6-.06-2.86,0-.32-.08-.45-.07-.86,0-.27,0-1.1,.01-2.06,0-.32,0-.66,0-.98,0-.3-.01-.59-.02-.83-.02-.53-.12-1.11-.15-1.63-.04-.72-.02-1.76-.06-2.73-.12-2.8-.51-4.49-.26-6.27,.04-.31-.02-.33,.05-.55,.07-.21,.07,0,.12-.27,.1-.57,.09-1.07,.03-1.91-.01-.17-.08-.33-.08-.54,0-.07,.08,0,.06-.27-.05-.53-.19-1.06-.23-1.64-.08-1.15-.04-2.34-.14-3.27-.05-.47-.2-.96-.23-1.36-.07-.76-.06-1.66-.12-2.45-.07-.83-.18-1.65-.26-2.45-.03-.4-.06-.82-.1-1.36-.04-.37-.15-.81-.17-1.09-.07-1.03-.02-2.06-.08-3,.22-.2,.16,.75,.37,.54-.06-1.22-.41-.38-.52-.82-.01-1.68-.09-3.5-.06-4.91,.02-.94,.12-1.2,.32-2.18,.19-.92,.21-1.01,.57-1.63,.09-.16,.35-.45,.37-.55,.08-.42,0-1.4,.03-2.45,.02-.5,.13-1.01,.13-1.36,.02-1.9-.18-4.26-.27-6.54-.04-1.19-.01-2.33-.06-3.27-.03-.66-.19-1.4-.2-1.91-.01-.64,.13-1.23,.13-1.91,0-.81,0-1.9-.13-2.73-.04-.31-.17-.46-.18-.82-.02-.52,.17-1.22,.14-1.63-.06-1-.34-2.01-.4-3-.17-2.61,.25-6.54-.17-9-.12-.67,.04-4.23-.28-5.18-.19-.56-.13-.08-.12-1.36,0-1.26-.15-2.16-.35-3.27-.16-.92,.05-.54,.07-1.36,0-.15-.15-1.58-.24-2.18-.05-.4-.19-.72-.22-1.09-.06-.74,.02-1.72-.05-2.45-.07-.78-.28-1.46-.34-2.18-.04-.47,.1-.82,.06-1.63-.02-.43-.16-.48-.22-1.09-.04-.39,0-1.25-.04-1.64-.05-.44-.15-.93-.23-1.36-.27-1.39-.34-3.71-.56-6.27-.05-.53-.17-.74-.24-1.36-.11-.96-.11-2.75-.22-4.36-.05-.81-.19-1.76-.18-3,0-.38-.03-1.07-.03-1.09,.02-.31,.17-.36,.2-.54,.1-.76,.02-.79,.29-1.36,.03-.08,.19-.52,.2-.55,.39-.39,1.13,0,1.3,.27,.07,.11-.03,.92,.02,1.09,.08,.28,.4,.43,.55,.82,.07,.18,.06,.62,.12,.82,.06,.2,.15,.32,.22,.54,.26,.84,.43,1.73,.67,2.45,.25,.76,.53,1.36,.76,1.91,.23-.97,.02-2.14,.07-3.27,.02-.49,.2-1.13,.2-1.63,0-.69-.19-1.21-.23-1.91-.07-1.11,.09-2.37,.07-3.54-.01-1-.08-2.44-.14-3.54-.04-.67-.22-1.32-.24-1.91-.02-.6,.14-1.06,.09-1.63-.03-.4-.06-.91-.13-1.36-.05-.33-.21-.69-.24-1.09-.04-.71,.11-1.45,.09-2.18-.02-.6-.19-.95-.25-1.64-.14-1.58,.1-3.36-.17-4.63-.07-.32-.2-.45-.24-.82-.09-.85,.01-1.77-.03-2.73-.03-.66-.19-1-.26-1.64-.04-.44,.11-.47,.11-.82,0-.28-.24-1.14-.26-1.64-.01-.42,.13-.5,.11-.82-.05-.53-.23-.92-.26-1.36-.02-.49,.11-.79,.1-1.36,0-.38-.13-.97-.14-1.36-.02-.92,.1-1.81,.08-2.73,0-.57-.15-1.07-.14-1.64,0-.53,.11-1.11,.1-1.63-.04-1.89-.35-4-.2-5.72,.02-.24,.11-1.2,.11-1.09-.01-.51-.21-.85-.27-1.36-.16-1.45-.07-2.66-.06-4.09,.01-1.33-.16-2.78-.18-4.09-.05-2.39,.05-4.86,.02-7.36-.02-2.01-.29-3.46-.07-5.18,.1-.83,.57-1.39,.63-2.45,.04-.63-.28-3.83-.32-4.91,0-.75-.02-1.7-.03-2.73-.05-1.65-.37-3.75-.19-4.36,.14-.47,1.11-.46,1.22-.82,.14-.45-.04-4.47-.18-4.91-.15-.47-.05-1.13-.16-2.18-.04-.38-.26-.76-.29-1.09-.12-1.22-.04-2.62-.18-3.82-.09-.79-.35-1.46-.45-2.18l-.02-.17v-.26c0-.17,0-.35,0-.53,0-.36,.02-.71,0-1.05-.06-1.11-.29-1.99-.3-2.6,0-.42,.05-2.49,.12-2.92,0,0,.04-.12,.1-.28,.06-.17,.14-.37,.25-.55,.2-.38,.4-.74,.44-.76,.47-.16,.59,1.2,.84,.52,.15-.41,.32-1.81,.32-3.48,0-.75-.25-1.2-.3-2.19,0-.12,0-.26,.01-.43,.53-.02,1.36,0,2.16-.1,.65-.08,.99-.3,1.65-.39,1.24-.15,2.79-.1,4.54-.34,.18-.02,.59-.31,.71-.32,.62-.07,1.38,0,2.02-.05,.78-.06,1.35-.3,2.01-.36,1.03-.11,2-.22,2.94-.32,.9-.09,1.77-.19,2.67-.35,.81-.14,1.64-.37,2.18-.4,.66-.03,1.11,.15,1.63,.11,1.04-.09,1.31-.35,1.91-.39,.55-.04,1.09,.13,1.64,.11,.52-.02,1.06-.18,1.64-.22,.43-.03,1.07,.14,1.63,.12,.49-.02,.58-.21,1.09-.2,.71,0,1.36,.25,2.18,.28,.42,.01,.94-.2,1.36-.21,.79-.02,1.98,.26,3,.27,.5,0,.98-.23,1.36-.21,.53,.04,1.04,.22,1.64,.31,.83,.13,1.8,.21,1.64,.14,.9,.4,1.41,1.47,1.36,2.28-.03,.44-.49,.74-.82,1.25-.19,.29-.12,.48-.27,.71-.38,.55-.42,.63-.55,1.77-.08,.74-.38,.75,.55,1.06,.76,.26,.44-.19,1.64-.18,.68,0,1.37,.2,2.18,.18,.63-.02,1.37-.21,1.91-.18,.57,.04,.94,.38,1.36,.36,.71-.03,2.14-.29,3-.54,.28-.08,.41-.14,.82-.18,.76-.07,1.18,.21,1.91,.18,.38-.01,1.1-.24,1.64-.37,.5-.12,1.35-.24,1.64-.37,.32-.14,.56-.62,1.09-.74,1.65-.37,2.74,.15,4.36-.38,.31-.1,.59-.04,.82-.19,.07-.04,.21-.36,.27-.37,.39-.12,.54,.24,.9,.18,.23-.03,.25-.34,.66-.38,1.63-.13,3.35-.08,4.31,.28,.99,.36,1.14,1.03,.12,2.15-.13,.14-.31,.35-.5,.54,0,0-.41,.5-.48,.55-.21,.14-1.22,.31-1.41,.56-.02,.03,.1,.5,0,.73-.05,.12-.55,.48-.44,.74,.1,.25,.32,.02,.56,.17,.04,.03,.04,.35,.06,.36,.46,.1,1.76,.13,2.41,.16,.4,.02,1.05-.18,1.67-.17,.36,0,.74,.02,1.2,0h.18s.06-.01,.09,0v.08c.02,.11,.03,.22,.04,.34,.03,.23,.07,.46,.13,.7,.06,.23,.1,.61,.18,.86,.07,.21,.31,.34,.36,.57,.35,1.57,.26,3.36,.47,4.07,.2,.69,.78,1.18,.9,1.71,.02,.09-.11,.64-.01,1.53,.03,.24,.37,.7,.38,.82,.04,.4-.25,.54-.19,.82,.09,.39,.32,.23,.58,.82,.19,.42,.01,.93,.19,1.36,.16,.38,.37,.74,.58,1.09,.11,.2,.51,.62,.58,.82,.1,.29-.07,.78,0,1.09,.03,.15,.36,.44,.38,.55,.11,.47,.05,1.16,.19,1.64,.32,1.12,.88,2.02,1.15,3,.39,1.41,.69,2.64,.38,3.27-.17,.36-.48,.05-.77,.27-.17,.13-.11,.48-.38,.55-1.1,.27-2.35-.92-3.07-1.09-.05,1.24,.71,2.1,.96,3,.21,.75,.18,1.54,.38,2.18,.29,.94,.82,1.72,1.15,2.45,.12,.28,.08,.56,.19,.82,.08,.19,.3,.37,.38,.55,.09,.2,.07,.6,.19,.82,.27,.51,.29,.22,.57,1.64,.24,1.25,.27,1.2-.38,1.64-.56,.37-2.99-.05-3.43,.82-.38,.75,.3,1.55,.38,2.73,0,.02-.25,.3-.19,.55,.07,.26,.3,.48,0,1.09-.36,.75-.66,.02-1.32,.82,.09,1.6-.1,2.98,.01,4.36,.03,.41,.31,.68,.38,1.09,.14,.78,.07,1.74,.2,2.73,.22,1.78,.64,3.57,.76,6,0,.07,.26,.27,.19,.55-.03,.11-.22-.03-.19,.27,.05,.44,.3,.67,.37,1.09,.1,.54,.41,4.59,.19,5.45-.02,.09-.3,.39-.37,.55-.44,.98-1.8,1.4-3.12,.55-.6-.39-.84-.41-.9,1.09,0,.22,.23,.43,.19,.82-.03,.29-.12,1.11,.02,1.91,.18,.99,.55,1.59,.56,1.91,.08,1.71-.63,.9,.02,2.18,.49,.98,.54,3.52,.95,5.45,.22,1.03,.51,2.05,.73,3.27,.09,.51,.08,1.19,.19,1.64,.1,.39,.43,.02,.53,.27-.03-.06,.06,1.06,.18,1.64,.18,.82,.47,1.83,.53,3.27,.03,.61-.17,.95-.17,1.36,0,1.39,.28,2.46-.5,3.54-.04,.05-.32,.22-.34,.27-.19,.71-.16,.3-.67,.82-.1,.1-.27,.51-.33,.55-.63,.42-1.3,.03-1.51,.82-.22,.82,.68,4.37,.92,5.72,.26,1.46,.11,1.88,.53,2.73,.3,.6,.11,.75,.35,1.91,.04,.2,.25,.41,.33,.82,.09,.41,.29,.62,.33,.82,.08,.41-.08,.96,.01,1.36,.05,.25,.25,.5,.33,.82,.1,.41,.07,.67,.17,1.09,.15,.63,.46,1.37,.49,1.63,.05,.45-.17,.47-.15,.82,.03,.63,.38,1.53-.3,1.91-.35,.2-.5,.53-.62,.55-.6,.08-.82-.49-1.59-1.64-.04-.07-.99-2.25-1.3-1.91-.65,.71,.32,2,.71,3.54,.34,1.35,.34,3.59,1.01,4.36,.41,.48,.06,1.19,.49,2.18,.04,.08,.31,.53,.31,.55,.07,.39-.09,1.01,.02,1.36,.1,.35,.38,.14,.46,.55,.06,.31,.16,1.04,.16,1.09,.1,.78-.05,1.78,.02,2.18,.08,.43,.34,0,.44,.27,.1,.28,.07,1.43,.16,1.91,.03,.19,.51,.6,.3,1.63-.66,.68-1.1,.29-1.45-.54-.08-.19-.28-.26-.3-.55,0-.11,.2-.42,.14-.55-.08-.15-.35-.15-.44-.27-.21-.29-.46-1.28-.9-1.36-.01,.77,.16,1.09,.33,1.64,.04,.11-.04,.46,.01,.55,.13,.24,.35,.24,.44,.55,.11,.35,.04,.99,.17,1.36,.29,.86,.92,1.47,1.04,2.73,.05,.53-.18,1.11-.12,1.36,.12,.55,.48,.73,.71,1.36,.16,.42,1.07,4.68,.72,6,0,0-.16,.21-.33,.41-.17,.2-.37,.4-.46,.41-.3,.04-.25-.38-.4-.55-.19-.2,.01-.09-.13,0-.5,.3-.28-.73-.56-1.36-.1-.22-.52-.28-.68-.55-.04-.07-.1-.46-.15-.55-.43-.83-.86-2.67-1.34-3.82-.21-.51-.53-.9-.74-1.36-.12-.26-.23-1.16-.47-1.36-.05-.04-.25,.07-.28,0-.25-.63-.26-1.63-.51-2.18-.31-.68-.61-.54-.91-1.09-.53,.22,.04,.95-.22,1.36-.21-.06-.09-.81-.33-.82-.24,.32,.07,.96,.33,.82,.55-.32,.28,1.51,.38,1.91,.07,.29,.25,.2,.31,.55,.07,.43-.02,.94,.06,1.36,.14,.77,.47,1.71,.67,2.73,.13,.69,.26,3.72,.59,4.36,.08,.15,.36,.06,.41,.27,.06,.29-.02,.96,.06,1.64,.09,.66,.5,1.32,.6,1.91,.06,.35-.14,1.06-.08,1.36,.07,.32,.19,.51,.29,.82,.05,.17,.08,.56,.16,.82,.03,.11,.24,.18,.26,.27,.04,.15-.02,.41,.02,.55,.19,.66,.19,.62,.44,1.91,.21,1.01,1.55,6.38,.82,7.36-.48,.65-.62,.46-1.07-.82-.1-.29-.01-.33-.14-.55-.13-.23-.1-.85-.4-1.09-.13,1.28,.36,2.47,.61,3.54,.12,.5,.29,1.09,.4,1.64,.24,1.2,.39,2.31,.67,3.54,.1,.44,.3,.94,.36,1.36,.06,.41-.02,.95,.04,1.36,.03,.21,.22,.47,.22,.55,.07,.76,0,1.62,.07,2.45-.34,.08-.57,.43-1.01,.27,.05,.37,.07,.67,.25,1.36,.09,.33,.24,.44,.33,.82,.09,.38,.06,.98,.14,1.36,.07,.32,.25,.54,.31,.82,.15,.73,.28,1.41,.44,2.18,.17,.77,.43,1.48,.5,1.91,.04,.29-.02,1.17,.03,1.64,0,.04,.32,.37,.19,1.09-.13,.74-.36,.7-.59,.55-.36-.25-.43-2.36-.78-2.45-.09,.08-.02,.29,.02,.55,.02,.14,.08,.54,.12,.82,.11,.61,.25,1.05,.4,1.64,.07,.26,.03,.34,.1,.54,.23,.67,.88,3.67,.85,4.91-.01,.59,0,.46-.13,1.09-.06,.29-.15,.22-.13,.82,.05,1.4,.38,1.69,.56,2.73,.02,.21,.11,.97,.16,1.36,.11,.8,.21,1.19,.09,1.91-.02,.13-.14,.32-.13,.55,.06,.91,.34,2.08,.52,3.27,.09,.56,.17,1.09,.23,1.64,.05,.57,.11,1.19,.15,1.64,.11,.84,.31,1.63,.42,2.73,.03,.27,0,.6,.03,.82,.08,.59,.14,1.9,.23,2.73-.07,1.15-.05-.4-.13,1.09-.03,.56-.07,.58,.04,1.09,.09,.05,.06-.97,.1-1.36,.12,.39,.06,1.43,.1,2.18,.03,.53,.17,1.55,.12,2.18-.04,.68-.05,.11-.02,.82,.01,.25,.02,.45,.04,.82,.02,.78-.05,2.4-.08,3.54,0,.29,0,.56,0,.82-.03,.24-.06,.58-.09,.82-.01,.18,0,.58-.14,1.64-.06,.28-.04-.27-.04-.27-.01,0-.08,.44-.08,.27,0-.29,.11-1.86,.13-2.73,0-.18,0-.32,0-.55,0-.49,.02-1.27,.03-1.91h.12c.1-.87-.1-.17-.14-.55,.03,.21-.04-1.29-.05-1.36,0-.24,.06-1.67,0-1.91-.11-.45,.02-.15-.02-1.09-.01-.24-.05-.45-.08-.82-.03-.4-.05-1.07-.11-1.64,0-.07-.02-.5-.03-.54-.14-.43,0-.07-.06-1.09,0-.13-.08-.16-.08-.27-.03-.39-.03-1.04-.07-1.36-.06-.5-.2-.84-.28-1.36-.05-.3-.04-.91-.1-1.36-.04-.29-.12-.52-.16-.82-.04-.28,0-.61,0-.54-.03-.25-.08-.09-.11-.27-.13-.9-.25-2.23-.44-3.27-.11-.6-.29-1.03-.4-1.64-.05-.28-.05-.84-.09-1.09-.1-.66-.31-1.39-.47-2.18-.11-.56-.17-1.31-.28-1.91-.02-.11-.14-.18-.15-.27-.08-.49-.12-1.08-.29-1.64-.08-.28-.31-1.35-.47-1.91-.14-.5-.28-1.38-.51-2.18-.22-.77-.35-.91-.41-1.36-.06-.49,.07-1.34,.05-1.91-.07-1.42-.62-3.04-.97-4.36-.05-.18-.08-.61-.15-.82-.07-.22-.22-.64-.35-1.09-.13-.47-.33-1.21-.52-1.91-.08-.31-.08-.55-.16-.82-.1-.35-.48-1.21-.54-1.91-.05-.69,.12-1.24,.15-1.91,.41,.21,.5,1.49,.99,1.36-.15-.21-.3-.91-.49-1.36-.14-.34-.48-2.28-.73-3-.05-.15-.22-.44-.25-.55-.08-.31-.1-1.29-.25-1.91-.1-.41-.41-.24-.43-1.36,0-.03,.2,.03,.22,0,.03-.06,.05-1.16,0-1.36,.68,.5,1.03,1.97,1.51,3,.34-.51-.18-1.8-.39-2.73-.11-.47-.31-.81-.42-1.36-.1-.49-.09-1.13-.22-1.64-.08-.32-.17-.32-.26-.55-.17-.44-.41-1.55-.61-2.18-.3-.95-.77-1.93-.78-2.73,.01-.05,.36-1.61,.37-1.64,.18-.1,.25,.4,.54,.82,.6,.86,.3,.17,.58,1.64,.04,.18,.23,.41,.27,.55,.13,.48,.2,.96,.31,1.36,.27,.93,.62,1.69,.83,2.45,.2,.76,.26,1.77,.46,2.45,.07,.26,.26,.5,.37,.82,.09,.26,.17,1.08,.37,.82,.18-.8-.14-1.48-.32-2.18-.07-.29-.18-.7-.27-1.09-.02-.08-.1-.4-.14-.55-.04-.12-.23-.22-.24-.27-.07-.3,.02-.79-.05-1.09-.04-.16-.23-.22-.24-.27-.09-.49-.09-.87-.19-1.36-.1-.45-.19-.85-.31-1.36-.19-.93-.2-1.57-.49-2.45-.11-.33-.33-.54-.41-.82-.23-.84-.2-1.7-.39-2.45-.22-.89-.49-1.58-.79-2.73-.06-.22-.28-.68-.31-.82-.1-.5,.03-.66-.07-1.09-.24-.98-.85-2.42-.88-3.54,0-.22,.06-.69,.13-1.11,.07-.42,.15-.79,.15-.79,.25-.21,.87,.97,1.33,2.18,.71,1.88,1.16,4.08,1.74,6.27,.13,.51,.33,.92,.44,1.36,.16,.62,.2,1.24,.32,1.64,.16,.54,.74,1.33,.72,2.73Z" style="fill:#010101; fill-rule:evenodd;"/><path d="M253.04,311.27c-.07-.25-.21,2.39-.19,2.63,.05,.52,.45,.82,.52,1.58,.09,.97-.08,1.62,.08,3.68,.12,1.6,.61,3.19,.87,5.25,.12,.96,.06,2.27,.21,3.68,0,.01,.03,.34,.07,.7,.04,.36,.08,.74,.1,.87,.03,.16,.26,.4,.27,.53,.09,.79-.02,1.84,.06,2.62,.11,.99,.36,1.67,.46,2.62,.03,.24,.17,1.2,.16,1.05,.02,.41-.15,.54-.11,1.05,.11,1.36,.46,3.52,.69,5.78,.24,2.27,.35,4.2,.59,6.82,.06,.68,.31,1.42,.32,1.58,.06,.89-.13,1.81-.07,2.62,.15,2.1,.8,5.73,.51,8.4-.07,.64-.61,.82-.69,1.58-.01,.1,.04,1.04,.03,1.05-.27,.22-1.76-3.85-1.99-4.73-.27-1.03-.49-2.78-.79-4.2-.08-.38-.08-.51-.16-1.05,0-.04-.15-.99-.16-1.05-.14-.57-.47-.52-.58-1.05-.19-.95-.14-2.25-.33-3.15-.17-.79-.42-1.37-.58-2.1-.09-.41-.06-1.12-.16-1.57-.04-.18-.23,.16-.28,0-.05-.18,.03-.85-.01-1.05-.33-1.57-.63-3.07-1-4.2-.32,2.13,.11,3.99,.32,5.78,.34,2.87,.64,5.36,1.07,8.93,.13,1.02,.28,1.92,.47,3.68,.19,1.71,.44,3.22,.65,5.25,.03,.3,.18,.65,.16,1.05-.05,.86-.03,.48,.18,2.1,.23,1.73-.17,3.08-.85,2.63-.79-.53-1.06-6.7-1.54-6.3-.82,.68,.39,6.31,.51,7.35,.2,1.96,.11,3.54,.19,4.2,.05,.41,.23,.65,.31,1.05,.41,1.9,.74,6.03,1.17,8.93,.5,3.36,1.03,9.8,1.28,14.17-.25,.63-.74,0-1.11,.53-.85,1.21-1.19-2.41-2.11-3.67-.17,.14-.18,1.34-.15,2.1,.05,1.06,.28,1.05,.33,1.57,.13,1.28,.16,2.71,.35,4.2,.07,.51,.26,.92,.34,1.58,.11,.93,.09,1.4,.18,2.1,.14,1.12,.41,2.16,.52,3.15,.14,1.36,.06,2.87,.2,4.2,.12,1.16,.37,2.89,.54,4.2,.19,1.47,.58,3.29,.54,4.2-.09,2.01-.39-.03-.49,1.05,.03,1.87,.47-.14,.69,2.1,.11,1.1-.24,5.31-.44,6.3-.07,.33-.29,1.16-.5,1.58-.5,.99-1.33-.17-1.87,1.05-.22,.49-.33,1.47-.5,2.62-.15,1.02-.59,2.73-.33,4.73,.14,1.05,.26,.21,.18,1.57-.04,.65,.42,3.99,.54,5.25,.05,.56,.07,1.07,.09,1.58,0,.21,.02,.42,.03,.64,.01,.19,.03,.38,.05,.58,.02,.2,.32,.57,.33,.7,.04,.33-.06,.78-.02,1.11,.08,.71,.16,1.67,.29,2.64,.06,.48,.12,.98,.19,1.47l.1,.71,.05,.34,.03,.17s.02,.04,.07,.03h.11c.21-.04,.85-.36,.99-.38,.67-.11,1.37,0,2.05-.2,.62-.19,1.11-.03,2.26-.19,.33-.04,.81-.33,.99-.36,.37-.06,.73-.1,1.09-.13l.31-.02,.52-.02c.35-.01,.71-.02,1.07-.03,1.46-.04,3.05-.08,4.86-.2,.69-.04,1.37-.31,2.1-.38,4.22-.39,8.97-.28,9.45,1.05,.09,.25-.23,.77-1.05,1.29-.62,.4-3.15,.83-1.05,1.29,2.24,.49,7.29,.37,11.03,.16,.93-.05,1.33-.27,2.62-.38-.2,.01,.29,.29,.53,.18,1.2-.53,6.59-.54,9.45-.76,.11,0,.04-.19,.53-.19,.26,0,.74,.16,.52,.19,.35-.04,.66-.09,.91-.14,.19-.05,.36-.11,.52-.17,.32-.11,.61-.21,1.01-.24,.73-.06,2,.04,2.88,.02,1.39-.05,2.62-.2,3.8-.29l.22-.02h.11s0-.08,.02-.11l-.02-.49c-.01-.32-.02-.64-.01-.94,0-.61,.05-1.18,.16-1.74,.21-1.08,.69-1.06,.53-3.41-.04-.53-.28-1-.2-1.51,0,0,.05-.16,.12-.39,.08-.32,.18-.75,.29-1.19,.22-.88,.45-1.79,.52-1.91,1.09-1.76,3.37,1.52,2.44-3.68-.12-.65-.44-.91-.56-1.57-.12-.65-.08-2-.19-2.63-.15-.85-.53-1.37-.56-1.57-.21-1.33-.19-3.41-.37-4.73-.03-.25-.34-.33-.37-.52-.13-.79-.02-1.9-.18-3.15-.09-.68-.27-1.31-.37-2.1-.06-.49-.02-1.72,0-1.57-.24-1.91-.75-2.16-.55-3.68,.17-.41,.42-.56,.74-.52,.48-2.66-.37,1.36,0-1.05,.1-.65,.3-.86,.37-1.58,.28-.41,.4,.63,.74,1.05,.24,.29,.71,.17,.93,.53,.49,.81,.67,2.76,.93,2.62,1.51-.82,.05-6.4-.19-7.88-.47-2.98-.68-5.57-1.1-8.93-.21-1.67-.64-3.43-.91-5.77-.09-.8-.11-1.15-.18-1.58-.14-.86-.38-3.95-.53-5.78-.07-.79-.13-1.79-.17-2.62,0,.1-.3-.24-.18-.53,.45-1.03,0-1.04-.17-2.1-.2-1.17,0-1.94-.17-3.67-.03-.26-.34-.88-.36-1.05-.09-1.12-.09-2.33-.16-3.68-.06-1.12-.08-2.45-.16-3.68-.23-3.64-.59-6.47-.64-11.03,0-.18,.23-1.25,.19-2.1-.11-2.56,.15-7.17,.41-8.93,.28-1.92,.36-2.14,.71-3.15,.41-1.19,1.77-1.4,2.23,0,.09,.28,.24,1.42,.34,1.58,.22,.34,.62-.2,.86,0,.13,.1,.39,1.24,.52,1.05,.73-1.03,.37-5.07,.17-7.35-.22-2.44-.12-5-.68-6.83-.16-.52-.32-4.43-.5-6.3-.06-.63-.23-1.34-.33-2.1-.06-.44,.07-1.14,0-1.57-.03-.18-.32-.4-.33-.53-.07-.79,.07-2.16,0-3.15-.06-.89-.3-1.35-.32-2.1-.04-.99,.16-1.47,.17-2.62,0-.82-.07-1.77-.14-2.76-.04-.5-.07-1-.11-1.51l-.02-.38v-.09s0-.05,0-.05h0s0,0,0,0h0c-.8,1.37,1.08-1.86,.89-1.53h.01s.02-.02,.02-.02l.17-.1c.23-.13,.45-.25,.67-.38,1.68-.88,3.55-1.78,5.35-2.49,1.56-.67,3.34-1.57,5.09-2.18,.86-.33,1.7-.63,2.45-.88,.75-.26,1.45-.36,1.99-.44,.73-.09,.21,.37,.7,.45,.51,.09,1.81-.16,1.74,.3-.04,.28-.83,1.1-.68,1.37,.02,.04,.67-.05,.58,.15-.07,.15-1.29,1.26-1.63,1.66-.3,.35-.39,.53-.77,.9-.66,.74-.97,1.03,.88,1.06,.45,.02,1.6,.09,2.08,.02,.43-.06,1.2-.29,2.01-.54,.82-.21,1.69-.4,2.29-.51,1.11-.18,1.86-.16,2.45-.28,1.22-.18,2.8-.42,4.43-.69,1.64-.18,3.34-.37,4.77-.53,1.12-.06,2.02-.27,2.92-.32,.53-.02,1.06-.05,1.6-.07,.54,0,1.08,.01,1.63,.02,1.1,.02,2.21,.01,3.34,.05,2.24,.17,4.54,.25,6.78,.57,2.26,.19,4.45,.63,6.57,.91,1.05,.2,2.08,.39,3.07,.57,1,.18,1.98,.31,2.89,.53,1.11,.26,2.3,.7,4.27,1.32,2.09,.7,4.22,1.18,6.18,2.05,.57,.23,1.07,.46,1.6,.71,.5,.27,.95,.63,1.34,1.04,.17,.18,.37,.21,.51,.5,.06,.11,.11,.54,.02,.39,.49,.91,.7,1.16,.77,1.94,.01,.26,.03,.57,.05,.92,.01,.45,.03,.94,.05,1.46,.03,1.17,.05,2.45,.08,3.67,.04,2.43,.05,4.58-.01,4.93,.01-.08-.28,.53-.28,.53,.03-.1-.24,.56-.14,.52-.22,.08-.34-1.25-.43-1.05-.83,1.91-.3,10.77,.06,14.17,.29,2.67,.28,8.43,.47,13.13,.17,4.32,.61,8.07,.45,10.5-.11,1.61-.85,2.99-.93,4.2-.19,2.78,.24,5.96,.31,9.45,.02,.84-.12,1.78-.12,2.63-.01,1.83,.15,6.72,.04,9.45-.1,2.48-.54,4.79-.62,7.35-.13,4.08,.05,9.75,.08,15.23,.03,5.25-.02,10.68,.08,15.75,.05,2.45,.23,4.76,.29,7.35,.06,2.85,.03,5.75,.01,8.53,0,1.39,0,2.74,0,4.04,0,.87,.02,1.73,.02,2.56,.02,.87,.04,1.72,.05,2.54,.04,1.4,.26,2.71,.28,4.23,0,.43,0,.85,0,1.27v.63s-.01,.32-.01,.32v.08s.07,0,.07,0h.15c.8,.07,1.62,.13,2.49,.2,.89,.06,1.84,.12,2.89,.19,1.08,.04,2.29,.06,3.65,.06,.87,0,1.79,0,2.74,0,.72,0,1.46-.02,2.23-.03,1.53-.02,3.14-.04,4.79-.07,3.29-.04,6.7-.08,9.83-.11,1.41,0,2.43,.06,3.67,.05,1.8-.02,3.51-.16,5.25-.16,.79,0,1.77,.16,2.62,.15,2.61-.03,5-.23,7.36-.24,1.57,.02,3.18,.04,4.73,.07,1.77-.02,3.53-.04,5.22-.06,.87,0,1.71-.02,2.53-.03,1.01,0,1.98,.01,2.91,.02,.47,0,1.57,0,2,.03,.07,0,.84,.23,.79,.23,.56,0,1.85-.17,3.18-.19,.2-.02,.51,.07,.57-.16-.05-1.66-.07-3.57-.07-5.37,0-1.78,.01-3.54-.01-4.56,0-1.32-.13-4.48-.05-6.83,.14-3.86,.43-6.77,1.2-6.3-.07-.04,.32,.55,.32,.52,.07,.27,.05,1.29,.12,1.58,.21,.81,.45,.99,.54,1.57,.06,.36,.03,1.8,.14,2.63,.03,.22,.2,.34,.22,.52,.03,.27-.02,.81,.01,1.05,.1,.67,.29,.8,.44,1.57,.1,.48,.14,1.57,.24,2.1,.1,.49,.21,1.06,.32,1.6,.01,.08,.03,.11,.04,.22,.01,.11,.03,.22,.04,.33,.02,.22,.09,.43,.13,.63,.06,.39,.12,.75,.17,1.04,.1,.56,.19,.81,.25,.49,.03-.16,.05-.46,.07-.93,0-.24,.02-.52-.02-.84-.02-.16-.02-.34-.02-.52,0-.14,0-.28,0-.44,0-.47-.15-1.15-.14-2.1,.02-1.54,.18-2.58,.15-3.68-.03-1.08-.19-1.99-.26-3.15-.1-1.67-.03-2.95-.18-4.73-.14-1.66-.15-1.15-.15-3.15,0-1.61-.19-2.68-.28-4.73-.09-2.24-.1-4.55-.2-6.82-.13-2.43-.27-4.8-.41-7.35-.13-2.82-.17-6.01-.32-8.93-.04-.85-.19-1.7-.23-2.62-.06-1.27,0-2.39-.05-3.67-.06-1.53-.22-4.03-.36-5.78-.1-1.19-.16-3.1-.26-5.25-.15-3.56-.23-9.25-.45-13.12-.06-1.01-.18-1.75-.21-2.62-.04-1.07-.01-2.47-.05-3.67-.06-2.21-.24-4.57-.26-6.3-.01-1.5,.24-5.97-.03-8.93-.14-1.6-.11-5.69-.21-9.45-.03-1.06-.1-1.4-.11-2.1-.02-1.14,.06-2.62,.03-3.68-.03-.85-.18-1.31-.19-2.1-.03-1.11,.06-2.15,.04-3.15-.1-3.18-.19-6.16-.28-8.93-.03-1.84,0-3.94-.01-6.3-.03-3.41-.2-7.69-.16-10.5,.03-1.7,.2-4.28,.3-4.73,.13-.58,.52-.15,.59-.53,.1-.58,.17-1.91,.23-3.15,.13-2.39,.19-3.38,.04-7.89,0-.18-.09-.89-.11-1.58-.02-.57,.02-1.73,.03-1.58-.04-.89-.17-1.33-.2-2.11-.05-1.1-.03-2.19-.09-3.17-.06-.88-.18-1.75-.25-2.7,0-.17-.02-.34-.03-.52,0-.18,0-.34-.04-.62-.06-.49-.11-1.02-.21-1.43-.15-.52-.3-1.07-.49-1.57-.2-.48-.39-.95-.57-1.39-.94-2.14-1.85-3.9-2.95-5.54-.19-.28-.62-.74-.7-.87-.47-.7-1.01-1.61-1.52-2.29-.44-.61-.93-1.16-1.39-1.7-.3-.35-.69-.96-.98-1.31-.12-.13-.36-.25-.44-.34-.43-.52-.92-1.1-1.41-1.68-.5-.56-1-1.12-1.42-1.6-2.14-2.31-5.32-5.08-7.31-7.14-.46-.73,1.36,1.22,1.3,.96-.81-.83-1.16-1.1-1.94-1.86-.83-.82-.65-.87-1.46-1.6-.8-.73-2.18-1.64-2.99-2.29-1.43-1.07-3.01-2.37-4.74-3.52-.61-.4-1.2-.79-1.79-1.18-.61-.37-1.21-.74-1.83-1.12-3.94-2.52-9.99-5.78-14.61-7.84-.83-.37-1.05-.57-1.92-.95-1.39-.59-2.81-1.13-3.97-1.61-1.83-.71-2.84-1.28-4.46-1.85-2.92-1.03-6.96-2.12-10.35-2.85-.83-.2-1.83-.44-2.61-.63-1.06-.17-2.1-.34-3.15-.5-1.05-.17-2.11-.32-3.22-.44-1.28-.14-2.67-.37-4.11-.5-1.45-.12-2.95-.24-4.43-.36-2.69-.08-5.7-.15-8.01-.09-1.87,.01-3.66-.11-5.85-.09-1.28-.02-3.12,.13-5.18,.3-2.06,.19-4.34,.3-6.51,.58,.05,0-.11,.06-.52,.11-1.1,.15-2.35,.31-3.67,.49-1.31,.21-2.71,.32-4.08,.64-1.37,.28-2.73,.56-4.01,.83-1.28,.25-2.47,.5-3.49,.81-.93,.25-1.1,.26-2.08,.53-1.3,.39-2.6,.64-4.12,1.21-.97,.35-1.78,.64-2.53,.91-.59,.2-1.13,.39-1.65,.57-.52,.2-1,.42-1.51,.63-1,.43-2.04,.88-3.33,1.44-.86,.43-1.43,.73-2.42,1.23-.22,.12-.89,.48-1.7,.91-.78,.5-1.71,1.08-2.5,1.58,.11-.07-.2,.18-.45,.31-1.22,.7-3.58,2.71-5.08,4.13-.29,.25-.54,.54-.82,.8l-.41,.41-.21,.21c-.06,.06-.17,.17-.14,.13-.08,.07-.19,.17-.28,.26-.04,.05-.09,.09-.14,.19,0-.02-.01,.01-.02,.02v-.06s-.01-.12-.01-.12c0-.08-.02-.15,0-.27l.02-.16v-.08s0-.49,0-.49c-.01-.71-.02-1.44-.03-2.19-.05-2.97-.1-6.15-.15-9.25-.02-1.15-.1-3.79-.04-4.2,.1,4.98,.2,10.16,.3,15.23,0,.19,0,.39,0,.62v.17c0,.06,0,.13,0,.11v.04c-.03,.05-.04,.11-.05,.15-.02,.14,.06,.07,.07,.09,0,0,.01-.03,0,0,.02-.05,.04-.03,.08-.09,.01-.02,.08-.13,.05-.1,.4-.41,.8-.81,1.19-1.21,.39-.39,.82-.72,1.21-1.08,3.17-2.79,6.98-5.27,10.41-6.95,.24-.13,.61-.32,.98-.51,.38-.16,.74-.32,.98-.42,.43-.17,.32-.07,1.02-.37,.6-.26,.67-.35,.97-.48,.65-.29,.88-.35,1.01-.4,1.15-.53,2.42-.89,3.72-1.38,1.31-.45,2.66-.96,4.11-1.31,1.44-.39,2.92-.8,4.45-1.21,1.54-.36,3.13-.66,4.74-1.01,.89-.2,1.78-.39,2.66-.58,.88-.16,1.75-.29,2.61-.41,1.28-.18,2.53-.35,3.73-.52,.6-.08,1.2-.16,1.78-.24,.58-.06,1.16-.09,1.72-.14,2.25-.16,4.29-.31,6.04-.47,.39-.03,1.12-.14,1.86-.18,.73-.04,1.47-.09,1.86-.09,.25,0,.35,.07,.54,.07,1.25,0,1.98-.06,3.19-.01,.82,.03,1.55,.11,3.19,.08,1.46-.06,3.1,.01,4.83,.04,1.29,.01,2.49,.16,3.75,.26,.86,.06,1.72,.12,2.57,.18,.85,.06,1.7,.18,2.54,.26l2.54,.27c.84,.1,1.68,.25,2.52,.38,1.14,.2,2.38,.41,3.7,.73,1.92,.41,4.08,.79,6.31,1.41,.87,.22,2.2,.63,3.1,.93,2.82,.88,3.44,.96,4.6,1.54,.07,.03,.41,.25,.48,.27,.66,.26,1.95,.62,2.54,.89,.23,.11,.2,.22,.44,.34,.14,.06,2.4,1.08,2.94,1.33,.8,.35,2.07,.9,3.45,1.51,1.06,.47,1.77,.89,2.6,1.31,.81,.44,1.75,.88,3.14,1.64,.35,.19,.55,.22,.97,.46,.56,.28,3.46,2.03,5.1,3.01,.89,.56,1.89,1.1,2.78,1.65,1.19,.77,2.87,1.96,4.42,3.09,4.46,3.27,7.24,5.22,9.62,7.86,.42,.46,.5,.44,.74,.79,.24,.34-.04,.06,.29,.47,.71,.88,1.44,1.56,2.61,2.75,.23,.23,.5,.42,.79,.75,.09,.11-.07,.05,.32,.44,.73,.77,1.52,1.47,2.3,2.33,1.51,1.74,2.94,3.66,4.06,5.17,.58,.75,1.25,1.51,1.71,2.2,.9,1.28,1.79,2.93,2.57,4.42,.79,1.61,1.61,3.19,2.11,5.19,.12,.5,.2,1.1,.28,1.72,.03,.45,.07,.94,.11,1.48,.06,.74,.2,1.61,.23,2.17,.11,2.01,.09,3.98,.17,5.81-.21,.4-.18-1.44-.39-1.05,.1,2.36,.42,.74,.54,1.57,.06,3.25,.17,6.75,.17,9.47,0,1.81-.1,2.31-.28,4.21-.17,1.77-.2,1.95-.54,3.16-.09,.31-.34,.87-.36,1.05-.07,.81,.03,2.69,0,4.73-.01,.97-.11,1.95-.11,2.63,0,3.66,.24,8.2,.36,12.6,.04,2.29,.07,4.49,.1,6.3,.04,1.26,.2,2.69,.22,3.67,.02,1.23-.11,2.38-.11,3.68,0,1.56,.03,3.65,.16,5.25,.05,.6,.17,.89,.19,1.58,.03,1.01-.15,2.35-.12,3.15,.07,1.94,.36,3.86,.43,5.78,.19,5.03-.18,12.6,.26,17.33,.12,1.29,0,8.16,.33,9.97,.19,1.07,.13,.16,.13,2.63,0,2.43,.17,4.15,.38,6.3,.17,1.76-.05,1.05-.06,2.63,0,.29,.17,3.04,.25,4.2,.06,.78,.19,1.39,.23,2.1,.06,1.42,0,3.32,.07,4.73,.08,1.5,.29,2.81,.36,4.2,.04,.9-.09,1.59-.05,3.15,.02,.83,.16,.92,.23,2.1,.05,.75,0,2.4,.05,3.15,.06,.84,.16,1.8,.24,2.62,.28,2.68,.37,7.14,.61,12.07,.05,1.03,.18,1.43,.25,2.62,.11,1.85,.13,5.3,.25,8.4,.06,1.57,.2,3.39,.21,5.78,.01,.09-.02,.63,.04,1.06,.07,.45,.03,.92,.05,1.35,.01,.85,.02,1.53,.02,1.58-.01,1.19-.17,1.3-.19,2.01-.09,2.82-.01,2.98-.27,4.91-.02,.25-.18,1.78-.18,1.85-.37,1.07-1.15-1.08-1.33-2.08-.07-.4,.01-3.01-.04-3.61-.09-.96-.41-1.62-.57-2.88-.07-.6-.07-1.98-.13-2.6-.03-.31-.08-.56-.14-.82-.05-.24-.09-.59-.12-.76-.27-1.62-.45-3.32-.69-4.72-.25-1.46-.54-2.61-.77-3.67-.22,1.87,0,4.11-.05,6.3,0,.48-.06,1.02-.1,1.57-.02,.29-.04,.57-.06,.85-.03,.36,.01,.71,0,1.05,0,1.8,.2,3.24,.26,5.15,.03,1.39,.03,2.85,.02,4.31-.07,.04-.11,.1-.2,.11h-.32s-.65-.03-.65-.03l-1.3-.04c-.85-.01-1.7-.03-2.54-.04-1.31,0-2.92-.02-4.56-.03-1.3,0-2.63,.02-3.78,.02-1.3,.02-2.54,.17-3.68,.17-1.16,0-2.05-.17-3.15-.15-.77,.02-1.75,.03-2.63,.08-.64,.04-1.33,.19-2.1,.2-1.37,.02-2.8-.16-4.2-.16-1.15,0-1.83,.15-3.16,.19-3.04,.08-6.46-.21-8.93,0-.62,.06-.87,.19-1.58,.21-1.64,.06-3.42-.07-5.25-.06-1.27,.01-1.94,.16-3.16,.2-.85,.03-.9-.13-1.57-.14-.53,0-2.21,.2-3.16,.2-.81,0-.97-.15-1.57-.14-.51,.01-.95,.06-1.38,.11l-.16,.02-.24,.02-.48,.03c-.32,.02-.65,.03-.99,.03-1.49,0-2.35-.15-4.04-.17-1.13,0-2.92,.01-4.08-.02-.67-.03-1.33-.06-2-.1l-.98-.06c-.12,.03-.06-.11-.07-.18v-.26s0-.51,0-.51c.01-1.36,.03-2.7,.01-4.05-.03-1.66-.16-3.1-.15-4.81,0-.79,.03-1.62,.06-2.45,.01-.31,.02-.61,.03-.92,0-.26,0-.52,0-.78-.04-3.63-.35-7.71-.2-11.03,.02-.46,.11-2.31,.11-2.1-.01-.99-.21-1.63-.27-2.63-.16-2.79-.07-5.13-.05-7.87,.01-2.57-.16-5.35-.18-7.88-.05-4.61,.05-9.37,.03-14.17-.02-3.87-.29-6.67-.07-9.98,.11-1.59,.57-2.68,.63-4.73,.04-1.22-.27-7.39-.32-9.45,0-1.44-.02-3.27-.03-5.25-.05-3.18-.37-7.21-.19-8.4,.14-.91,1.11-.89,1.22-1.57,.14-.87-.04-8.62-.18-9.45-.15-.9-.05-2.17-.16-4.2-.04-.73-.26-1.47-.29-2.1-.12-2.35-.04-5.04-.18-7.35-.09-1.51-.35-2.81-.45-4.2-.05-.83,.02-1.78-.02-2.63-.06-1.38-.29-2.42-.3-3.15,0-.51,.05-3.09,.12-3.68,0-.02,.16-.65,.32-1.29,.16-.64,.34-1.28,.38-1.34,.45-.62,.65,1.16,.86,0,.12-.71,.21-2.89,.12-5.25-.01-.27-.04-.48-.07-.68-.03-.15-.07-.24-.12-.35-.09-.22-.18-.44-.24-.8-.05-.33,.1-1.27-.44-2.08-.32-.48-.75-.66-1.2-.96-.42-.3-.93-.49-1.45-.76-.15-.07-.3-.14-.45-.21-.23-.11-.47-.21-.71-.32-.48-.21-.99-.43-1.51-.62-.22-.07-.89-.06-1.03-.1-.74-.24-1.54-.66-2.28-.92-.45-.16-.86-.26-1.25-.35-.4-.07-.78-.12-1.16-.23-1.7-.44-3.25-.98-4.84-1.28-1.57-.34-3.09-.73-4.7-.88-1.44-.16-2.92-.32-3.88-.4-1.17-.14-1.93-.43-2.86-.53-1.85-.17-2.34,.1-3.41,.02-.97-.04-1.92-.32-2.89-.29-.92,0-1.89,.13-2.9,.14-.77-.02-1.89-.08-2.9-.03-.86,.05-1.01,.23-1.92,.26-1.25,.07-2.42,.01-3.87,.13-.38,.03-.78,.12-1.19,.21-.4,.12-.81,.24-1.18,.31-1.38,.26-3.52,.31-5.27,.77-.86,.2-1.64,.6-2.31,.73-.92,.22-1.82,.34-2.86,.56-.72,.16-1.51,.33-2.07,.5-.55,.18-.89,.3-.74,.28-1.62,.22-2.84-.36-3.03-1.06-.1-.39,.6-.94,1.01-1.58,.24-.37,.05-.48,.26-.78,.5-.72,.55-.81,.44-1.87-.08-.69,.47-.9-1.3-.53-1.47,.3-.73,.45-2.91,1.26-1.22,.5-2.49,.9-3.93,1.56-1.13,.48-2.29,1.36-3.23,1.8-.5,.24-.94,.38-1.35,.5-.2,.06-.4,.12-.59,.19l-.28,.11-.14,.06-.07,.03h0s0,0,0,0c.78,1.13-1.06,.31-.33,.57h0s0,.03,0,.03v.04c.03,1.37,.26,4.13,.49,5.78,.07,.53,.13,.79,.16,1.57,.07,1.46-.19,2.27-.17,3.68,.01,.72,.21,2.12,.33,3.15,.11,.96,.22,2.59,.34,3.15,.13,.62,.57,1.09,.67,2.1,.34,3.17-.13,5.28,.36,8.4,.09,.6,.04,1.14,.17,1.58,.04,.13,.33,.4,.34,.53,.11,.78-.21,.96-.17,1.57,.03,.37,.32,.39,.35,1.05,.24,5.22-.17,10.86-2.23,8.93-.14-.13-.33-.3-.52-.53,0,0-.47-.41-.52-.52-.13-.31-.28-2.35-.51-2.63-.03-.04-.48,.56-.69,.53-.11-.02-.44-.98-.69-.53-.24,.44-.03,.85-.18,1.58-.03,.14-.34,.44-.35,.52-.13,1.36-.18,4.99-.21,6.83-.02,1.14,.17,2.53,.15,4.2-.02,1.97-.08,4.28,.14,7.35,.05,.75,.09,1.83,.17,2.62,.07,.67,.3,1.45,.35,2.1,.32,4.42,.29,8.65,.51,10.5,.21,1.78,.78,3.06,.9,4.2,.02,.16-.09,1.51,0,3.15,.03,.47,.35,1.35,.36,1.58,.04,.77-.24,1.03-.19,1.57,.08,.74,.3,.44,.55,1.58,.18,.82,0,1.78,.18,2.62,.15,.73,.36,1.43,.55,2.1,.11,.39,.49,1.19,.55,1.58,.09,.57-.06,1.5,0,2.1,.03,.29,.35,.84,.37,1.05,.11,.91,.05,2.23,.19,3.15,.31,2.16,.86,3.9,1.12,5.78,.38,2.72,.68,5.08,.38,6.3-.17,.69-.47,.1-.75,.53-.17,.26-.11,.92-.37,1.05-1.07,.53-2.28-1.76-2.98-2.1-.05,2.39,.69,4.05,.93,5.77,.21,1.45,.18,2.97,.37,4.2,.28,1.8,.8,3.32,1.12,4.72,.12,.54,.08,1.08,.19,1.58,.08,.36,.3,.72,.38,1.05,.09,.38,.07,1.15,.19,1.57,.27,.99,.29,.42,.56,3.15,.24,2.43,.27,2.27-.38,3.24-.28,.39-1.01,.31-1.73,.35-.72,.04-1.42,.19-1.64,.89-.37,1.18,.31,2.7,.38,4.86,0,.04-.25,.38-.19,.84,.07,.49,.29,1.06,0,1.89-.35,.96-.64-.47-1.3,.2v.47c0,.07,.02,.16,0,.22h-.22c-.3,0-.59,0-.88,0-.59,0-1.16-.02-1.72-.03-1.12-.02-2.19-.04-3.23,.01-.62,.03-.94,.3-1.59,.37-1.25,.13-2.66,.06-4.68,.18-3.42,.21-6.88,.64-11.55,.75-.13,0-.52,.26-1.05,.19-.21-.03,.05-.22-.53-.19-.84,.05-1.29,.3-2.1,.37-1.05,.1-8.85,.41-10.5,.19-.18-.02-.76-.3-1.05-.37-1.89-.44-2.7-1.8-1.05-3.11,.75-.6,.8-.84-2.1-.9-.42,0-.83,.23-1.58,.19-.56-.03-2.13-.13-3.68,.02-1.9,.18-3.06,.55-3.67,.56-.91,.02-1.11-.01-1.37-.06-.23-.05-.34-.11-.44-.15-.2-.09-.32-.11-1.2,.21-.69,.24-1.89,.36-3.31,.49-.72,.06-1.49,.13-2.24,.19l-.59,.05h-.15s-.12,.05-.1-.01l-.03-.24c-.04-.31-.09-.62-.13-.92-.2-1.26-.51-2.55-.68-4.33-.08-.74-.04-1.79-.14-2.46-.09-.6-.43,0-.52-.39,.01,.03,0-.32-.03-.99-.03-.66-.09-1.48-.15-2.04-.18-1.59-.47-3.52-.53-6.3-.03-1.18,.17-1.82,.17-2.63,0-2.67-.28-4.73,.5-6.82,.04-.1,.32-.43,.34-.53,.19-1.37,.16-.58,.67-1.58,.1-.19,.27-.97,.33-1.05,.63-.82,1.3-.07,1.51-1.57,.22-1.58-.68-8.41-.92-11.03-.26-2.82-.11-3.62-.53-5.25-.3-1.15-.11-1.45-.35-3.68-.04-.38-.25-.79-.33-1.57-.09-.79-.29-1.2-.33-1.58-.08-.79,.08-1.84-.01-2.63-.05-.48-.25-.97-.33-1.57-.1-.79-.07-1.28-.17-2.1-.15-1.21-.46-2.64-.49-3.15-.05-.86,.17-.9,.15-1.58-.03-1.2-.38-2.94,.3-3.68,.35-.38,.5-1.02,.62-1.05,.6-.15,.82,.95,1.59,3.15,.04,.13,.99,4.34,1.3,3.68,.65-1.37-.32-3.85-.71-6.83-.34-2.59-.34-6.91-1.01-8.4-.41-.92-.06-2.29-.49-4.2-.05-.15-.3-1.02-.31-1.05-.07-.74,.09-1.94-.02-2.63-.1-.67-.38-.28-.46-1.05-.05-.6-.15-2-.16-2.1-.1-1.51,.05-3.42-.02-4.2-.08-.83-.34,0-.44-.53-.1-.55-.07-2.75-.16-3.68-.03-.37-.51-1.15-.3-3.15,.66-1.31,1.1-.56,1.45,1.05,.08,.37,.28,.5,.3,1.05,0,.21-.2,.81-.14,1.05,.08,.3,.35,.28,.44,.53,.21,.56,.46,2.47,.9,2.63,.01-1.48-.16-2.1-.33-3.15-.04-.22,.04-.88-.01-1.05-.13-.45-.35-.46-.44-1.05-.11-.67-.04-1.9-.17-2.62-.29-1.65-.92-2.84-1.04-5.25-.05-1.02,.18-2.13,.12-2.63-.12-1.06-.48-1.4-.71-2.63-.16-.8-1.07-9.01-.72-11.55,0-.02,.16-.4,.33-.78,.17-.38,.37-.77,.46-.79,.3-.07,.25,.72,.4,1.05,.19,.39-.01,.17,.13,0,.5-.59,.28,1.41,.56,2.63,.1,.42,.52,.54,.68,1.05,.04,.13,.1,.89,.15,1.05,.43,1.6,.86,5.15,1.34,7.35,.21,.99,.53,1.73,.74,2.63,.12,.5,.23,2.23,.47,2.63,.05,.08,.25-.14,.28,0,.25,1.21,.26,3.14,.51,4.2,.31,1.32,.61,1.03,.91,2.1,.53-.41-.04-1.84,.22-2.62,.21,.12,.09,1.57,.33,1.57,.24-.62-.07-1.86-.33-1.57-.55,.62-.28-2.91-.38-3.68-.07-.56-.25-.39-.31-1.05-.07-.82,.02-1.81-.06-2.63-.14-1.48-.47-3.29-.67-5.25-.13-1.32-.26-7.17-.59-8.4-.08-.29-.36-.12-.41-.52-.06-.57,.02-1.85-.06-3.15-.09-1.28-.5-2.54-.6-3.68-.06-.67,.14-2.04,.08-2.62-.07-.61-.19-.98-.29-1.58-.05-.32-.08-1.08-.16-1.58-.03-.22-.24-.34-.26-.52-.04-.28,.02-.79-.02-1.05-.19-1.27-.19-1.2-.44-3.67-.21-1.95-1.55-12.29-.82-14.18,.48-1.26,.62-.88,1.07,1.57,.1,.56,.01,.63,.14,1.05,.13,.45,.1,1.64,.4,2.1,.13-2.47-.36-4.75-.61-6.83-.12-.97-.29-2.1-.4-3.15-.24-2.32-.39-4.45-.67-6.82-.1-.85-.3-1.8-.36-2.63-.06-.79,.02-1.83-.04-2.63-.03-.4-.22-.91-.22-1.05-.07-1.46,0-3.12-.06-4.72,.34-.15,.57-.84,1-.53-.05-.72-.07-1.3-.25-2.62-.09-.63-.24-.84-.32-1.58-.09-.73-.06-1.89-.14-2.62-.07-.62-.25-1.03-.31-1.58-.15-1.4-.29-2.74-.44-4.2-.18-1.49-.43-2.84-.5-3.68-.04-.56,.02-2.26-.03-3.15,0-.08-.32-.71-.19-2.1,.13-1.43,.36-1.36,.59-1.05,.36,.48,.43,4.55,.78,4.73,.09-.15,.02-.56-.02-1.05-.02-.27-.08-1.05-.12-1.58-.11-1.17-.25-2.03-.4-3.15-.07-.5-.03-.65-.1-1.05-.23-1.29-.88-7.07-.84-9.45,.01-1.14,0-.89,.13-2.1,.06-.55,.15-.43,.13-1.57-.04-2.66-.39-3.36-.55-5.05-.02-.36-.11-1.72-.15-2.41,0-.09-.01-.18-.02-.27,0-.07,.13-.03,.19-.05,.14-.01,.28-.02,.41-.03,.27-.02,.52-.03,.76-.05,.5-.02,1.01-.02,1.66,.05,.25,.02,.61,.14,.98,.13,.37,0,.84-.03,1.34-.07,.49-.04,1.01-.09,1.55-.13,1.07-.1,2.22-.2,3.36-.31,1.09-.08,2.1-.15,3.15-.23,1.09-.05,2.34-.11,3.15-.15,1.61-.11,3.14-.31,5.25-.42,.51-.03,1.15,0,1.58-.03,1.13-.08,3.66-.14,5.25-.23,2.21,.07-.77,.05,2.1,.13,1.08,.03,1.11,.07,2.1-.04,.09-.09-1.86-.06-2.62-.1,.75-.12,2.76-.06,4.2-.1,1.02-.03,2.99-.17,4.2-.12,1.32,.04,.22,.05,1.57,.02,.5-.01,.85-.02,1.58-.04,1.51-.02,4.62,.05,6.83,.08,.53,0,1.11,0,1.57,0,.43,.02,1.14,.07,1.58,.09,.35,.01,1.12,0,3.15,.14,.54,.06-.53,.04-.53,.04,0,.01,.84,.08,.53,.08-.72-.02-3.57-.09-5.25-.13-.39,0-.56,0-1.05,0-.94,0-2.44-.02-3.68-.03v-.12c-1.68-.1-.34,.1-1.05,.14,.41-.03-2.49,.04-2.62,.05-.46,0-3.22-.06-3.67,0-.88,.11-.29-.02-2.1,.02-.45,.02-.89,.05-1.58,.08-.79,.03-2.03,.07-3.15,.11-.12,0-.99,.03-1.05,.03-.83,.14-.13,0-2.1,.06-.26,0-.31,.08-.53,.08-.75,.03-2,.03-2.62,.07-.96,.06-1.61,.2-2.63,.28-.59,.05-1.76,.04-2.62,.1-.55,.04-1,.12-1.58,.16-.54,.04-1.18,0-1.05,0-.48,.03-.17,.08-.53,.11-1.73,.13-4.3,.25-6.3,.44-1.15,.11-1.99,.29-3.15,.4-.54,.05-1.62,.05-2.09,.09-.98,.06-1.94,.2-2.82,.36-.08,.01-.16,.02-.25,.04-.06,.03-.23-.04-.18,.12,.02,.22,.04,.44,.07,.66,.04,.43,.09,.86,.13,1.25,.02,.14,.13,.25,.14,.35,.04,.37,.09,1.68,.26,2.73,.07,.56,.33,2.58,.47,3.67,.14,.97,.28,2.65,.51,4.2,.22,1.48,.35,1.74,.41,2.63,.06,.94-.07,2.58-.05,3.67,.07,2.74,.62,5.86,.97,8.4,.05,.35,.08,1.18,.15,1.58,.07,.42,.22,1.23,.35,2.1,.13,.89,.33,2.33,.52,3.67,.08,.59,.08,1.06,.16,1.58,.1,.67,.48,2.32,.54,3.67,.05,1.33-.12,2.39-.16,3.68-.41-.4-.49-2.86-.99-2.63,.15,.41,.3,1.75,.49,2.63,.14,.66,.48,4.4,.72,5.77,.05,.29,.22,.85,.25,1.05,.08,.6,.1,2.48,.25,3.68,.1,.79,.41,.46,.43,2.63,0,.07-.2-.06-.22,0-.03,.11-.05,2.23,0,2.62-.69-.96-1.03-3.79-1.51-5.78-.34,.98,.18,3.46,.39,5.25,.11,.91,.31,1.55,.42,2.62,.1,.94,.09,2.19,.22,3.15,.08,.61,.17,.61,.26,1.05,.17,.84,.41,2.98,.61,4.2,.3,1.83,.77,3.72,.78,5.25-.01,.1-.36,3.12-.37,3.15-.18,.19-.25-.78-.54-1.58-.6-1.66-.3-.33-.58-3.15-.04-.34-.23-.78-.27-1.05-.11-.93-.22-1.85-.31-2.62-.27-1.8-.62-3.25-.83-4.73-.2-1.46-.26-3.41-.46-4.73-.07-.5-.26-.96-.37-1.57-.09-.51-.17-2.09-.37-1.58-.18,1.54,.15,2.84,.32,4.2,.07,.55,.18,1.35,.27,2.1,.02,.15,.1,.78,.14,1.05,.04,.23,.23,.42,.24,.53,.07,.58-.02,1.52,.05,2.1,.04,.31,.23,.41,.24,.53,.09,.94,.09,1.68,.19,2.62,.1,.88,.19,1.63,.31,2.62,.19,1.79,.2,3.02,.49,4.73,.11,.63,.33,1.04,.41,1.58,.23,1.62,.2,3.27,.39,4.73,.22,1.71,.49,3.03,.79,5.25,.06,.42,.28,1.32,.31,1.58,.1,.96-.03,1.26,.07,2.1,.24,1.89,.85,4.66,.88,6.83,0,.42-.06,1.33-.13,2.14-.04,.4-.07,.78-.1,1.07-.03,.28-.05,.46-.05,.47-.25,.4-.87-1.87-1.33-4.2-.71-3.62-1.16-7.87-1.74-12.08-.13-.98-.33-1.78-.44-2.62-.16-1.2-.2-2.38-.32-3.15-.16-1.04-.74-2.55-.72-5.25Z" style="fill:#030303; fill-rule:evenodd;"/></g></svg>