<?xml version="1.0" encoding="UTF-8"?><svg id="GH" xmlns="http://www.w3.org/2000/svg" viewBox="0 0 612 612"><path d="M464.46,294.53c.13,.59-.32-5.72-.47-6.26-.23-1.21-.78-1.86-1.12-3.63-.22-1.14-.32-2.09-.51-3.37-.22-1.26-.51-2.84-1.05-5.23-.38-1.86-1.03-3.65-1.65-5.58-.6-1.94-1.38-3.95-2.15-6.25-.18-.53-.36-1.12-.54-1.75-.21-.62-.43-1.28-.65-1.98-.47-1.38-.91-2.91-1.56-4.41-.01-.03-.3-.74-.62-1.52-.32-.77-.65-1.61-.79-1.87-.17-.34-.61-.76-.73-1.02-.38-.82-.75-1.82-1.15-2.8-.42-.97-.83-1.93-1.23-2.73-.53-1-1.03-1.79-1.52-2.59-.57-.88-1.13-1.75-1.79-2.77-.22-.33-.69-1.02-1.16-1.73-.5-.71-1.08-1.43-1.36-1.81,.02-.29,0-.4,0-.26,.1-1.74,.41-2.3,.58-4.46,.03-.36,.06-.73,.09-1.12,.01-.17,.03-.35,.04-.53,0-.11,.01-.23,.02-.34,.02-.46,.05-.95,.07-1.46,.04-1.03,.08-2.15,.12-3.33,.06-2.38,.12-5.02,.18-7.72,.1-5.41,.21-10.03,.04-16.21-.04-1.61-.33-3.33-.34-3.69-.07-2.07,.09-4.21-.05-6.09-.18-2.41-.58-5.67-1.14-8.9-.54-3.23-1.27-6.41-1.84-8.54l-.02-.09v-.02s.02-.03,.03-.05c.02-.03,.04-.06,.07-.09,.06-.07,.12-.14,.18-.21,.13-.15,.24-.34,.2-.53,0-.05-.26-.39-.26-.4,.06-.16,.7-.23,1.4,.29l.26,.2s.08,.07,.13,.13l.21,.33c.26,.47,.52,.93,.74,1.4,.45,.92,.78,1.76,.93,2.2,.76,2.06,1.52,5.96,2.09,9.24,.16,.86,.18,1.17,.34,2.43,.01,.09,.28,2.32,.29,2.46,.21,1.34,.57,1.2,.73,2.46,.27,2.25,.22,5.35,.39,7.52,.16,1.9,.41,3.29,.53,5.06,.07,.99-.03,2.69,.02,3.8,.02,.43,.28-.37,.31,.01,.04,.44-.13,2.04-.11,2.54,.16,3.8,.22,7.46,.41,10.24,.79-5.13,.59-9.69,.53-14.01-.05-3.47-.15-6.72-.33-10.15-.19-3.44-.44-7.08-.96-11.27-.31-2.4-.63-4.52-1.45-8.47-.42-1.91-.9-3.66-1.51-5.35-.16-.41-.31-.85-.49-1.25-.15-.35-.26-.56-.4-.84-.28-.53-.59-1.07-.99-1.58-.24-.3-.62-.53-.96-.9-.39-.38-.52-.47-.77-.57-.25-.08-.64-.29-1.66-.16-.54,.12-1.03,.12-1.46,.2-.45,.07-.6,.04-1.25,.08-1.05,.07-1.63-.03-1.24-.55,.11-.14,.42-.36,.85-.55,.35-.14,.8-.32,1.3-.52,.47-.21,1.05-.31,1.66-.43,.61-.14,1.28-.2,1.91-.07,1.29,.24,2.26,1.14,2.85,1.78,.6,.66,.93,1.1,.96,.85,.03-.4-.29-1.28-1.1-2.16-.77-.88-2.18-1.67-3.7-1.53-.74,.12-1.49,.22-2.17,.38-.33,.1-.65,.2-.96,.3-.35,.11-.69,.21-1.01,.3-1.47,.55-2.64,.98-3.19,1.19-2.12,.85-4.05,1.56-5.62,2.25-1.58,.64-2.8,1.17-3.5,1.54-.88,.45-1.32,.86-2.14,1.33-.98,.58-2.26,1.32-3.72,2.13-1.46,.84-3.09,1.78-4.79,2.76-3.38,2.01-7.01,4.2-9.94,6.13-3.4,2.21-8.38,5.44-13.58,8.88-2.62,1.75-5.29,3.54-7.87,5.26-3.25,2.14-6.78,3.55-10.05,4.35-1.96,.11-.18-.79-1.8-.89-1.85-.22-.09-.7,2.35-1.67,2.46-.94,5.49-2.66,6.74-3.98-.23,0-1.04,.43-2.08,.87-1.03,.47-2.28,.94-3.26,1.3-2.75,.89-2.71,1.04-4.12,1.4-3.48,.74-7.52,.81-11.66,.08-1.32-.22-2.24-.23-3.82-.49-2.21-.36-3.3-.6-4.97-.83-2.66-.37-5.17-.5-7.53-.77-3.23-.37-6.8-.94-9.98-1.17-2.77-.21-6.92-.32-10.04-.37-3.51-.04-7.86,.18-10.01,.1-4.78-.21,.09-.44-2.49-.59-4.44,0,.33,.48-4.99,.74-2.6,.04-12.55,.17-14.91,.2-.79-.01-2.77-.06-3.76-.18-2.39-.28,.23-1.49-2.72-1.74-1.2-.1-3.54,.09-6.3,.36-2.44,.24-6.59,.5-11.14,1.97-1.34,.4-1.52,.5-1.76,.58-.25,.06-.61,.21-2.52,.31-.9,.05-3.73,.24-6.73-.4-3.02-.57-6.05-2.08-7.55-3.15-.68-.45-1.28-.95-1.87-1.44-.45-.36-.89-.71-1.33-1.06-.83-.73-1.83-1.34-2.88-2.03-.5-.36-1.84-.76-2.23-.99-.49-.27-1.01-.62-1.54-.95-.55-.32-1.1-.64-1.61-.89-2.2-1.13-5.32-2.52-8.75-3.96-3.48-1.39-7.27-2.84-10.89-4.03-.63-.22-2.04-.39-2.49-.52-2.2-.71-5.04-1.83-7.2-2.35-2.04-.48-4.14-1.38-8.48-2.56-1.22-.33-2.98-.56-3.74-.75-1.34-.35-2.71-.71-4.12-1.08-.87-.23-1.8-.36-2.76-.24-.96,.11-1.93,.47-2.81,1.06-.87,.61-1.64,1.46-2.11,2.55-.18,.39-.25,.82-.31,1.24l-.05,.35-.03,.19-.06,.3c-.1,.42-.2,.84-.3,1.27-1.25,4.67-2.24,9.63-2.87,13.49-.65,3.87-1,6.67-1.69,7.21-.27,.2-.83-.48-1.32-2.36-.42-1.4-.25-7.33-1.21-2.49-.49,2.58-.69,6.83-.11,11.55,.55,4.71,1.82,9.8,3.21,14.03,.17,.53,.34,.96,.5,1.4,.17,.5,.36,.97,.51,1.49,.3,1.03,.62,2.21,.75,4.06-.03-.56-.28,.85-.2,1.5,.09,.85,.1,2.48-.34,4.51-.44,2.02-1.31,4.44-2.78,6.69-.35,.57-.76,1.12-1.17,1.66-.2,.28-.44,.53-.65,.79l-.61,.72c-.33,.39-.66,.79-.98,1.18-.32,.4-.6,.84-.9,1.25-1.18,1.66-2.13,3.4-2.84,4.86-.11,.23,.11,.17-.39,1.14-.25,.54-.87,1.45-.68,1.01-.3,.75-.56,1.38-.75,1.97-.17,.6-.33,1.14-.47,1.66-.3,1.04-.59,2.02-.97,3.33-.38,1.21-.94,2.8-1.41,4.5-.25,.85-.5,1.71-.75,2.54-.2,.85-.4,1.67-.58,2.42-2.18,9.5-2.8,18.51-3.98,27.29-.34,2.16-.54,3.38-.79,5.02-.12,.82-.24,1.75-.34,2.95-.12,1.2-.21,2.69-.23,4.63-.03,1.75,.16,3.3,0,5.08,0,.02-.07,.56-.18,1.35-.09,.79-.21,1.85-.33,2.92-.25,2.14-.51,4.35-.58,4.63-.57,2.13-1.41,1.21-2,1.33-.29,.06-.56,.38-.62,1.48-.06,1.1,.05,2.98,.4,6.12,.14,1.56,.57,2.17,.88,3.76,.15,.77,.31,1.97,.46,3.16,.16,1.19,.29,2.38,.53,3.1,.55,1.98,1.16,3.13,1.29,3.61,.21,.77,.42,1.65,.64,2.59,.29,.92,.59,1.89,.9,2.86,.61,1.94,1.14,3.89,1.85,5.31,.24,.54,.59,.61,.79,1.04,.39,.85,.79,1.9,1.25,3.07,.49,1.16,1.15,2.4,1.85,3.71,.38,.71,.77,1.37,1.18,2.07,.42,.69,.93,1.36,1.43,2.15,.63,.97,2.04,3.49,1.86,3.21,1.34,1.81,2.24,2.73,2.99,3.61,.38,.44,.73,.85,1.1,1.35,.41,.47,.85,1.02,1.36,1.74,.47,.84,.51,1.29,.21,1.42,3.6,5.2-1.75-2.74,1.56,1.93,.96,1.2,1.16,1.68,2.27,2.98,.46,.9-1.3-.83-2.24-1.34-.64-.36-.8,.18-1.54-.33-1.59-1.22-4.75-4.8-4.71-4.41-.02,.64,.63,1.69,1.6,3.01,.49,.66,1.06,1.37,1.68,2.11,.61,.75,1.38,1.43,2.11,2.17,.75,.71,1.51,1.43,2.25,2.14,.73,.71,1.54,1.28,2.24,1.87,1.44,1.13,2.62,2.11,3.34,2.64,1.47,1.08,2.89,2.12,4.29,3.15,1.43,.99,2.89,1.92,4.34,2.89,2.96,1.87,6.06,3.71,9.7,5.55,.45,.23,.9,.46,1.36,.7,.47,.21,.95,.42,1.43,.64,.97,.43,1.97,.87,3.01,1.33,1.03,.47,2.16,.87,3.33,1.35,1.17,.46,2.38,1,3.71,1.47,1.8,.68,2.59,.97,3.56,1.34,.98,.33,3.24,1.1,5.77,1.96,1.27,.4,2.62,.82,3.9,1.22,1.3,.37,2.53,.72,3.59,1.02,1.81,.54,4.16,1.1,6.1,1.62-.22-.05,.64-.13,1.27,.15,2.31,1.05,2.39,.64,4.96,1.06,1.71,.34,3.12,.62,4.72,.93,1.58,.35,3.36,.66,5.88,1.02,.12,.11,.3,.31,.48,.44,.46,.33,1.72,1.1,1.99,1.37,.93,.64,1.88,1.28,2.88,1.75,.5,.24,1.01,.47,1.53,.66l.39,.14c.13,.03-.05,.01-.08,.02h-.2c-.27-.06-.52,.11-.78,.17-.18,.12-.36,.24-.55,.37-.17,.17-.36,.36-.56,.56-1.08,1.33-2.03,3.43-2.78,5.8-.09,.29-.17,.57-.26,.86l-.13,.43c-.01,.07-.06,.14-.05,.22l.11,.24c.15,.32,.3,.65,.44,.97l.22,.48,.11,.24c.04,.08-.06,.16-.09,.24-.33,.65-.66,1.3-.99,1.94-.28,.65-.56,1.3-.85,1.95l-.22,.51-.14,.35-.27,.69-.52,1.4c-.34,.94-.67,1.89-1,2.86-.66,1.94-1.3,3.97-1.97,6.17-.36,1.21-.73,2.45-1.12,3.76-.5,1.69-1,3.49-1.51,5.38-.09,.29-.4,1.3-.8,2.57-.19,.63-.4,1.33-.61,2.04l-.08,.27c-.03,.09-.02,.21-.15,.17h-.57c-.38-.02-.75-.02-1.11-.03-2.15,0-4.76-.03-7.55-.08-.7-.01-1.41-.02-2.12-.05-.64-.03-1.29-.06-1.94-.09-1.06-.06-2.13-.12-3.18-.17-2.1-.1-4.14-.32-5.93-.49-1.79-.17-3.32-.34-4.4-.53-4.74-.71-5.3-.91-7.75-1.57-1.45-.38-2.25-.93-2.24-1.37,0-.43,.8-.72,2.54-.73,.69,0,3.51,.25,3.89,.18,.86-.12-.41-.63,.09-.81,.27-.09,3.05-.07,2.61-.24-.61-.24-1.68-.44-3.02-.65-1.34-.24-2.96-.48-4.68-.7-1.71-.26-3.52-.54-5.24-.8-1.71-.34-3.35-.59-4.7-.9-1.44-.35-2.92-.65-4.33-1.11-.71-.22-1.42-.44-2.12-.65-.69-.25-1.37-.5-2.04-.74-2.66-1.03-5.07-2.17-7.05-3.27-.21-.13-.68-.46-1.31-.92-.6-.5-1.37-1.16-2.11-2.03-1.42-1.71-3.12-3.77-4.93-5.21-.51-.51-1.06-.96-1.47-1.45-.4-.5-.77-.96-1.11-1.37-.92-1.27-1.98-2.7-2.99-4.25-.59-.91-1.37-2.43-1.97-3.29-.25-.37-.77-.64-.95-.9-1.04-1.6-2.9-4.25-4.55-5.92-.77-.71-1.36-1.24-1.97-1.68-.62-.41-1.21-.8-1.88-1.33-.94-.64-1.66-1.08-2.38-1.6-.75-.49-1.62-.87-2.82-1.46-.88-.35-1.89-.59-2.91-.91-.51-.18-1.06-.23-1.62-.31-.55-.08-1.12-.16-1.69-.25l-.86-.12-.88-.02c-.59-.02-1.18-.03-1.77-.05-1.16-.07-2.42-.03-3.63-.02-2.26-.01-4.63-.03-7.01-.05-2.36-.01-4.78-.05-6.94,.17-.48,.04-.93,.12-1.32,.21-.15,.06-.4,.1-.43,.15-.04,0-.09,.09-.1-.02-.05-.07-.11-.14-.19-.2-.03-.02-.1-.07-.11-.07,.01,0,.03,.02,.04,.02,.07,.02-.03-.01,.37,.08,.09,0,0-.02,.05,.07,0,.1,.06,.33,.12,.54,.14,.46,.32,.94,.52,1.39,.82,1.82,2.16,3.46,3.75,4.62,.79,.59,1.64,1.07,2.49,1.44,.93,.4,1.9,.81,2.76,1.21,1.75,.8,3.26,1.58,4.4,2.26,1.52,.91,.02,.43,.9,1.1,.92,.68,3.64,2.42,3.04,2.51-.37,.03-2.71-.71-2.71-.39,0,.04,1.34,.89,.96,.86-.27-.06-3.8-1.2-4.92-1.42-.97-.21-1.35-.25-2.51-.53-2.13-.49-3.09-.72,.65,1.56,.91,.55,3.13,2.05,4.11,2.67,.9,.55,2.61,1.5,4.22,2.6,.8,.55,1.58,1.13,2.22,1.68,.32,.28,.61,.55,.86,.8,.13,.12,.25,.25,.33,.35,.06,.08,.14,.16,.2,.25,.48,.61,.71,1.22,.79,1.75,.03,.27,.01,.52,0,.75,0,.12,0,.23,0,.34,0,.09,0,.14,0,.27,0,.13,.02,.26,.02,.39,.42,4.13,2.07,8.67,4.23,12.83,2.14,4.2,4.74,8.13,7.07,11.31,1.81,2.49,3.49,4.33,5.03,6.23,3.64,4.39,7.7,8.79,12.16,12.97,2.23,2.09,4.58,4.12,7.07,6.05,2.53,1.92,5.07,3.77,8.31,5.3,.78,.39,1.71,.73,2.68,1.04,.56,.13,1.08,.27,1.68,.36,.35,.03,.7,.05,1.05,.07,.35,.01,.76,.01,.87,0,1.46-.03,2.9-.05,4.34-.08,2.88-.07,5.71-.13,8.47-.19,5.53-.14,10.79-.32,15.61-.53,1.47-.06,3.01-.08,4.86-.1,.92-.01,1.92-.02,3.02-.04,.55,0,1.12-.02,1.73-.03,.44,0,.86,0,1.31,.08,1.93,.28,3.74,1.38,4.82,3.02,.13,.2,.26,.41,.38,.63l.17,.33c.06,.11,.13,.29,.19,.44,.25,.62,.53,1.22,.76,1.85,.49,1.24,.93,2.48,1.33,3.75,1.27,4,2.03,8.09,2.43,12.06,.09,.87,.24,1.32,.25,2.45,0,.42-.02,1.87-.06,1.23,.03,1.84,.08,3.02,.04,4.06-.01,.52-.03,1.02-.04,1.54-.06,.53-.12,1.08-.19,1.75-.06,.64-.19,1.36-.35,2.15-.14,.8-.31,1.67-.56,2.57-.23,.91-.48,1.87-.83,2.84-.16,.49-.33,.98-.49,1.48-.19,.49-.33,.84-.56,1.23-.85,1.53-2.35,2.72-3.96,3.25-.8,.27-1.62,.39-2.39,.39-.77-.01-1.47-.15-2.12-.34-.02,.02,0-.1-.03-.01-2.19-.76-3.75-1.3-4.16-1.47,.09,.04-.2-.11-.51-.27-.31-.16-.63-.31-.64-.32,.23,.1-1.23-.58-1.17-.5-.13-.19,2.93,.78,2.5,.57-1.05-.5-3.12-1.29-5.74-2.24-2.59-1.05-5.74-2.26-9-3.5-3.22-1.34-6.55-2.72-9.55-3.97-2.96-1.33-5.6-2.52-7.48-3.37-.74-.34-1.58-.72-2.51-1.15-.91-.47-1.91-.98-2.98-1.53-2.13-1.12-4.57-2.31-7.07-3.71-2.49-1.42-5.12-2.92-7.74-4.42-2.57-1.59-5.13-3.18-7.55-4.68-8.8-5.7-16.3-10.94-20.83-14.77-1.51-1.25-2.86-2.47-4.11-3.61-1.24-1.17-2.34-2.29-3.44-3.26-1.26-1.12-2.58-2.27-3.95-3.45-1.33-1.22-2.71-2.48-4.12-3.77-1.4-1.31-2.9-2.59-4.34-4.02-1.43-1.43-2.9-2.89-4.41-4.38-1.46-1.42-2.95-3.15-4.34-4.68-1.5-1.64-4.32-4.6-7.1-7.96-1.4-1.67-2.92-3.34-4.2-5.02-1.3-1.67-2.53-3.24-3.55-4.54-1.89-2.35-3.47-4.8-5.16-7.2-.82-1.21-1.71-2.39-2.51-3.66-.82-1.25-1.65-2.52-2.49-3.82-.68-1.03-1.4-2.11-2.15-3.24-.73-1.14-1.44-2.35-2.2-3.58-1.5-2.47-3.16-5.05-4.68-7.84-1.55-2.77-3.22-5.59-4.69-8.57-1.51-2.95-3.09-5.92-4.43-8.96-5.43-11.55-10.03-23.95-13.44-35.77-1.68-5.71-3.06-11.15-4.38-17.31-2.87-13.55-4.22-27.91-4.62-39.22-.06-2.4-.23-4.95-.25-7.65,.1-3.01,.2-5.79,.31-8.97,.03-.8,.06-1.62,.09-2.47,.07-.85,.15-1.75,.22-2.68,.15-1.87,.32-3.93,.5-6.24,.16-3.19,.71-6.66,1.15-10.34,.26-1.84,.42-3.74,.77-5.65,.34-1.91,.69-3.86,1.03-5.82,.37-1.96,.64-3.96,1.11-5.92,.45-1.97,.91-3.94,1.36-5.9,.23-.98,.45-1.96,.67-2.93,.21-.98,.45-1.94,.73-2.88,.54-1.9,1.07-3.77,1.59-5.6,.47-1.64,.88-3.06,1.28-4.43,.46-1.35,.91-2.65,1.4-4.09,.69-2.08,1.35-4.1,2.01-6.1,.65-2.01,1.47-3.94,2.23-5.93,.71-1.79,1.67-3.97,2.42-5.9,2.59-5.78,4.73-11.17,7.43-16.24,.87-1.7,1.75-3.42,2.63-5.13,.95-1.67,1.91-3.34,2.84-4.97,1.06-1.87,2.12-3.74,3.16-5.59,1.12-1.8,2.23-3.58,3.32-5.31,1.09-1.73,2.13-3.45,3.2-5.06,1.11-1.58,2.18-3.11,3.19-4.57,.52-.74,1.72-2.49,2.21-3.13,.08-.1,.94-1.03,.87-.94,.59-.86,2.16-3.04,3.75-5.16,.95-1.24,2.03-2.65,3.15-4.11,1.13-1.46,2.43-2.88,3.63-4.32,2.45-2.83,4.7-5.56,6.33-7.19,1.09-1.17,2.94-3.16,5-5.38,.52-.55,1.04-1.13,1.59-1.69,.56-.55,1.13-1.1,1.69-1.65,1.14-1.09,2.26-2.15,3.29-3.14,3.36-3.27,6.59-5.83,8.8-7.54,2.22-1.7,3.51-2.47,3.33-1.8,.03-.12-.79,1.12-.74,1.07-.45,.48-2.32,2.08-2.79,2.58-1.33,1.43-1.52,1.9-2.51,2.87-.65,.56-3.17,2.94-4.55,4.39-.37,.38-.46,.7-.77,1.02-.45,.46-1.42,1.32-1.82,1.74-1.1,1.18-1.23,1.5-2.44,2.91-.74,.9-2.53,2.81-3.34,3.78-3.09,3.62-7.98,9.72-1.98,3.31,.79-.81,1.82-2.07,3.41-3.69,1.3-1.31,2.38-2.41,3.42-3.36,1.06-.94,2.01-1.79,2.96-2.69,1.87-1.77,3.34-3.4,5.34-5.31,2.97-2.65,5.36-4.6,8.49-7.45,3.05-2.53,2.07-1.79,5.86-4.73,1.53-1.16,2.72-2.24,4.12-3.27,1.38-1.04,2.86-2.17,4.84-3.6,1.09-.79,2.18-1.58,3.27-2.37,1.1-.79,2.27-1.49,3.41-2.24,2.28-1.49,4.57-2.98,6.84-4.47,2.48-1.5,4.93-2.98,7.42-4.47,2.45-1.56,5.05-2.92,7.74-4.35,1.49-.79,3.02-1.6,4.58-2.43,1.56-.84,3.22-1.52,4.85-2.3,3.29-1.49,6.54-3.15,9.78-4.41,1.87-.78,3.7-1.69,5.73-2.54,.7-.29,1.39-.56,2.06-.84,.68-.25,1.36-.46,2.04-.69,1.36-.45,2.72-.89,4.16-1.4,1.72-.58,3.96-1.48,6.3-2.25,2.35-.76,4.76-1.54,6.75-2.18,.68-.22,1.45-.47,2.32-.74,.86-.28,1.82-.57,2.86-.81,2.07-.52,4.43-1.1,6.92-1.72,1.03-.26,2.14-.53,3.31-.82,1.18-.25,2.42-.46,3.71-.71,2.57-.48,5.31-.99,8.07-1.51,2.78-.43,5.59-.76,8.27-1.15,1.34-.19,2.65-.38,3.91-.56,1.26-.18,2.49-.25,3.64-.38,2.41-.24,4.16-.56,6.24-.75,1.28-.09,2.75-.27,4.27-.26,1.52-.03,3.08-.05,4.52-.08,2.64-.06,5.38-.25,7.97-.3,2.59,.01,5.05,.02,7.11,.09,.9,.03,2.24,.11,3.85,.2,1.62,.1,3.5,.37,5.5,.56,1.99,.21,4.1,.41,6.15,.57,1.03,.06,2.03,.17,3,.29,.97,.1,1.91,.19,2.79,.26,.96,.07,2.28,.21,3.87,.4,1.58,.22,3.45,.36,5.43,.77,1.99,.36,4.14,.76,6.35,1.16,1.1,.2,2.22,.4,3.34,.6,1.12,.19,2.22,.49,3.32,.72,2.47,.55,3.3,.62,4.93,.99,1.34,.31,2.85,.7,4.34,1.11,1.47,.47,2.91,.93,4.13,1.27,1.96,.54,3.11,.57,4.92,1.07,2.57,.65,4.84,1.74,7.13,2.47,1.81,.59,3.59,1.17,5.35,1.74,1.76,.54,3.43,1.26,5.11,1.85,1.67,.62,3.31,1.24,4.92,1.84,.8,.31,1.61,.59,2.39,.92,.77,.34,1.54,.68,2.3,1.02,2.01,.9,4.15,1.91,6.42,2.98,.57,.27,1.15,.54,1.73,.82,.57,.3,1.16,.61,1.75,.93,1.18,.62,2.4,1.26,3.66,1.92,1.8,.95,3.77,1.89,5.71,2.95,1.93,1.09,3.9,2.2,5.82,3.29,3.91,2.1,7.43,4.5,10.23,6.36,.84,.57,1.78,1.23,2.73,1.91,.95,.69,1.85,1.47,2.7,2.15,1.69,1.39,3.07,2.58,3.44,2.98,.95,1.04-.37,1.12,.27,1.77,.49,.5,1.36,1.23,2.37,2.1,.99,.9,2.12,1.92,3.21,2.91,2.1,1.91,3.6,3.22,5.59,4.94,1.93,1.78,4.38,3.9,8.45,7.35,.31,.29,1.63,1.33,2.81,2.45,.97,.92,2.85,2.91,2.6,2.68,1.54,1.43,2.53,1.92,3.8,3.23,1.81,1.84,3.56,3.79,5.17,5.39,.71,.71,1.47,1.4,2.22,2.1,.73,.73,1.47,1.48,2.21,2.28,1.06,1.13,2.21,2.59,3.28,3.75,.7,.76,1.45,1.52,2.19,2.27,.71,.78,1.4,1.56,2.04,2.31,1.59,1.88,3.05,3.7,4.48,5.47,.73,.87,1.4,1.76,2.06,2.65,.67,.88,1.35,1.75,2.04,2.6,.49,.6,1.5,1.58,1.71,1.85,1.17,1.5,2.5,3.5,3.56,5.15,.96,1.42,2.03,2.72,2.98,4.04,.62,.86,1.44,2.33,2.05,3.16,.25,.33,.76,.67,.91,.91,1.65,2.63,3.61,6.09,5.17,8.61,1.85,3.15,3.97,6.89,6.07,10.57,1.93,3.76,3.68,7.53,4.87,10.67,.33,1.99-1.86-3.85-1.98-3.25,.95,2.54,1.63,3.37,2.39,5.8,.84,2.6,.41,2.5,1.32,4.88,.45,1.18,1.1,2.62,1.76,4.06,.62,1.45,1.18,2.91,1.6,4.05,.71,1.96,1.42,4.08,2.16,6.27,.4,1.09,.7,2.24,1.03,3.39,.34,1.15,.68,2.31,1.02,3.47,.5,1.64,1.02,3.21,1.54,4.78,.54,1.57,.91,3.18,1.35,4.84,.64,2.66,1.44,5.62,2.11,8.79,.6,3.18,1.24,6.54,1.88,9.92,1,6.81,1.97,13.76,2.24,19.72,.14,2.13,.03,2.8,.15,5.03,.07,3.54,.24,7.12,.23,10.05,0,1.15-.03,2.19-.07,3.15-.09,.96-.17,1.86-.25,2.73-.17,1.75-.34,3.42-.45,5.44-.11,3.63-.51,7.86-.72,12.22-.09,2.18-.34,4.37-.55,6.53-.23,2.16-.45,4.27-.66,6.29-.27,2.01-.78,4.29-1.05,6.19-.62,4.98-1.45,9.73-2.36,14.86-.6,2.95-1.41,6.13-2.18,9.43-.36,1.66-.87,3.31-1.33,4.98-.46,1.67-.92,3.36-1.38,5.03-.38,1.53-.89,3.06-1.36,4.62-.48,1.56-.95,3.12-1.42,4.67-.24,.77-.46,1.54-.71,2.29-.26,.74-.53,1.48-.78,2.2-.52,1.43-1.03,2.81-1.5,4.1-.39,1.03-.79,2.04-1.21,3.06-.46,.99-.93,1.99-1.4,3.01-.96,2.03-1.91,4.17-2.95,6.53-2.51,5.47-7.08,15.8-12.22,24.66,.05-.09-.04,.3-.51,1.15-1.36,2.23-2.89,4.75-4.52,7.41-1.65,2.65-3.5,5.37-5.27,8.13-1.84,2.71-3.76,5.35-5.52,7.86-1.82,2.46-3.6,4.71-5.11,6.69-1.37,1.8-1.73,2.01-3.24,3.84-2.04,2.45-3.99,4.86-6.59,7.62-1.65,1.78-2.89,3.36-4.2,4.69-2.04,2.07-3.76,3.82-5.55,5.63-1.82,1.78-3.77,3.58-6.14,5.86-1.62,1.57-2.83,2.41-4.76,4.15-.44,.39-1.76,1.56-3.37,2.99-1.67,1.37-3.64,2.98-5.32,4.35,.24-.2-.42,.47-.95,.85-2.7,1.84-8.13,6.52-12.13,9.18-1.48,1-2.85,2-4.42,2.93-1.56,.96-3.23,1.99-5.21,3.2-1.19,.77-2.51,1.53-3.9,2.33-1.39,.81-2.84,1.65-4.36,2.54-1.5,.92-3.15,1.71-4.8,2.63-1.67,.88-3.36,1.84-5.13,2.73-3.57,1.73-7.24,3.66-11.1,5.31-1.92,.83-3.82,1.78-5.79,2.55-1.96,.8-3.92,1.59-5.86,2.38-2.6,1.05-8.65,3.22-9.59,3.53,11.47-3.96,23.04-8.99,33.88-14.73,1.6-.85,3.93-2.1,5.61-2.99,1.23-.65,2.31-1.3,3.36-1.96,1.05-.64,2.09-1.27,3.19-1.94,.86-.5,1.65-.96,2.51-1.47,.86-.51,1.77-1.1,2.91-1.83,1.04-.68,2.32-1.52,4.24-2.78,2.2-1.44,4.28-2.89,6.29-4.27,7.91-5.65,15.98-12.3,22.54-18.31,.99-.82,2.8-2.67,3.68-3.44,.8-.72,.63-.41,1.92-1.63,1.11-1.04,1.19-1.31,1.73-1.84,1.15-1.19,1.59-1.52,1.82-1.75,8.23-8.36,17.72-19.05,26.52-31.78,.61-.88,1.21-1.76,1.81-2.63,.56-.9,1.12-1.79,1.67-2.67,1.1-1.77,2.19-3.52,3.3-5.22,6.37-10.23,11.53-19.89,14.91-27.39,.69-1.69,2.6-6.37,3.3-8.08,.22-.55,.48-.68,.65-1.08,1.17-2.69,1.69-4.32,2.93-6.88,.8-1.74,1.57-3.29,2.88-6.92,1.23-3.22,2.14-6.9,3.37-10.72,.23-.71,.45-1.41,.68-2.1,.2-.7,.4-1.39,.6-2.09,.4-1.39,.8-2.77,1.2-4.19,2.11-7.73,3.4-15.49,4.73-23.24,.46-2.64,.94-5.52,1.41-8.63,.16-1.12,.33-2.28,.46-3.47,.1-1.2,.2-2.42,.31-3.67,.21-2.5,.43-5.11,.65-7.78,.12-2.08,.47-5.29,.61-7.48,.27-3.42,.17-5.5,.2-7.08,.01-1.59,.06-2.69,.28-4.18,.03-.17,.27-1.08,.28-1.25,.14-1.66-.2-4.75-.14-6.25,.02-.59,.32-.62,.36-1.26,0-.33,.18-6.1,.11-7.52-.1-2.02-.49-5.25-.74-8.73-.15-2.7-.37-4.6-.59-6.75-.22-2.15-.49-4.54-1.01-8.19-.17-.9-.42-1.31-.6-2.44-.12-.72-.51-3.03-.96-5.69-.24-1.33-.46-2.76-.74-4.12-.32-1.35-.63-2.63-.89-3.71-.59-2.38-1.41-4.88-2.02-7.23-.97-3.15-2.19-7.75-3.5-11.99-2.19-6.03-3.97-10.85-5.91-14.98-.92-2.08-1.75-4.04-2.51-5.97-.8-1.91-1.61-3.74-2.28-5.67-.49-1.35-.67-1.38-.91-2.33-.23-.93,.15-.09-.25-1.26-.78-2.5-1.93-4.52-3.79-7.88-.37-.66-.86-1.25-1.28-2.14-.14-.3,.19-.07-.44-1.18-.58-1.08-1.28-2.08-1.99-3.1-.71-1.02-1.42-2.07-2.11-3.19-.69-1.12-1.37-2.26-2.04-3.39-.34-.56-.66-1.14-1-1.69-.35-.55-.71-1.09-1.05-1.62-1.39-2.14-2.71-4.17-3.94-5.91-1.19-1.78-2.82-3.41-3.93-4.85-2.15-2.74-4.4-6.18-6.79-8.88-1.23-1.43-2.46-2.86-3.68-4.28-.62-.7-1.21-1.42-1.85-2.08-.64-.67-1.27-1.33-1.9-1.99-1.2-1.31-2.54-2.76-4.2-4.56-1.13-1.25-2.68-2.52-3.6-3.42-1.65-1.65-3.26-3.34-4.82-5-.39-.41-.78-.83-1.17-1.23-.41-.39-.81-.78-1.21-1.16-.81-.76-1.61-1.51-2.39-2.24-.33-.99,2.68,2.11,2.35,1.13-4.09-3.77-1.88-.56-3.47-1.75-1.38-1.31-2.76-2.69-4.21-3.98-1.47-1.27-2.94-2.54-4.38-3.79-1.45-1.24-2.83-2.49-4.21-3.62-1.39-1.12-2.72-2.19-3.96-3.19-3.3-2.7-4.04-3.66-7.43-6.58-3.16-2.78-3.45-3.07-5.35-5.36-.5-.56-1.31-1.74-1.66-2.01-.76-.59-2.11-1.46-3.76-2.52-1.67-1.04-3.59-2.37-5.69-3.58-1.97-1.2-3.88-2.58-5.27-3.4-.94-.55-1.91-1.13-2.92-1.69-1.03-.52-2.08-1.05-3.15-1.6-2.16-1.07-4.39-2.18-6.68-3.31-2.32-1.06-4.73-2.06-7.14-3.11-1.2-.52-2.41-1.05-3.62-1.57-1.21-.51-2.46-.95-3.68-1.43-2.55-.98-5.03-1.97-7.38-2.92-2.38-.86-4.65-1.62-6.69-2.29-1.43-.47-2.97-.91-4.43-1.33-1.47-.39-2.88-.68-4-1.02-2.81-.79-5.35-1.86-8.33-2.7-3.61-.86-8.45-2.07-12.22-2.65-1.41-.18-2.14-.08-3.75-.36-2.36-.4-5.44-1.37-7.32-1.65-2.29-.26-4.59-.42-6.88-.59-1.14-.09-2.28-.18-3.42-.26l-1.7-.15-1.71-.09c-2.99-.19-6.34-.49-9.87-.82-3.54-.18-7.26-.36-10.96-.55-1.85-.13-3.7-.07-5.51-.06-1.82,.03-3.6,.06-5.33,.08-3.46,0-6.68,.36-9.47,.7-1.51,.24-6.37,.35-11.34,1.07-2.49,.3-5.01,.62-7.18,.92-2.16,.36-3.94,.78-4.99,1.07-2.46,.71-.34,.25-6.12,1.21-1.43,.2-2.73,.55-3.97,.84-1.24,.31-2.41,.61-3.57,.9-1.15,.31-2.28,.61-3.43,.92-1.15,.31-2.32,.63-3.52,1.06-3.97,1.34-2.42,.58-6.04,1.56-.33,.1-2.05,.63-4.02,1.23-1.94,.72-4.12,1.52-5.42,2-1.73,.65-3.06,1.28-4.64,1.84-.4,.14-.81,.28-1.24,.43-.42,.17-.85,.34-1.3,.51-.89,.34-1.8,.69-2.72,1.05-1.84,.7-3.67,1.41-5.22,2.05-1.66,.65-3.13,1.44-4.59,2.18-1.46,.74-2.89,1.47-4.38,2.17-.97,.45-1.84,.81-2.9,1.24-1.06,.43-2.25,1.04-3.9,1.88-1.74,.91-1.87,1.16-4.33,2.49-.78,.44-2.08,1.04-3.33,1.73-1.24,.7-2.48,1.4-3.24,1.86-1.71,1.04-3.63,2.25-5.3,3.3-2.67,1.74-6.17,4.14-10.3,6.81-2.02,1.4-4.12,2.97-6.36,4.56-1.11,.8-2.25,1.62-3.41,2.46-1.11,.89-2.25,1.79-3.39,2.71-1.9,1.53-2.58,2.21-4.8,4-1.72,1.38-4.06,3.5-6.75,5.78-2.73,2.24-5.52,4.96-8.19,7.51-.67,.65-1.37,1.32-2.11,2.03-.37,.35-.74,.72-1.13,1.09-.37,.39-.75,.79-1.14,1.2-1.56,1.64-3.29,3.46-5.28,5.49-1.26,1.22-3.32,3.6-3.4,3.68-.96,1.06-1.2,1.12-1.8,1.76-2.4,2.57-2.43,2.7-4.36,4.54-.24,.22-1.66,1.8-1.72,1.85-1.38,1.21-.72-.59-.06-1.66,.21-.45,2.81-3.21,3.28-3.84,.8-1.01,1.06-1.73,2.14-3.16,.51-.68,1.86-2.2,2.41-2.92,.57-.7,.94-1.15,1.6-1.96,1.28-1.48,2.58-3,3.84-4.47,1.26-1.47,2.48-2.9,3.65-4.12,2.38-2.6,4.2-4.72,5.91-6.66-1.7,1.49-3.5,3.21-5.35,5.02-.92,.91-1.88,1.81-2.81,2.76-.91,.96-1.83,1.93-2.74,2.89-1.6,1.66-3.76,3.71-5.37,5.43-2.1,2.44-3.55,4.38-5.66,6.88-1.72,1.95-3.4,4.15-5.14,6.33-.87,1.1-1.75,2.2-2.62,3.3-.43,.55-.87,1.1-1.3,1.65-.42,.56-.81,1.13-1.21,1.69-1.34,1.91-2.97,4.24-4.65,6.62-.86,1.18-1.64,2.42-2.4,3.63-.76,1.21-1.5,2.39-2.19,3.48-.82,1.34-1.63,2.65-2.41,3.92-.76,1.28-1.42,2.57-2.11,3.76-1.4,2.45-2.57,4.26-3.88,6.58-.88,1.66-1.93,3.79-2.86,5.69-.68,1.38-1.35,2.93-2.2,4.59-1.42,2.99-2.91,6.13-4.33,9.22-1.19,2.53-1.62,4.11-2.81,7.11-.68,1.71-1.38,3.48-2.08,5.25-.7,1.77-1.28,3.6-1.91,5.37-1.22,3.54-2.44,6.9-3.14,9.8-.38,1.45-.48,2.05-.94,3.7-.27,.96-.55,1.93-.83,2.92-.14,.5-.29,1-.44,1.5-.12,.51-.25,1.02-.37,1.54-.5,2.07-1,4.2-1.52,6.35-.35,1.5-.6,2.64-.83,3.77-.19,1.14-.38,2.27-.62,3.72-.36,2.03-.46,2.14-.75,3.74-.11,.63-.33,1.95-.57,3.39-.23,1.44-.36,3.03-.53,4.16-.25,1.93-.38,2.32-.56,3.77-.29,2.47-.51,4.24-.63,6.33-.21,2.29-.33,3.69-.57,6.34-.06,.88-.14,2.01-.23,3.15-.07,1.14-.05,2.29-.09,3.2-.07,2.14-.14,4.25-.21,6.36-.03,1.05-.09,2.11-.1,3.17,.02,1.06,.04,2.12,.05,3.19,.08,2.67,.1,4.98,.26,7.63,.14,2.45,.29,5.16,.42,7.62,.17,2.2,.46,4.45,.7,6.73,.13,1.14,.25,2.28,.38,3.43,.17,1.14,.34,2.28,.51,3.41,.35,2.26,.69,4.5,1.03,6.67,.41,2.16,.8,4.24,1.17,6.21,.1,.55,.35,1.92,.57,3.1,.25,1.12,.37,1.66,.42,1.9,.55,2.33,.99,3.83,1.56,6.17,.84,3.27,1.75,6.24,2.56,9.23,.85,2.98,1.86,5.89,2.85,9.06,.96,2.96,2.18,5.97,3.29,9,1.14,3.02,2.47,5.95,3.63,8.79,4.45,10.24,9.7,20.55,15.76,30.5,1.24,1.99,2.36,3.87,3.5,5.61,1.17,1.72,2.28,3.36,3.36,4.96,.54,.8,1.08,1.6,1.61,2.39l1.68,2.32c1.11,1.55,2.23,3.12,3.4,4.75,1.1,1.58,2.1,2.86,3.13,4.29,1.05,1.42,2.16,2.97,3.71,4.91,.97,1.11,3.84,4.56,7.01,8.07,1.62,1.73,3.28,3.51,4.74,5.08,1.44,1.59,2.83,2.86,3.7,3.76,1.23,1.24,2.63,2.64,4.14,4.16,1.57,1.46,3.26,3.04,5.01,4.68,.71,.65,1.44,1.33,2.18,2.01,.75,.67,1.55,1.32,2.32,1.99,1.56,1.32,3.11,2.64,4.54,3.86,2.9,2.4,5.43,4.31,6.5,5.25,1.69,1.43,1.31,1.82,2.62,2.85,.41,.33,1.67,1.27,3.35,2.52,1.69,1.24,3.76,2.83,5.94,4.26,2.16,1.46,4.32,2.91,6.05,4.08,1.76,1.11,3.09,1.9,3.53,2.16,1.92,1.07,4.42,2.87,8.75,5.21,1.55,.87,3.15,1.65,4.49,2.4,5.04,2.67,10.77,5.75,15.9,8.01,3.31,1.58,6.29,2.63,9.38,3.91,1.85,.76,3.95,1.73,5.87,2.41,3.14,1.17,5.51,1.93,7.17,2.56,1.16,.42,7.06,2.44,8.38,2.95,.03,.01,.73,.3,1.7,.71l.03-.1h0s0,0,0,0h0s0,0,0,0h0s0,.02,0,.02v.03s-.01,.05,0,.05c.55,.22,1.2,.39,1.78,.45,.57,.06,1.03,.01,1.09,.02,.52,.01,.09,.27-.28,.39-.37,.14-.65,.24,.38,.16,.61-.08,1.95-.38,3.22-1.48,.63-.54,1.21-1.28,1.61-2.16l.15-.34c.05-.12,.11-.29,.16-.44,.1-.31,.21-.62,.31-.93,.2-.63,.45-1.26,.61-1.92,.62-2.38,.61-3.08,.99-5.97,.19-1.37,.62-4.72,.42-8.44-.11-2.27-.44-3.82-.78-6.03-.36-2.06-.81-4.29-1.44-6.66-.65-2.36-1.48-4.86-2.58-7.42-.19-.5-.82-1.2-.99-1.4-.76-1.01-1.98-1.96-3.24-2.3-.38-.11-.74-.17-1.09-.19-.18,0-.34-.03-.51,0-.2,0-.39,.02-.58,.03-1.03,.06-2.01,.12-3.03,.14-9.13,.24-17.13,.35-25.52,.61-1.88,.07-3.8,.14-5.56,.21-.88,.03-1.72,.06-2.5,.09-.39,.01-.76,.02-1.12,.03h-.26c-.18,0-.35,0-.53,0-.35,0-.7-.03-1.03-.05-1.47-.18-2.48-.52-3.32-.86-.22-.09-.43-.17-.64-.25-.18-.09-.37-.18-.55-.26-.36-.18-.71-.35-1.05-.52-.62-.36-1.23-.71-1.83-1.06-.57-.36-1.14-.72-1.73-1.09-2.25-1.49-3.59-2.44-4.7-3.24-1.12-.79-1.96-1.45-3.12-2.4-2.07-1.75-3.93-3.68-5.85-5.54-1.81-1.79-3.76-3.61-5.65-5.67-1.44-1.56-3.38-3.97-5.14-6.14-1.52-1.85-1.89-2.11-3.41-4.14-2.08-2.83-3.77-5.58-5.85-9.16-1.06-1.86-2.46-4.08-3.38-6.15-.85-1.93-1.83-4.38-2.44-7.38-.16-.74-.25-1.56-.37-2.34-.03-.19-.06-.4-.06-.61,0-.2-.03-.47-.02-.55,0-.25,0-.31,0-.47,.03-.56-.18-1.1-.46-1.54-.14-.21-.32-.42-.48-.58-.05-.05-.22-.22-.36-.34-.14-.13-.29-.25-.45-.38-.62-.5-1.3-.97-1.91-1.43-1.69-1.24-3.48-2.47-5.77-3.74-3.18-1.77-7.22-3.5-6.56-3.16-.48-.26-.93-.5-1.36-.73-.58-.3-1.09-.64-1.55-.96-.91-.66-1.59-1.33-2.07-1.91-.95-1.18-1.14-1.97-.82-2.09,.19-.08,.81,.31,1.63,.76,.82,.44,1.86,.91,2.77,1.15,1.04,.26,.76-.07,1.59,.11,1.81,.26,1.99,.28,2.91-.34,.59-.39,1.91,.14-2.03-1.8-1.55-.8-1.95-1.09-2.61-1.44-.32-.19-.7-.42-1.23-.85-.53-.43-1.24-1.08-2.03-2.21-.89-1.27-1.56-2.79-1.84-4.33-.05-.39,0-.65,.24-.83,.07-.12,.29-.16,.43-.25,.18-.06,.38-.11,.57-.17,.83-.17,1.73-.27,2.67-.32,2.94-.2,6.42-.35,8.95-.34,2.69,.03,4.44,.3,6.42,.31,.82,.03,1.85,.07,3,.12,.29,0,.58,.02,.88,.03,.3,.04,.6,.09,.9,.14,.61,.09,1.24,.18,1.88,.27l.96,.14,.93,.26c.62,.17,1.24,.33,1.83,.5,.61,.13,1.15,.41,1.68,.61,.53,.21,1.04,.42,1.5,.6,.62,.22,1,.52,1.5,.77,.48,.29,1.06,.56,1.84,1.12,.71,.55,1.33,1.05,1.9,1.52,.55,.49,1,1.02,1.48,1.51,.23,.25,.47,.5,.71,.75,.22,.27,.43,.54,.66,.83,.44,.57,.97,1.13,1.46,1.83,1.1,1.38,3.12,4.14,4.49,6.26,1.27,1.97,3.39,5.37,4.36,6.29,.5,.63,1.15,.94,1.78,1.42,.66,.41,1.41,.94,2.25,1.78,.71,.71,1.34,1.43,1.93,2.13,.59,.71,1.13,1.4,1.63,1.94,.24,.3,.55,.54,.82,.81,.27,.27,.56,.52,.86,.75,.3,.24,.6,.47,.89,.71l.95,.64c2.57,1.66,5.46,2.92,9.07,3.87,.7,.18,1.34,.38,1.95,.55,.61,.15,1.18,.28,1.71,.36,.31,.04,1.01-.05,1.29,0,1.82,.35,2.21,.7,3.64,.98,.88,.16,.96-.08,2.54,.15,6.19,1.01,12.72,1.68,17.1,2.26,4.38,.64,6.62,1.24,4.21,2.14-.32,.11-.75,.29-1.31,.43-.01,0-.25,.09-.54,.19-.3,.1-.63,.2-.77,.22-.76,.07-5.79-.1-6.48,0-.09,.02,1.34,.59,1.23,.78-.06,.1-2.46,.18-1.35,.52,1.07,.34,2.1,.24,3.88,.49,.33,.05,1.06,.4,1.28,.42,.84,.08,2.04,.2,3.42,.3,1.39,.07,2.97,.15,4.58,.23,.96,.04,1.92,.08,2.88,.12,1.04,.02,2.06,.04,3.05,.06,1.97,.04,3.79,.07,5.26,.09,.45,0,.92,.01,1.39,.02h.18s.09,0,.09,0l.02-.09,.09-.36c.06-.24,.12-.48,.18-.73,.25-.99,.5-2.02,.78-3.11,.27-1.09,.56-2.21,.89-3.38,.16-.58,.33-1.17,.5-1.78,.17-.57,.35-1.15,.53-1.75,.71-2.26,1.52-4.7,2.49-7.42,.49-1.36,1.01-2.79,1.59-4.29,.15-.37,.29-.75,.44-1.14,.17-.41,.33-.83,.51-1.25,.46-1.03,.89-2.1,1.46-3.18,.13-.26,.27-.54,.42-.83-.02-.29-.15-.58-.22-.88-.08-.3-.17-.61-.26-.92,0-.04-.02-.08-.03-.12l.04-.11,.07-.21,.15-.42c.2-.58,.4-1.13,.61-1.64,.2-.53,.41-1,.6-1.42,.56-1.23,1.23-2.48,2.03-3.34,.15-.14,.29-.27,.43-.4,.17-.18,.38-.29,.58-.42,.19-.15,.41-.22,.62-.29,.21-.1,.44-.11,.67-.11h.17s.08,0,.08,0c0,0-.05-.01-.07-.02l-.34-.09c-.91-.23-1.81-.52-2.69-.85-.44-.14-.88-.34-1.31-.54-.43-.2-.86-.35-1.28-.59-.84-.54-1.66-.95-2.45-1.52-3.25-.49-6.1-1.06-8.54-1.55-2.1-.45-3.85-.83-5.13-1.1-2.1-.43-3.93-.75-5.57-1.05-1.65-.27-3.09-.57-4.43-.94-.18-.06-1.05-.34-2.34-.79-1.28-.47-3-1.06-4.88-1.7-1.06-.39-3.17-.86-3.69-1.06-1.77-.65-2.22-1.19-3.46-1.64-1.68-.66-1.12-.11-3.71-1.07-1.87-.71-3.94-1.82-5.81-2.66-1.63-.71-3.26-1.28-4.76-1.98-.87-.39-2.75-1.07-3.61-1.49-1.24-.65-3.05-2.06-4.33-2.81-.62-.34-1.9-.88-2.33-1.18-.94-.62-2.06-1.43-3.18-2.23-1.13-.79-2.16-1.71-3.09-2.37-1.06-.81-2.15-1.49-3.09-2.28-.97-.77-1.91-1.51-2.82-2.23-.46-.36-.92-.72-1.38-1.08l-1.28-1.16c-.85-.78-1.7-1.57-2.55-2.38-4.78-4.85-8.43-9.67-9.73-12.47-.73-1.58,.27-.45-.03-1.52-.18-.64-1.06-2.04-1-2.44,.28-1.61,4.15,2.65,5.12,2.95-.71-1.25-1.41-2.37-2.09-3.42-.35-.52-.69-1.02-1.01-1.51-.33-.49-.59-1-.89-1.48-.58-.97-1.14-1.89-1.68-2.79-.55-.91-1.09-1.8-1.49-2.77-.72-1.61-1.4-3.28-2.06-4.89-.57-1.65-1.04-3.26-1.56-4.67-.35-1.04-.8-2.02-1.06-3.01-.3-.98-.59-1.93-.87-2.85-.55-1.84-1.21-3.56-1.5-5.27-.27-1.3-.39-2.65-.64-3.85-.18-.89-.52-1.75-.65-2.55-.13-.95-.18-2.84-.34-3.9-.18-1.23-.26-1.49-.37-2.29-.05-.4-.11-.94-.19-1.8-.03-.85-.07-2.02-.13-3.7-.17-5.94-.24-5.7,.5-7.74,.62-1.73,2.95,.33,3.54-3.74,.47-3.49,.05-7.28,.34-12.79,0-.09,.38-1.39,.43-2.53,.05-1.23-.11-2.27,.49-5.09,.79-3.42,.67-.01,1.8-3.63,.88-7.38,2.21-13.67,3.7-19.85,.49-1.83,.55-3.08,1.02-4.92,.98-3.45,2.54-7.58,4.52-11.57,.47-.88,.88-1.81,1.41-2.66,.51-.87,1.01-1.75,1.6-2.57,.55-.86,1.19-1.65,1.85-2.45,.37-.46,.74-.92,1.12-1.38,.36-.5,.73-.99,1.05-1.53,2.65-4.2,4.03-9.89,2.48-15.88-.05-.17-.21-.48-.39-.91-.18-.43-.4-.92-.55-1.55-.11-.48,.25,.05-.17-1.27-.6-1.93-1.12-2.91-1.65-4.81-.33-1.22-1.64-6.44-2.03-11.96-.47-5.52,.27-11.24,.7-13.19,.08-.43,.61-1.76,.81-2.43,.65-2.2,1.51-3.67,2.21-4.07,.71-.4,1.26,.27,1.52,2.29,.12,.92,.24,1.41,.52,.87,.28-.54,.67-2.13,1.59-5.35,.28-.93,.29-1.92,.86-3.56,.08-.23,.21-.57,.36-.98,.35-1.06,1.15-2.66,2.48-3.81,2.19-1.9,4.22-2.19,5.16-2.15,.66,.06,1.18,.19,1.61,.32,.45,.14,.7,.24,1.07,.38,.81,.29,1.23,.48,1.6,.64,.73,.32,1.26,.48,4.22,1.04,2.26,.42,6.22,1.54,10.66,2.92,4.44,1.39,9.34,3.09,13.55,4.58,4.48,1.6,8.97,3.19,14,5.61,1.02,.53,2.25,1.14,3.37,1.81,1.11,.69,2.26,1.29,3.08,1.84,1.48,.93,.35-.32,1.33,.24-.14-.06,.91,.57,2.06,1.55,.63,.51,1.34,1.07,2.02,1.62,.76,.6,1.55,1.11,2.2,1.48,1.87,1.05,4.11,1.93,6.81,2.35,2.68,.43,5.87,.42,9.35-.54,2.77-.73,4.33-.85,6.23-1.24,6.32-1.28,11.28-2.21,16.4-1.86,.24,.02,1.06,.26,1.3,.26,3.3-.06,1.4,.06,3.84,.44,.46,.07,2.35,.16,2.54,.22,1.99,.59,.23,1.4,3.83,1.49,1.89,.06,6.89-.25,12.24-.35,5.34-.13,11.02-.03,14.16,.12,6.77,.36,8.66,.82,12.61,.9,2.8,.09,3.47,.37,8.8,1.06,.92,.12,1.91,.08,3.8,.36,1.88,.29,2.9,.27,3.8,.43,.94,.16,2.02,.43,3.1,.7,.53,.14,1.18,.28,1.75,.4,.59,.09,1.15,.19,1.67,.22,1.29,.1,2.61-.04,4.2-.15,2.08-.19,3.38-.29,5.46-.86,3.1-.81,6.33-2.71,7.43-3.41,1.9-1.18,2.01-1.01,3.43-1.9,2.47-1.58,5.89-4.12,7.82-4.4,.98-.15,2.41-.8,2.55-.72,.65,.38-1.54,1.95-5.65,5.46-.12,.11-2.23,1.71-4.09,3.25-.84,.71-2.04,1.65-2.75,2.16-.72,.55-1.04,.84-.56,.7,.49-.16,1.02-.36,1.58-.63,.27-.14,.56-.29,.84-.45,.3-.17,.59-.34,.81-.48,.97-.61,2.01-1.36,3.15-2.2,2.28-1.67,4.9-3.72,7.89-5.74,5.2-3.56,14.29-8.66,17.15-10.96,1.76-1.45,4.85-2.65,8.79-5.05,.33-.2,2.06-1.37,2.14-1.4,1.59-.8,4.28-1.83,5.76-2.52,1.43-.7,.45-.65,2.14-1.4,.65-.26,1.76-.7,2.72-1.09,.97-.4,1.81-.61,1.92-.67,.84-.25,1.75-.61,2.64-.75,.39-.08,.77-.15,1.15-.23,.38-.07,.76-.16,1.13-.17,.75-.03,1.44-.14,2.05-.1,.61,.02,1.11,.18,1.48,.29,1.51,.63,.2-.41,1.17,0,.52,.22,1.63,1.16,2.44,2.47,.82,1.3,1.42,2.8,1.78,3.73,.27,.78,1.47,2.39,2.03,7.18-.11,1.61-.39,1.98-.72,1.48-.33-.49-.75-1.84-1.3-3.63-.26-.83-.54-1.07-.86-2.27-.12-.45-.27-1.81-.52-2.29-.26-.52-.53-.35-.77-.7-.26-.39-.78-1.27-1.38-1.93-.59-.68-1.3-1.05-1.52-.91,.77,.77,1.17,1.43,1.55,2.01,.37,.6,.68,1.09,1.04,1.9,.2,.41,.51,1.82,.66,2.17,.38,.94,.63,.9,1.01,2.19,.44,1.47,.8,4.31,1.12,6,.73,3.83,1.63,6.64,1.89,12.46,.1,2.47-.17,5.16-.13,6.35,.1,2.56,.48,3.39,.63,6.39,.05,.93,.13,5.89-.06,11.53-.09,2.82-.25,5.8-.45,8.52-.1,1.38-.21,2.62-.35,3.87-.07,.63-.14,1.24-.21,1.8-.04,.28-.07,.56-.11,.82,0,.13-.07,.27-.02,.38,.05,.11,.1,.22,.15,.32,.22,.4,.42,.75,.6,1.06,0,.02,.1,.27,.23,.63,.12,.36,.32,.87,.47,1.34,.26,.91,.49,1.83,.42,1.92-.11,.15-.37-.2-.67-.66-.3-.47-.6-1.01-.96-1.44-.78-.92-.25-.46-.13,.06,.21,1.07-.61-.41-2.02-2.44-.03-.19-.16-.36-.13-.57,.02-.21,.04-.42,.06-.63,.04-.43,.07-.87,.11-1.3,.03-.44,.06-.87,.09-1.3,.03-.43,.04-.85,.04-1.12,0-1.03-.44-1.36-.5-2.61-.01-.31,.09-2.14,.07-2.55-.1-3.9,.03-12.48-.33-17.79-.15-2.38-.46-4.16-.66-6.3-.1-1.2-.23-5.3-.53-6.23-.06-.18-.27,.33-.31,0-.32-2.85-.53-7.33-1.05-9.71-.63-2.94-.89-2.27-1.53-4.54-.43,.95,.54,4.01,.38,5.83-.23-.27-.42-3.49-.69-3.48-.1,1.38,.46,4.13,.69,3.48,.25-.72,.47,.91,.59,2.98,.13,2.07,.13,4.57,.2,5.46,.09,1.32,.29,.9,.36,2.46,.09,1.94-.04,4.26,0,6.2,.07,3.5,.27,7.85,.17,12.54-.02,1.32-.19,4.52-.42,8.01-.12,1.74-.26,3.56-.38,5.24-.1,1.2-.2,2.36-.29,3.43-.06,.64-.11,1.25-.16,1.83-.03,.29-.05,.57-.07,.85-.03,.28,.03,.52,.01,.78,1.17,1.53,1.89,2.66,2.38,3.34,.7,.96,.67,.3,1.16,1.12,.66,1.08,1.87,3.74,3.13,6.48,1.24,2.68,2.72,5.28,3.68,7.77,.63,1.45,1.3,4.62,1.8,5.91,.5,1.36,.81,2.19,1.3,3.5,.24,.72,.78,2.43,1.11,3.57,.15,.5,.44,.72,.56,1.15,.19,.64,.39,1.83,.58,2.43,.91,2.9,.79,2.74,2.17,8.5,.26,1.14,.71,3.51,1.32,6.51,.33,1.49,.57,3.16,.84,4.91,.26,1.75,.55,3.57,.8,5.4,.18,1.84,.36,3.67,.53,5.43,.16,1.76,.33,3.44,.34,4.97,.09,3.05,.08,5.47-.1,6.61-.48,3.02-.65,2.12-1.28-3.77-.14-1.33-.04-1.5-.21-2.51-.13-1.07-.27-3.91-.68-5,.16,2.94,.27,5.78,.48,8.5,.11,1.36,.23,2.7,.34,4,.08,1.29,.12,2.53,.17,3.76,.06,1.15,.05,2.39,.06,3.65,0,1.26,.03,2.56-.07,3.79-.23,5.49-.91,10.52-1.9,16.07-.31,2-.76,4.24-1.21,6.15-.2,.93-.58,1.95-.92,2.98-.34,1.04-.69,2.07-.99,2.98-.3,.89-.54,2.11-.66,2.43-1.15,3.29-2.88,6.86-4.54,10.33-.48,.16-1.52,1.45-1.59,.58-.38,.76-.73,1.44-1.16,2.28-.21,.43-.44,.89-.7,1.43-.28,.53-.6,1.12-.97,1.81-.72,1.31-.78,1.87-1.69,3.35-.89,1.49-2.47,3.76-3.49,5.17-.84,1.21-1.24,2.15-2.04,3.17-1.96,2.67-4.07,5.18-6.4,7.74-2.38,2.67-4.7,4.96-6.18,6.34-1.04,.85-4.28,3.37-6.07,4.56-.08,.06-.38,.37-1.02,.9-.32,.26-.72,.59-1.23,.93-.52,.33-1.14,.71-1.88,1.12-3.02,1.69-3,1.35-2.5,.75,.38-.5,2.69-1.96,4.8-3.52,1.05-.8,2.07-1.57,2.85-2.19,.77-.61,1.24-1.13,1.27-1.26-.36,.14-1.06,.81-2,1.49-.5,.38-2.01,1.49-3.01,2.24-1.14,.79-2.14,1.48-3.12,2.16-.97,.71-1.97,1.35-3.12,2.05-1.03,.64-1.35,.77-2.16,1.29-1.33,.8-5.02,2.92-9.23,4.76-1.03,.51-2.14,.89-3.21,1.32-1.08,.41-2.14,.83-3.16,1.2-2.07,.66-3.94,1.23-5.33,1.62-2.68,.6-2.11,.49-4.99,.99-1.31,.24-1.04,.03-3.77,.55-3.19,.63-5.14,.9-6.88,1.26-.87,.16-1.68,.35-2.59,.49-.9,.13-1.89,.26-3.1,.4-.4,.04-1.26,.12-2.26,.22-1.02,.12-2.17,.13-3.12,.19-.59,.09-1.01,.15-1.37,.21-.68,.09-1.3,.18-1.86,.26-.29,.03-.57,.07-.83,.1l-.2,.02c-.06,0-.03,.02,0,.05l.07,.07,.25,.3c.97,1.24,1.78,2.39,2.49,4.15,.03,.05,.06,.11,.1,.17,.36,.58,.67,1.48,1.25,2.51,.24,.49,.5,1,.76,1.52,.23,.51,.47,1.04,.71,1.59,.26,.54,.45,1.12,.68,1.7,.24,.58,.46,1.18,.65,1.8,.85,2.46,1.49,5.17,1.87,7.95,.09,.66,.17,1.31,.25,1.95,.04,.64,.09,1.28,.13,1.92,.1,1.27,.13,2.54,.16,3.83,.06,2.64,.13,5.75,.17,7.71,.12,3.95,.35,7.68,.47,12.84,0,1.26,.02,2.8,.03,3.86,.05,2.79,.17,8.92,.25,12.84-.08,5.41-.05-1.88-.15,5.13-.04,2.64-.08,2.72,.04,5.14,.09,.22,.07-4.55,.12-6.42,.14,1.83,.06,6.75,.1,10.28,.03,2.5,.18,7.31,.13,10.27-.05,3.22-.05,.53-.03,3.85,.01,1.25,.02,2.04,.03,3.85,.01,3.69-.07,11.3-.12,16.7,0,.34,0,.68,0,1.01v.49c0,.09,0,.25,.02,.38,.04,.56,.14,1.11,.26,1.64,.17,.9,.75,2.39,1.3,3.09,.1,.15,.23,.35,.46,.57,.11,.12,.23,.25,.37,.4,.16,.13,.33,.27,.53,.43,.8,.6,2.13,1.34,4.43,1.51,.61,.08,.32,.06-.13,.03-.23-.02-.49-.03-.69-.05-.21,0-.35-.03-.35-.03,0,.03,1.89,.21,1.18,.17-.61-.03-2.77-.12-4.55-1.47-.89-.65-1.63-1.61-2.12-2.66-.49-1.05-.75-2.16-.87-3.08-.06-.46-.08-.74-.08-1.04,0-.36,0-.75,0-1.39,.01-2.29,.03-5.98,.05-8.99h.12c.12-4.12-.1-.82-.14-2.57,.03,1-.03-6.09-.04-6.42,0-1.13,.07-7.87,0-8.99-.12-2.14,.02-.71-.02-5.14-.03-1.14-.05-2.14-.09-3.86-.03-1.9-.07-5.02-.11-7.71,0-.28-.03-2.45-.03-2.57-.16-2.04,0-.32-.07-5.14,0-.63-.09-.76-.09-1.29-.02-1.84-.06-4.89-.07-6.42-.06-2.35-.22-3.95-.31-6.42-.02-1.45-.07-4.29-.11-6.42-.06-1.34-.11-2.46-.18-3.85-.04-1.32,0-2.89,0-2.57-.03-1.19-.09-.43-.12-1.29-.06-2.12-.14-4.75-.22-7.46-.02-1.36-.13-2.72-.21-4.05-.1-1.32-.31-2.61-.48-3.8-.53-2.73-1.11-4.66-2.03-7.28-.22-.61-.55-1.51-.88-2.39-.38-.86-.7-1.73-.98-2.24-.15-.29-.3-.58-.45-.88-.19-.37-.4-.73-.64-1.11-.48-.74-.91-1.51-1.57-2.32-.41-1.7-.97-3.13-1.69-4.3-.07-.11-.15-.24-.24-.36,.14-.07,.31-.14,.47-.21,.94-.41,2.03-.9,3.13-1.43,1.11-.06,2.24-.07,3.37-.18,.56-.05,1.12-.1,1.67-.15,.48-.05,.94-.1,1.39-.15,.51-.06,.81-.21,1.25-.26,2.28-.19,4.95-.65,7.48-1.13,.64-.09,2.15-.48,3.82-.86,.83-.19,1.7-.4,2.52-.59,.81-.21,1.57-.45,2.19-.64,1.1-.35,2.64-.72,4.29-1.28,1.65-.58,3.47-1.16,5.18-1.84,1.61-.68,2.55-1.11,3.33-1.46,.78-.34,1.4-.62,2.34-1.05,1.01-.45,2.42-.99,3.87-1.56,1.42-.64,2.89-1.3,4.04-1.86,5.75-2.91,11.59-7.39,15.91-11.38,.64-.52,2.06-1.8,2.7-2.46,.34-.35,.84-.85,1.42-1.46,.59-.6,1.21-1.36,1.89-2.09,1.39-1.48,3.53-4.04,5.39-6.51,.8-1.1,1.5-1.91,2.19-2.87,.41-.65,1.12-1.78,1.93-3.07,.84-1.27,1.64-2.8,2.51-4.07,.85-1.25,1.53-2.43,2.29-3.55,.77-1.11,1.44-2.28,2.17-3.55-.03,.5-.65,2.04-1.29,3.35-.63,1.32-1.17,2.5-.79,2.42,.17-.45,.63-1.35,1.15-2.37,.53-1.01,1.02-2.21,1.43-3.13,.14-.35,.51-1.09,.94-2.07,.42-.98,.93-2.2,1.46-3.46,1-2.55,2.03-5.29,2.42-6.83,.18-.65,.46-1.9,.59-2.34,.38-1.33,1.73-5.39,2.25-8.09,.39-1.77-.14-1.12,.97-5.92,.03-.14,.19,.18,.24,.05,.06-.12,.3-1.36,.56-2.69,.27-1.33,.52-2.74,.54-3.2,.26,1.15,.07,3.32-.12,5.81-.31,2.46-.7,5.23-1.11,7.5,1.07-2.06,1.81-7.81,2.29-11.92,.18-2.1,.24-3.59,.38-6.06,.06-1.08,.16-2.34,.27-3.59,.05-1.26,.09-2.53,.09-3.64,0-1.41-.12-1.4-.2-2.42-.1-.98-.11-2.64-.28-4.52-.16-1.87-.34-3.85-.46-5.29-.11-1.07-.23-2.16-.34-3.23-.16-1.07-.32-2.13-.48-3.17-.31-2.08-.55-4.07-.7-5.86-.01-.25-.35-7.33-.35-7.38,.15-.48,.46,1.78,.98,3.61,.54,1.9,.64,2.09,.73,2.62,.04,.27,.09,.62,.19,1.31,.07,.7,.18,1.75,.36,3.41,.09,.81,.37,1.83,.46,2.46,.14,1.08,.27,2.17,.38,3.23,.08,1.05,.16,2.06,.23,2.97,.19,2.13,.4,4.06,.61,5.9,.17,1.81,.26,3.5,.35,5.22,0,1.7-.01,3.69-.12,5.63-.15,1.94-.21,3.84-.36,5.37-.09,1.16-.04,2.25-.13,3.7-.12,1.18-.74,4.84-.29,3.71,.92-3.51,1.03-6.61,1.2-9.79,.03-1.3,.2-3.17,.15-4.92,0-.36,0-1.84,0-2.46-.01-.54-.19-.99-.2-1.24-.06-1.35,.1-3.54,.04-4.9-.06-.73-.28-.99-.3-1.25-.15-2.24-.18-4.01-.34-6.25-.11-2.09-.4-3.85-.65-6.21-.26-2.11-.36-3.9-.63-5.64-.25-1.74-.52-3.46-.89-5.45-.26-1.47-.65-2.39-.92-3.62-.4-1.86-.73-3.76-1.05-5.6-.39-1.83-.77-3.61-1.19-5.26-.45-1.95-1.05-3.63-1.6-5.46-.54-1.84-1.23-3.77-2.07-6.2-.16-.46-.42-1.17-.69-1.84-.28-.66-.55-1.27-.65-1.55-.78-2.06-.78-2.8-1.55-4.55-1.59-4.03-4.61-9.58-6.79-13.58-.07-.15-.17-.33-.27-.53l-.04-.08-.1-.17c-.07-.12-.15-.24-.23-.37-.16-.25-.32-.51-.49-.79-.34-.55-.7-1.13-1.07-1.74-.42-.61-.86-1.24-1.31-1.88,.32-2.47,.66-5.05,.92-7.02,.15-.99,.26-1.68,.26-1.7,.13-.32,.23,.13,.3,1.09,0,.12,.02,.25,.03,.38,0,.07,0,.15,.01,.22,0,.15,0,.28,0,.43-.02,.58-.04,1.21-.06,1.88-.04,1.34-.14,2.84-.18,4.43,.47,.59,.97,1.2,1.45,1.82,.44,.62,.89,1.26,1.34,1.9,.2,.28,.4,.57,.6,.86l.32,.48c.21,.32,.42,.64,.64,.97,2.16,3.36,4.2,7.42,6.04,11.75,.97,2.15,1.78,4.43,2.66,6.71,.81,2.31,1.61,4.65,2.36,7.01,.65,2.21,1.3,3.99,1.84,5.92,.68,2.76,1.29,5.49,1.69,7.27,.49,2.42,1.81,5.87,2.37,12.29Z" style="fill:#010101; fill-rule:evenodd;"/></svg>